#N canvas 155 40 595 238 10;
#X obj 28 49 tgl 30 0 kickbutton1 empty empty 17 7 0 10 -262144 -1
-1 1 1;
#X obj 68 49 tgl 30 0 kickbutton2 empty empty 17 7 0 10 -262144 -1
-1 0 1;
#X obj 108 49 tgl 30 0 kickbutton3 empty empty 17 7 0 10 -262144 -1
-1 1 1;
#X obj 148 49 tgl 30 0 kickbutton4 empty empty 17 7 0 10 -262144 -1
-1 0 1;
#X obj 188 49 tgl 30 0 kickbutton5 empty empty 17 7 0 10 -262144 -1
-1 1 1;
#X obj 228 49 tgl 30 0 kickbutton6 empty empty 17 7 0 10 -262144 -1
-1 0 1;
#X obj 268 49 tgl 30 0 kickbutton7 empty empty 17 7 0 10 -262144 -1
-1 1 1;
#X obj 308 49 tgl 30 0 kickbutton8 empty empty 17 7 0 10 -262144 -1
-1 1 1;
#X obj 28 89 tgl 30 0 snarebutton1 empty empty 17 7 0 10 -262144 -1
-1 0 1;
#X obj 28 149 tgl 30 0 kickbutton9 empty empty 17 7 0 10 -262144 -1
-1 1 1;
#X obj 68 149 tgl 30 0 kickbutton10 empty empty 17 7 0 10 -262144 -1
-1 0 1;
#X obj 108 149 tgl 30 0 kickbutton11 empty empty 17 7 0 10 -262144
-1 -1 1 1;
#X obj 148 149 tgl 30 0 kickbutton12 empty empty 17 7 0 10 -262144
-1 -1 1 1;
#X obj 188 149 tgl 30 0 kickbutton13 empty empty 17 7 0 10 -262144
-1 -1 1 1;
#X obj 228 149 tgl 30 0 kickbutton14 empty empty 17 7 0 10 -262144
-1 -1 1 1;
#X obj 268 149 tgl 30 0 kickbutton15 empty empty 17 7 0 10 -262144
-1 -1 1 1;
#X obj 308 149 tgl 30 0 kickbutton16 empty empty 17 7 0 10 -262144
-1 -1 0 1;
#X obj 68 89 tgl 30 0 snarebutton2 empty empty 17 7 0 10 -262144 -1
-1 0 1;
#X obj 108 89 tgl 30 0 snarebutton3 empty empty 17 7 0 10 -262144 -1
-1 1 1;
#X obj 148 89 tgl 30 0 snarebutton4 empty empty 17 7 0 10 -262144 -1
-1 0 1;
#X obj 188 89 tgl 30 0 snarebutton5 empty empty 17 7 0 10 -262144 -1
-1 0 1;
#X obj 228 89 tgl 30 0 snarebutton6 empty empty 17 7 0 10 -262144 -1
-1 0 1;
#X obj 268 89 tgl 30 0 snarebutton7 empty empty 17 7 0 10 -262144 -1
-1 1 1;
#X obj 308 89 tgl 30 0 snarebutton8 empty empty 17 7 0 10 -262144 -1
-1 0 1;
#X obj 28 189 tgl 30 0 snarebutton9 empty empty 17 7 0 10 -262144 -1
-1 0 1;
#X obj 68 189 tgl 30 0 snarebutton10 empty empty 17 7 0 10 -262144
-1 -1 0 1;
#X obj 108 189 tgl 30 0 snarebutton11 empty empty 17 7 0 10 -262144
-1 -1 1 1;
#X obj 148 189 tgl 30 0 snarebutton12 empty empty 17 7 0 10 -262144
-1 -1 0 1;
#X obj 188 189 tgl 30 0 snarebutton13 empty empty 17 7 0 10 -262144
-1 -1 0 1;
#X obj 228 189 tgl 30 0 snarebutton14 empty empty 17 7 0 10 -262144
-1 -1 0 1;
#X obj 268 189 tgl 30 0 snarebutton15 empty empty 17 7 0 10 -262144
-1 -1 1 1;
#X obj 308 189 tgl 30 0 snarebutton16 empty empty 17 7 0 10 -262144
-1 -1 0 1;
#X obj 352 49 metronome;
#N canvas 751 42 391 342 samples 0;
#N canvas 0 0 450 300 (subpatch) 0;
#X array kick 5335 float 4;
#X coords 0 1 5334 -1 200 140 1;
#X restore 18 24 graph;
#N canvas 0 0 450 300 (subpatch) 0;
#X array snare 8003 float 4;
#X coords 0 1 8002 -1 200 140 1;
#X restore 18 185 graph;
#X obj 231 34 openpanel;
#X msg 231 60 read -resize \$1 kick;
#X obj 231 17 bng 15 250 50 0 empty empty empty 17 7 0 10 -262144 -1
-1;
#X obj 231 86 soundfiler;
#X obj 231 110 f;
#X obj 231 204 openpanel;
#X obj 231 187 bng 15 250 50 0 empty empty empty 17 7 0 10 -262144
-1 -1;
#X obj 231 256 soundfiler;
#X obj 231 280 f;
#X msg 231 230 read -resize \$1 snare;
#X obj 257 125 inlet;
#X msg 257 175 \; kick normalize 1;
#X msg 262 146 \; snare normalize 1;
#X connect 2 0 3 0;
#X connect 3 0 5 0;
#X connect 4 0 2 0;
#X connect 5 0 6 1;
#X connect 7 0 11 0;
#X connect 8 0 7 0;
#X connect 9 0 10 1;
#X connect 11 0 9 0;
#X connect 12 0 14 0;
#X connect 12 0 13 0;
#X restore 349 172 pd samples;
#N canvas 615 2 542 497 clock 1;
#X obj 20 9 inlet;
#X text 72 10 16 beats \, so N mod 16;
#X obj 20 30 f;
#X obj 49 30 + 1;
#X obj 77 30 mod 16;
#X floatatom 20 52 5 0 0 0 - - -;
#X obj 20 84 route 0 1 2 3 4 5 6 7 8 9 10 11 12 13 14 15;
#X obj 20 125 bang;
#X obj 20 150 bng 15 250 50 0 empty empty empty 17 7 0 10 -262144 -1
-1;
#X obj 50 125 bang;
#X obj 50 150 bng 15 250 50 0 empty empty empty 17 7 0 10 -262144 -1
-1;
#X obj 80 125 bang;
#X obj 80 150 bng 15 250 50 0 empty empty empty 17 7 0 10 -262144 -1
-1;
#X obj 110 125 bang;
#X obj 110 150 bng 15 250 50 0 empty empty empty 17 7 0 10 -262144
-1 -1;
#X obj 140 125 bang;
#X obj 140 150 bng 15 250 50 0 empty empty empty 17 7 0 10 -262144
-1 -1;
#X obj 170 125 bang;
#X obj 170 150 bng 15 250 50 0 empty empty empty 17 7 0 10 -262144
-1 -1;
#X obj 200 125 bang;
#X obj 200 150 bng 15 250 50 0 empty empty empty 17 7 0 10 -262144
-1 -1;
#X obj 230 125 bang;
#X obj 230 150 bng 15 250 50 0 empty empty empty 17 7 0 10 -262144
-1 -1;
#X obj 260 125 bang;
#X obj 260 150 bng 15 250 50 0 empty empty empty 17 7 0 10 -262144
-1 -1;
#X obj 290 125 bang;
#X obj 290 150 bng 15 250 50 0 empty empty empty 17 7 0 10 -262144
-1 -1;
#X obj 320 125 bang;
#X obj 320 150 bng 15 250 50 0 empty empty empty 17 7 0 10 -262144
-1 -1;
#X obj 350 125 bang;
#X obj 350 150 bng 15 250 50 0 empty empty empty 17 7 0 10 -262144
-1 -1;
#X obj 380 125 bang;
#X obj 380 150 bng 15 250 50 0 empty empty empty 17 7 0 10 -262144
-1 -1;
#X obj 410 125 bang;
#X obj 410 150 bng 15 250 50 0 empty empty empty 17 7 0 10 -262144
-1 -1;
#X obj 440 125 bang;
#X obj 440 150 bng 15 250 50 0 empty empty empty 17 7 0 10 -262144
-1 -1;
#X obj 470 125 bang;
#X obj 470 150 bng 15 250 50 0 empty empty empty 17 7 0 10 -262144
-1 -1;
#X obj 20 470 s \$0-b1;
#X obj 50 449 s \$0-b2;
#X obj 80 429 s \$0-b3;
#X obj 110 409 s \$0-b4;
#X obj 140 388 s \$0-b5;
#X obj 170 367 s \$0-b6;
#X obj 200 347 s \$0-b7;
#X obj 230 327 s \$0-b8;
#X obj 260 307 s \$0-b9;
#X obj 290 286 s \$0-b10;
#X obj 320 266 s \$0-b11;
#X obj 350 246 s \$0-b12;
#X obj 380 226 s \$0-b13;
#X obj 410 207 s \$0-b14;
#X obj 440 188 s \$0-b15;
#X obj 470 168 s \$0-b16;
#X connect 0 0 2 0;
#X connect 2 0 3 0;
#X connect 2 0 5 0;
#X connect 3 0 4 0;
#X connect 4 0 2 1;
#X connect 5 0 6 0;
#X connect 6 0 7 0;
#X connect 6 1 9 0;
#X connect 6 2 11 0;
#X connect 6 3 13 0;
#X connect 6 4 15 0;
#X connect 6 5 17 0;
#X connect 6 6 19 0;
#X connect 6 7 21 0;
#X connect 6 8 23 0;
#X connect 6 9 25 0;
#X connect 6 10 27 0;
#X connect 6 11 29 0;
#X connect 6 12 31 0;
#X connect 6 13 33 0;
#X connect 6 14 35 0;
#X connect 6 15 37 0;
#X connect 7 0 8 0;
#X connect 8 0 39 0;
#X connect 9 0 10 0;
#X connect 10 0 40 0;
#X connect 11 0 12 0;
#X connect 12 0 41 0;
#X connect 13 0 14 0;
#X connect 14 0 42 0;
#X connect 15 0 16 0;
#X connect 16 0 43 0;
#X connect 17 0 18 0;
#X connect 18 0 44 0;
#X connect 19 0 20 0;
#X connect 20 0 45 0;
#X connect 21 0 22 0;
#X connect 22 0 46 0;
#X connect 23 0 24 0;
#X connect 24 0 47 0;
#X connect 25 0 26 0;
#X connect 26 0 48 0;
#X connect 27 0 28 0;
#X connect 28 0 49 0;
#X connect 29 0 30 0;
#X connect 30 0 50 0;
#X connect 31 0 32 0;
#X connect 32 0 51 0;
#X connect 33 0 34 0;
#X connect 34 0 52 0;
#X connect 35 0 36 0;
#X connect 36 0 53 0;
#X connect 37 0 38 0;
#X connect 38 0 54 0;
#X restore 352 125 pd clock;
#N canvas 83 75 1026 544 sequence 0;
#X obj 23 25 r kickbutton1;
#X obj 8 44 f;
#X obj 8 6 r \$0-b1;
#X floatatom 8 63 5 0 0 0 - - -;
#X obj 8 82 route 1;
#X obj 8 106 s \$0-kickplay;
#X obj 108 44 f;
#X floatatom 108 63 5 0 0 0 - - -;
#X obj 108 82 route 1;
#X obj 108 106 s \$0-kickplay;
#X obj 208 44 f;
#X floatatom 208 63 5 0 0 0 - - -;
#X obj 208 82 route 1;
#X obj 208 106 s \$0-kickplay;
#X obj 308 44 f;
#X floatatom 308 63 5 0 0 0 - - -;
#X obj 308 82 route 1;
#X obj 308 106 s \$0-kickplay;
#X obj 408 44 f;
#X floatatom 408 63 5 0 0 0 - - -;
#X obj 408 82 route 1;
#X obj 408 106 s \$0-kickplay;
#X obj 508 44 f;
#X floatatom 508 63 5 0 0 0 - - -;
#X obj 508 82 route 1;
#X obj 508 106 s \$0-kickplay;
#X obj 608 44 f;
#X floatatom 608 63 5 0 0 0 - - -;
#X obj 608 82 route 1;
#X obj 608 106 s \$0-kickplay;
#X obj 708 44 f;
#X floatatom 708 63 5 0 0 0 - - -;
#X obj 708 82 route 1;
#X obj 708 106 s \$0-kickplay;
#X obj 8 164 f;
#X floatatom 8 183 5 0 0 0 - - -;
#X obj 8 202 route 1;
#X obj 8 226 s \$0-kickplay;
#X obj 108 164 f;
#X floatatom 108 183 5 0 0 0 - - -;
#X obj 108 202 route 1;
#X obj 108 226 s \$0-kickplay;
#X obj 208 164 f;
#X floatatom 208 183 5 0 0 0 - - -;
#X obj 208 202 route 1;
#X obj 208 226 s \$0-kickplay;
#X obj 308 164 f;
#X floatatom 308 183 5 0 0 0 - - -;
#X obj 308 202 route 1;
#X obj 308 226 s \$0-kickplay;
#X obj 408 164 f;
#X floatatom 408 183 5 0 0 0 - - -;
#X obj 408 202 route 1;
#X obj 408 226 s \$0-kickplay;
#X obj 508 164 f;
#X floatatom 508 183 5 0 0 0 - - -;
#X obj 508 202 route 1;
#X obj 508 226 s \$0-kickplay;
#X obj 608 164 f;
#X floatatom 608 183 5 0 0 0 - - -;
#X obj 608 202 route 1;
#X obj 608 226 s \$0-kickplay;
#X obj 708 164 f;
#X floatatom 708 183 5 0 0 0 - - -;
#X obj 708 202 route 1;
#X obj 708 226 s \$0-kickplay;
#X obj 108 6 r \$0-b2;
#X obj 208 6 r \$0-b3;
#X obj 308 6 r \$0-b4;
#X obj 408 6 r \$0-b5;
#X obj 508 6 r \$0-b6;
#X obj 608 6 r \$0-b7;
#X obj 708 6 r \$0-b8;
#X obj 8 126 r \$0-b9;
#X obj 108 126 r \$0-b10;
#X obj 208 126 r \$0-b11;
#X obj 308 126 r \$0-b12;
#X obj 408 126 r \$0-b13;
#X obj 508 126 r \$0-b14;
#X obj 608 126 r \$0-b15;
#X obj 708 126 r \$0-b16;
#X obj 123 25 r kickbutton2;
#X obj 223 25 r kickbutton3;
#X obj 323 25 r kickbutton4;
#X obj 423 25 r kickbutton5;
#X obj 523 25 r kickbutton6;
#X obj 623 25 r kickbutton7;
#X obj 723 25 r kickbutton8;
#X obj 23 145 r kickbutton9;
#X obj 123 145 r kickbutton10;
#X obj 223 145 r kickbutton11;
#X obj 323 145 r kickbutton12;
#X obj 423 144 r kickbutton13;
#X obj 623 145 r kickbutton15;
#X obj 523 145 r kickbutton14;
#X obj 723 145 r kickbutton16;
#X obj 869 45 r \$0-kickplay;
#X obj 869 88 tabplay~ kick;
#X obj 869 127 throw~ L;
#X obj 929 127 throw~ R;
#X obj 889 70 bng 15 250 50 0 empty empty empty 17 7 0 10 -262144 -1
-1;
#X obj 8 304 f;
#X obj 8 266 r \$0-b1;
#X floatatom 8 323 5 0 0 0 - - -;
#X obj 8 342 route 1;
#X obj 108 304 f;
#X floatatom 108 323 5 0 0 0 - - -;
#X obj 108 342 route 1;
#X obj 208 304 f;
#X floatatom 208 323 5 0 0 0 - - -;
#X obj 208 342 route 1;
#X obj 308 304 f;
#X floatatom 308 323 5 0 0 0 - - -;
#X obj 308 342 route 1;
#X obj 408 304 f;
#X floatatom 408 323 5 0 0 0 - - -;
#X obj 408 342 route 1;
#X obj 508 304 f;
#X floatatom 508 323 5 0 0 0 - - -;
#X obj 508 342 route 1;
#X obj 608 304 f;
#X floatatom 608 323 5 0 0 0 - - -;
#X obj 608 342 route 1;
#X obj 708 304 f;
#X floatatom 708 323 5 0 0 0 - - -;
#X obj 708 342 route 1;
#X obj 8 424 f;
#X floatatom 8 443 5 0 0 0 - - -;
#X obj 8 462 route 1;
#X obj 108 424 f;
#X floatatom 108 443 5 0 0 0 - - -;
#X obj 108 462 route 1;
#X obj 208 424 f;
#X floatatom 208 443 5 0 0 0 - - -;
#X obj 208 462 route 1;
#X obj 308 424 f;
#X floatatom 308 443 5 0 0 0 - - -;
#X obj 308 462 route 1;
#X obj 408 424 f;
#X floatatom 408 443 5 0 0 0 - - -;
#X obj 408 462 route 1;
#X obj 508 424 f;
#X floatatom 508 443 5 0 0 0 - - -;
#X obj 508 462 route 1;
#X obj 608 424 f;
#X floatatom 608 443 5 0 0 0 - - -;
#X obj 608 462 route 1;
#X obj 708 424 f;
#X floatatom 708 443 5 0 0 0 - - -;
#X obj 708 462 route 1;
#X obj 108 266 r \$0-b2;
#X obj 208 266 r \$0-b3;
#X obj 308 266 r \$0-b4;
#X obj 408 266 r \$0-b5;
#X obj 508 266 r \$0-b6;
#X obj 608 266 r \$0-b7;
#X obj 708 266 r \$0-b8;
#X obj 8 386 r \$0-b9;
#X obj 108 386 r \$0-b10;
#X obj 208 386 r \$0-b11;
#X obj 308 386 r \$0-b12;
#X obj 408 386 r \$0-b13;
#X obj 508 386 r \$0-b14;
#X obj 608 386 r \$0-b15;
#X obj 708 386 r \$0-b16;
#X obj 23 285 r snarebutton1;
#X obj 221 284 r snarebutton3;
#X obj 123 285 r snarebutton2;
#X obj 323 285 r snarebutton4;
#X obj 423 285 r snarebutton5;
#X obj 523 285 r snarebutton6;
#X obj 623 285 r snarebutton7;
#X obj 723 285 r snarebutton8;
#X obj 23 405 r snarebutton9;
#X obj 123 405 r snarebutton10;
#X obj 223 405 r snarebutton11;
#X obj 323 405 r snarebutton12;
#X obj 423 404 r snarebutton13;
#X obj 523 405 r snarebutton14;
#X obj 623 405 r snarebutton15;
#X obj 723 405 r snarebutton16;
#X obj 8 364 s \$0-snareplay;
#X obj 108 366 s \$0-snareplay;
#X obj 208 366 s \$0-snareplay;
#X obj 308 366 s \$0-snareplay;
#X obj 408 366 s \$0-snareplay;
#X obj 508 366 s \$0-snareplay;
#X obj 608 366 s \$0-snareplay;
#X obj 708 366 s \$0-snareplay;
#X obj 9 485 s \$0-snareplay;
#X obj 108 486 s \$0-snareplay;
#X obj 210 487 s \$0-snareplay;
#X obj 311 485 s \$0-snareplay;
#X obj 408 486 s \$0-snareplay;
#X obj 508 486 s \$0-snareplay;
#X obj 608 486 s \$0-snareplay;
#X obj 708 486 s \$0-snareplay;
#X obj 875 167 r \$0-snareplay;
#X obj 875 209 tabplay~ snare;
#X obj 873 242 throw~ L;
#X obj 936 242 throw~ R;
#X obj 890 190 tgl 15 0 empty empty empty 17 7 0 10 -262144 -1 -1 1
1;
#X connect 0 0 1 1;
#X connect 1 0 3 0;
#X connect 2 0 1 0;
#X connect 3 0 4 0;
#X connect 4 0 5 0;
#X connect 6 0 7 0;
#X connect 7 0 8 0;
#X connect 8 0 9 0;
#X connect 10 0 11 0;
#X connect 11 0 12 0;
#X connect 12 0 13 0;
#X connect 14 0 15 0;
#X connect 15 0 16 0;
#X connect 16 0 17 0;
#X connect 18 0 19 0;
#X connect 19 0 20 0;
#X connect 20 0 21 0;
#X connect 22 0 23 0;
#X connect 23 0 24 0;
#X connect 24 0 25 0;
#X connect 26 0 27 0;
#X connect 27 0 28 0;
#X connect 28 0 29 0;
#X connect 30 0 31 0;
#X connect 31 0 32 0;
#X connect 32 0 33 0;
#X connect 34 0 35 0;
#X connect 35 0 36 0;
#X connect 36 0 37 0;
#X connect 38 0 39 0;
#X connect 39 0 40 0;
#X connect 40 0 41 0;
#X connect 42 0 43 0;
#X connect 43 0 44 0;
#X connect 44 0 45 0;
#X connect 46 0 47 0;
#X connect 47 0 48 0;
#X connect 48 0 49 0;
#X connect 50 0 51 0;
#X connect 51 0 52 0;
#X connect 52 0 53 0;
#X connect 54 0 55 0;
#X connect 55 0 56 0;
#X connect 56 0 57 0;
#X connect 58 0 59 0;
#X connect 59 0 60 0;
#X connect 60 0 61 0;
#X connect 62 0 63 0;
#X connect 63 0 64 0;
#X connect 64 0 65 0;
#X connect 66 0 6 0;
#X connect 67 0 10 0;
#X connect 68 0 14 0;
#X connect 69 0 18 0;
#X connect 70 0 22 0;
#X connect 71 0 26 0;
#X connect 72 0 30 0;
#X connect 73 0 34 0;
#X connect 74 0 38 0;
#X connect 75 0 42 0;
#X connect 76 0 46 0;
#X connect 77 0 50 0;
#X connect 78 0 54 0;
#X connect 79 0 58 0;
#X connect 80 0 62 0;
#X connect 81 0 6 1;
#X connect 82 0 10 1;
#X connect 83 0 14 1;
#X connect 84 0 18 1;
#X connect 85 0 22 1;
#X connect 86 0 26 1;
#X connect 87 0 30 1;
#X connect 88 0 34 1;
#X connect 89 0 38 1;
#X connect 90 0 42 1;
#X connect 91 0 46 1;
#X connect 92 0 50 1;
#X connect 93 0 58 1;
#X connect 94 0 54 1;
#X connect 95 0 62 1;
#X connect 96 0 97 0;
#X connect 96 0 100 0;
#X connect 97 0 98 0;
#X connect 97 0 99 0;
#X connect 101 0 103 0;
#X connect 102 0 101 0;
#X connect 103 0 104 0;
#X connect 104 0 181 0;
#X connect 105 0 106 0;
#X connect 106 0 107 0;
#X connect 107 0 182 0;
#X connect 108 0 109 0;
#X connect 109 0 110 0;
#X connect 110 0 183 0;
#X connect 111 0 112 0;
#X connect 112 0 113 0;
#X connect 113 0 184 0;
#X connect 114 0 115 0;
#X connect 115 0 116 0;
#X connect 116 0 185 0;
#X connect 117 0 118 0;
#X connect 118 0 119 0;
#X connect 119 0 186 0;
#X connect 120 0 121 0;
#X connect 121 0 122 0;
#X connect 122 0 187 0;
#X connect 123 0 124 0;
#X connect 124 0 125 0;
#X connect 125 0 188 0;
#X connect 126 0 127 0;
#X connect 127 0 128 0;
#X connect 128 0 189 0;
#X connect 129 0 130 0;
#X connect 130 0 131 0;
#X connect 131 0 190 0;
#X connect 132 0 133 0;
#X connect 133 0 134 0;
#X connect 134 0 191 0;
#X connect 135 0 136 0;
#X connect 136 0 137 0;
#X connect 137 0 192 0;
#X connect 138 0 139 0;
#X connect 139 0 140 0;
#X connect 140 0 193 0;
#X connect 141 0 142 0;
#X connect 142 0 143 0;
#X connect 143 0 194 0;
#X connect 144 0 145 0;
#X connect 145 0 146 0;
#X connect 146 0 195 0;
#X connect 147 0 148 0;
#X connect 148 0 149 0;
#X connect 149 0 196 0;
#X connect 150 0 105 0;
#X connect 151 0 108 0;
#X connect 152 0 111 0;
#X connect 153 0 114 0;
#X connect 154 0 117 0;
#X connect 155 0 120 0;
#X connect 156 0 123 0;
#X connect 157 0 126 0;
#X connect 158 0 129 0;
#X connect 159 0 132 0;
#X connect 160 0 135 0;
#X connect 161 0 138 0;
#X connect 162 0 141 0;
#X connect 163 0 144 0;
#X connect 164 0 147 0;
#X connect 165 0 101 1;
#X connect 166 0 108 1;
#X connect 167 0 105 1;
#X connect 168 0 111 1;
#X connect 169 0 114 1;
#X connect 170 0 117 1;
#X connect 171 0 120 1;
#X connect 172 0 123 1;
#X connect 173 0 126 1;
#X connect 174 0 129 1;
#X connect 175 0 132 1;
#X connect 176 0 135 1;
#X connect 177 0 138 1;
#X connect 178 0 141 1;
#X connect 179 0 144 1;
#X connect 180 0 147 1;
#X connect 197 0 198 0;
#X connect 197 0 201 0;
#X connect 198 0 199 0;
#X connect 198 0 200 0;
#X restore 351 199 pd sequence;
#X obj 428 81 monitor;
#X obj 429 54 catch~ L;
#X obj 494 54 catch~ R;
#X connect 32 0 34 0;
#X connect 37 0 36 0;
#X connect 38 0 36 1;
