#N canvas 1074 108 450 300 10;
#X obj 97 20 hsl 128 15 0 127 0 0 empty empty empty -2 -8 0 10 -262144
-1 -1 1000 1;
#X obj 94 65 mtof~;
#X obj 100 153 +~;
#X obj 149 55 nbx 5 14 -1e+037 1e+037 0 0 empty empty empty 0 -8 0
10 -262144 -1 -1 59 256;
#X obj 148 83 osc~;
#X obj 146 122 *~;
#X obj 190 89 nbx 5 14 -1e+037 1e+037 0 0 empty empty empty 0 -8 0
10 -262144 -1 -1 0 256;
#X obj 100 184 osc~;
#X obj 103 269 dac~;
#X obj 180 266 tabwrite~ fm;
#X obj 190 241 metro 100;
#X obj 253 226 tgl 15 0 empty empty empty 17 7 0 10 -262144 -1 -1 0
1;
#X obj 101 238 *~ 0.2;
#X obj 168 180 vsl 15 60 0 1 0 0 empty empty amp 0 -9 0 10 -262144
-1 -1 0 1;
#X msg 281 88 \; pd dsp 0;
#X msg 281 137 \; pd dsp 1;
#N canvas 0 0 450 300 (subpatch) 0;
#X array fm 100 float 3;
#A 0 0 0 0 0 0 0 0 0 0 0 0 0 0 0 0 0 0 0 0 0 0 0 0 0 0 0 0 0 0 0 0
0 0 0 0 0 0 0 0 0 0 0 0 0 0 0 0 0 0 0 0 0 0 0 0 0 0 0 0 0 0 0 0 0 0
0 0 0 0 0 0 0 0 0 0 0 0 0 0 0 0 0 0 0 0 0 0 0 0 0 0 0 0 0 0 0 0 0 0
0;
#X coords 0 1 99 -1 100 100 1;
#X restore 289 184 graph;
#X connect 0 0 1 0;
#X connect 1 0 2 0;
#X connect 2 0 7 0;
#X connect 3 0 4 0;
#X connect 4 0 5 0;
#X connect 5 0 2 1;
#X connect 6 0 5 1;
#X connect 7 0 12 0;
#X connect 10 0 9 0;
#X connect 11 0 10 0;
#X connect 12 0 8 0;
#X connect 12 0 8 1;
#X connect 12 0 9 0;
#X connect 13 0 12 1;
