#N canvas 16 282 306 321 10;
#N canvas 90 289 450 300 vowels 0;
#X obj 20 93 select 0 1 2 3 4 5 6 7 8;
#X obj 22 207 pack 0 0;
#X obj 20 20 cnv 15 150 59 empty empty empty 20 12 0 14 -228856 -66577
0;
#X obj 27 37 hradio 15 1 0 9 empty empty empty 0 -8 0 10 -262144 -1
-1 0;
#X msg 20 131 320 800;
#X obj 22 230 outlet freqs;
#X msg 74 133 500 1000;
#X msg 133 133 700 1150;
#X msg 196 133 1000 1400;
#X msg 21 151 500 1500;
#X msg 84 152 320 1650;
#X msg 140 152 700 1800;
#X msg 200 152 500 2300;
#X msg 22 172 320 2500;
#X text 31 22 u;
#X text 45 22 o;
#X text 73 20 a;
#X text 90 48 ø;
#X text 57 49 Q;
#X text 104 20 y;
#X text 118 50 E;
#X text 132 20 e;
#X text 150 50 i;
#X connect 0 0 4 0;
#X connect 0 1 6 0;
#X connect 0 2 7 0;
#X connect 0 3 8 0;
#X connect 0 4 9 0;
#X connect 0 5 10 0;
#X connect 0 6 11 0;
#X connect 0 7 12 0;
#X connect 0 8 13 0;
#X connect 1 0 5 0;
#X connect 3 0 0 0;
#X connect 4 0 1 0;
#X connect 6 0 1 0;
#X connect 7 0 1 0;
#X connect 9 0 1 0;
#X connect 10 0 1 0;
#X connect 11 0 1 0;
#X connect 12 0 1 0;
#X connect 13 0 1 0;
#X coords 0 -1 1 1 150 60 2 20 20;
#X restore 25 19 pd vowels;
#X obj 25 96 unpack 0 0;
#X obj 25 186 osc~;
#X obj 27 254 output~;
#X obj 82 186 osc~;
#X obj 140 147 hsl 128 15 0 5000 0 0 empty empty ramptime -2 -8 0 10
-262144 -1 -1 8900 1;
#X obj 82 122 t f b;
#X obj 25 122 t f b;
#X obj 82 162 line;
#X obj 25 162 line;
#X obj 224 23 tgl 15 0 empty empty empty 17 7 0 10 -262144 -1 -1 1
1;
#X msg 217 48 \; pd dsp \$1;
#X connect 0 0 1 0;
#X connect 1 0 7 0;
#X connect 1 1 6 0;
#X connect 2 0 3 0;
#X connect 4 0 3 1;
#X connect 5 0 8 1;
#X connect 5 0 9 1;
#X connect 6 0 8 0;
#X connect 6 1 5 0;
#X connect 7 0 9 0;
#X connect 7 1 5 0;
#X connect 8 0 4 0;
#X connect 9 0 2 0;
#X connect 10 0 11 0;
