#N canvas 984 272 601 468 10;
#X obj 30 31 inlet;
#X obj 36 413 outlet;
#X text 237 64 Convert MIDI to Note name;
#X text 236 77 Calculates Octave;
#X text 72 30 Input: midi value [0..127];
#X floatatom 30 60 5 0 127 0 - - -;
#X obj 44 94 / 12;
#X obj 93 94 mod 12;
#X floatatom 95 162 5 0 11 0 - - -;
#X floatatom 44 163 5 0 0 0 - - -;
#X text 237 92 Then uses [select] to choose the note name;
#X text 238 117 f1: Note name \, f2: octave;
#X text 239 103 Packs it into a two item list [f1 \, f2];
#X text 238 132 I will be using a [-2..8] octave numeric;
#X text 10 157 oct;
#X obj 44 130 div;
#X obj 134 203 select 0 1 2 3 4 5 6 7 8 9 10 11;
#X text 138 160 note int value;
#X msg 75 237 C;
#X msg 103 239 C#;
#X msg 131 240 D;
#X msg 159 242 D#;
#X msg 190 243 E;
#X msg 218 245 F;
#X msg 246 246 F#;
#X msg 274 248 G;
#X msg 305 249 G#;
#X msg 333 251 A;
#X msg 361 252 A#;
#X msg 389 254 B;
#X obj 112 328 pack symbol;
#X obj 37 338 - 2;
#X text 3 292 offset;
#X obj 114 413 outlet;
#X connect 0 0 5 0;
#X connect 5 0 6 0;
#X connect 5 0 7 0;
#X connect 6 0 15 0;
#X connect 7 0 8 0;
#X connect 8 0 16 0;
#X connect 9 0 31 0;
#X connect 15 0 9 0;
#X connect 16 0 18 0;
#X connect 16 1 19 0;
#X connect 16 2 20 0;
#X connect 16 3 21 0;
#X connect 16 4 22 0;
#X connect 16 5 23 0;
#X connect 16 6 24 0;
#X connect 16 7 25 0;
#X connect 16 8 26 0;
#X connect 16 9 27 0;
#X connect 16 10 28 0;
#X connect 16 11 29 0;
#X connect 18 0 30 0;
#X connect 19 0 30 0;
#X connect 20 0 30 0;
#X connect 21 0 30 0;
#X connect 22 0 30 0;
#X connect 23 0 30 0;
#X connect 24 0 30 0;
#X connect 25 0 30 0;
#X connect 26 0 30 0;
#X connect 27 0 30 0;
#X connect 28 0 30 0;
#X connect 29 0 30 0;
#X connect 30 0 33 0;
#X connect 31 0 1 0;
