#N canvas 623 71 438 495 10;
#X obj 22 111 oscillator;
#X obj 22 392 filter;
#X obj 85 111 oscillator;
#X obj 21 205 volume;
#X msg 86 194 0.5;
#X obj 189 259 lfo;
#X obj 128 377 +~;
#X obj 22 42 mtof;
#X obj 85 89 +;
#X obj 80 18 r detune;
#X obj 22 22 r midi;
#X obj 171 28 hsl 128 15 0 127 0 0 midi empty frequency -2 -8 0 10
-262144 -1 -1 3300 1;
#X obj 171 98 hsl 128 15 0 100 0 0 detune empty detune 20 -8 0 10 -262144
-1 -1 6350 1;
#X obj 143 330 r midi;
#X obj 143 353 mtof;
#X obj 22 72 f;
#X obj 83 48 t b f;
#X obj 281 120 catch~ l;
#X obj 337 121 catch~ r;
#X obj 281 254 monitor;
#X obj 21 468 throw~ l;
#X obj 81 468 throw~ r;
#X obj 280 143 reverb;
#X obj 21 272 chorus;
#X obj 189 334 +~ 1;
#X obj 190 313 *~ 0.5;
#X msg 74 366 0.4;
#X obj 189 361 *~ 300;
#X obj 307 81 line;
#X msg 307 56 50;
#X msg 338 59 1000;
#X obj 311 29 t b b;
#X obj 311 5 bng 15 250 50 0 empty empty empty 17 7 0 10 -262144 -1
-1;
#X connect 0 0 3 0;
#X connect 1 0 20 0;
#X connect 1 0 21 0;
#X connect 2 0 3 0;
#X connect 3 0 23 0;
#X connect 4 0 3 1;
#X connect 5 0 25 0;
#X connect 6 0 1 1;
#X connect 7 0 15 0;
#X connect 8 0 2 0;
#X connect 9 0 16 0;
#X connect 10 0 7 0;
#X connect 13 0 14 0;
#X connect 14 0 6 1;
#X connect 15 0 0 0;
#X connect 15 0 8 0;
#X connect 16 0 15 0;
#X connect 16 1 8 1;
#X connect 17 0 22 0;
#X connect 18 0 22 1;
#X connect 22 0 19 0;
#X connect 22 1 19 1;
#X connect 23 0 1 0;
#X connect 24 0 27 0;
#X connect 25 0 24 0;
#X connect 26 0 1 2;
#X connect 27 0 6 0;
#X connect 28 0 12 0;
#X connect 29 0 28 0;
#X connect 30 0 28 1;
#X connect 31 0 29 0;
#X connect 31 1 30 0;
#X connect 32 0 31 0;
