#N canvas 781 412 387 374 10;
#X obj 12 107 vline~;
#X obj 11 260 writesf~ 2;
#X msg 99 174 start;
#X msg 144 198 stop;
#X obj 161 94 bng 40 250 50 0 empty empty empty 17 7 0 10 -262144 -1
-1;
#X obj 143 175 del 5000;
#X obj 255 91 tgl 15 0 empty empty empty 17 7 0 10 -262144 -1 -1 1
1;
#X msg 255 115 \; pd dsp \$1;
#X msg 59 73 10000 5000;
#X obj 11 193 phasor~ 100;
#X msg 68 168 0;
#X msg 99 243 open saw100-10khz.wav;
#X msg 15 73 100 1;
#X connect 0 0 9 0;
#X connect 2 0 1 0;
#X connect 3 0 1 0;
#X connect 3 0 12 0;
#X connect 4 0 8 0;
#X connect 4 0 2 0;
#X connect 4 0 5 0;
#X connect 4 0 10 0;
#X connect 5 0 3 0;
#X connect 6 0 7 0;
#X connect 8 0 0 0;
#X connect 9 0 1 0;
#X connect 9 0 1 1;
#X connect 10 0 9 1;
#X connect 11 0 1 0;
#X connect 12 0 0 0;
