#N canvas 112 162 593 581 8;
#X obj 484 315 ctlin;
#X floatatom 449 367 5 0 0 0 - - -;
#X floatatom 489 367 5 0 0 0 - - -;
#X floatatom 529 363 5 0 0 0 - - -;
#X obj 47 82 hsl 128 15 0 127 0 0 empty empty empty -2 -8 0 10 -262144
-1 -1 3100 1;
#X obj 40 123 mtof;
#X obj 76 281 osc~;
#X obj 80 452 *~;
#X obj 394 132 osc~;
#X obj 392 84 knob 32 32 0 10 0 0 empty empty empty 0 -8 0 8 -262144
-1 -1 1142 1;
#X obj 460 138 sig~ 1;
#X obj 459 175 send~ sig1;
#X obj 395 208 send~ sig2;
#X obj 109 107 tgl 15 0 empty empty empty 17 7 0 10 -262144 -1 -1 1
1;
#X obj 109 132 select 0 1;
#X obj 109 159 bng 15 250 50 0 empty empty empty 17 7 0 10 -262144
-1 -1;
#X obj 172 159 bng 15 250 50 0 empty empty empty 17 7 0 10 -262144
-1 -1;
#X msg 109 184 set sig1;
#X msg 172 184 set sig2;
#X obj 109 218 receive~ sig1;
#X obj 118 277 phasor~;
#X obj 118 312 cos~;
#X obj 118 339 +~ 1;
#X obj 174 344 r depth;
#X obj 115 403 *~;
#X obj 116 438 vd~ somename;
#X obj 159 496 dac~;
#X obj 273 279 vsl 15 128 0.01 1 0 0 empty empty empty 0 -9 0 10 -262144
-1 -1 5200 1;
#X obj 164 465 *~;
#X obj 80 516 delwrite~ somename;
#X msg 297 136 \; pd dsp 0;
#X msg 297 176 \; pd dsp 1;
#X obj 394 155 *~ 0.5;
#X obj 394 181 +~ 1;
#X obj 174 371 *~ 50;
#X obj 390 38 ctlin 14;
#X obj 303 220 ctlin 3;
#X floatatom 454 454 5 0 0 0 - - -;
#X obj 451 394 midi-scaler 0 1;
#X obj 392 61 midi-scaler 0 10;
#X obj 273 256 midi-scaler 0 1;
#X obj 251 445 pack 0 50;
#X obj 251 470 line~;
#X floatatom 225 103 5 0 0 0 - - -;
#X floatatom 258 103 5 0 0 0 - - -;
#X obj 232 58 notein;
#X floatatom 299 96 5 0 0 0 - - -;
#X obj 47 51 ctlin 2;
#X obj 358 390 knob 32 32 0 20 0 0 depth empty empty 0 -8 128 8 -262144
-1 -1 458 1;
#X obj 363 310 ctlin 15;
#X floatatom 216 372 5 0 0 0 - - -;
#X obj 352 351 midi-scaler 0 20;
#X connect 0 0 1 0;
#X connect 0 1 2 0;
#X connect 0 2 3 0;
#X connect 1 0 38 0;
#X connect 4 0 5 0;
#X connect 5 0 6 0;
#X connect 5 0 20 0;
#X connect 6 0 7 0;
#X connect 7 0 29 0;
#X connect 7 0 26 0;
#X connect 7 0 26 1;
#X connect 8 0 32 0;
#X connect 9 0 8 0;
#X connect 10 0 11 0;
#X connect 13 0 14 0;
#X connect 14 0 15 0;
#X connect 14 1 16 0;
#X connect 15 0 17 0;
#X connect 16 0 18 0;
#X connect 17 0 19 0;
#X connect 18 0 19 0;
#X connect 19 0 7 1;
#X connect 20 0 21 0;
#X connect 21 0 22 0;
#X connect 22 0 24 0;
#X connect 23 0 34 0;
#X connect 23 0 50 0;
#X connect 24 0 25 0;
#X connect 25 0 28 0;
#X connect 27 0 41 0;
#X connect 28 0 26 0;
#X connect 28 0 26 1;
#X connect 32 0 33 0;
#X connect 33 0 12 0;
#X connect 34 0 24 1;
#X connect 35 0 39 0;
#X connect 36 0 40 0;
#X connect 38 0 37 0;
#X connect 39 0 9 0;
#X connect 40 0 27 0;
#X connect 41 0 42 0;
#X connect 42 0 28 1;
#X connect 44 0 40 0;
#X connect 45 0 43 0;
#X connect 45 0 4 0;
#X connect 45 1 44 0;
#X connect 45 2 46 0;
#X connect 47 0 4 0;
#X connect 49 0 51 0;
#X connect 51 0 48 0;
