#N canvas 101 380 450 300 10;
#X obj 19 3 tgl 15 0 empty empty empty 17 7 0 10 -262144 -1 -1 1 1
;
#X obj 17 38 cursor;
#X obj 17 78 route motion;
#X obj 18 123 route x y;
#X floatatom 5 169 5 0 0 0 - - -;
#X floatatom 56 165 5 0 0 0 - - -;
#X obj 369 269 dac~;
#X obj 370 220 *~ 0.2;
#X obj 420 160 vsl 15 50 0 1 0 0 empty empty empty 0 -9 0 10 -262144
-1 -1 4900 1;
#X obj 5 209 s freq;
#X obj 57 209 s filt;
#X obj 331 78 phasor~;
#X obj 387 78 phasor~;
#X obj 366 18 r freq;
#X obj 331 111 -~ 0.5;
#X obj 385 109 -~ 0.5;
#X obj 378 137 r filt;
#X obj 337 168 bp~ 20 3;
#X msg 180 92 \; pd dsp 0;
#X obj 130 177 grid grid1 100 0 1366 100 0 768 1 1 1 10 10 177 195
;
#X obj 103 102 r freq;
#X msg 102 135 set \$1;
#X obj 193 18 key;
#X floatatom 233 36 5 0 0 0 - - -;
#X obj 183 57 select 49 50;
#X msg 241 92 \; pd dsp 1;
#X obj 386 50 + 20;
#X connect 0 0 1 0;
#X connect 1 0 2 0;
#X connect 2 0 3 0;
#X connect 3 0 4 0;
#X connect 3 1 5 0;
#X connect 4 0 9 0;
#X connect 5 0 10 0;
#X connect 7 0 6 0;
#X connect 7 0 6 1;
#X connect 8 0 7 1;
#X connect 11 0 14 0;
#X connect 12 0 15 0;
#X connect 13 0 11 0;
#X connect 13 0 26 0;
#X connect 14 0 17 0;
#X connect 15 0 17 0;
#X connect 16 0 17 1;
#X connect 17 0 7 0;
#X connect 20 0 21 0;
#X connect 22 0 23 0;
#X connect 22 0 24 0;
#X connect 24 0 18 0;
#X connect 24 1 25 0;
#X connect 26 0 12 0;
