#N canvas 463 442 551 171 10;
#X obj 404 72 s \$0-pannerin;
#X obj 404 27 loadbang;
#X msg 404 47 0.5;
#X obj 17 25 hsl 60 30 0 1 0 0 \$0-panner \$0-pannerin panning 5 -8
0 10 -232576 -1 -1 2950 1;
#X text 16 40 L;
#X text 69 41 R;
#X obj 111 11 r \$0-panner;
#X obj 119 32 expr (1-$f1);
#X obj 206 11 inlet~ left;
#X obj 297 11 inlet~ right;
#X obj 206 136 outlet~ left;
#X obj 297 136 outlet~ right;
#X obj 206 113 *~;
#X text 8 127 The Panning tool;
#X obj 458 27 inlet control;
#X obj 221 92 vline~;
#X obj 221 49 r \$0-leftamp;
#X msg 221 71 \$1 50;
#X obj 313 92 vline~;
#X msg 313 71 \$1 50;
#X obj 298 113 *~;
#X obj 458 55 clip 0 1;
#X text 8 136 Multiplies L/R signals by the;
#X text 8 146 main slider control;
#X obj 82 35 bng 10 250 50 0 \$0-bangerman \$0-none empty 17 7 0 10
-262144 -258113 -1;
#X obj 386 7 r \$0-bangerman;
#X obj 313 49 r \$0-rightamp;
#X obj 111 76 s \$0-rightamp;
#X floatatom 264 70 5 0 0 0 - - -;
#X floatatom 354 71 5 0 0 0 - - -;
#X obj 119 54 s \$0-leftamp;
#X connect 1 0 2 0;
#X connect 2 0 0 0;
#X connect 6 0 7 0;
#X connect 6 0 27 0;
#X connect 7 0 30 0;
#X connect 8 0 12 0;
#X connect 9 0 20 0;
#X connect 12 0 10 0;
#X connect 14 0 21 0;
#X connect 15 0 12 1;
#X connect 16 0 17 0;
#X connect 16 0 28 0;
#X connect 17 0 15 0;
#X connect 18 0 20 1;
#X connect 19 0 18 0;
#X connect 20 0 11 0;
#X connect 21 0 0 0;
#X connect 25 0 2 0;
#X connect 26 0 19 0;
#X connect 26 0 29 0;
#X coords 0 -1 1 1 85 50 2 10 10;
