#N canvas 46 253 803 496 10;
#X obj 6 3 tgl 15 0 empty empty empty 17 7 0 10 -262144 -1 -1 1 1;
#X msg 6 31 \; pd dsp \$1;
#X obj 118 74 cursor;
#X obj 118 56 tgl 15 0 empty empty empty 17 7 0 10 -262144 -1 -1 1
1;
#X obj 118 96 route motion;
#X obj 118 118 route x y;
#X floatatom 118 153 5 0 0 0 - - -;
#X floatatom 143 177 5 0 0 0 - - -;
#X obj 118 215 s mx;
#X obj 151 215 s my;
#X obj 255 35 hsl 128 15 0 127 0 0 empty empty empty -2 -8 0 10 -262144
-1 -1 6500 1;
#X obj 252 85 mtof;
#X obj 616 335 dac~;
#X obj 252 273 +~;
#X obj 707 170 vsl 15 100 0 1 0 0 empty empty empty 0 -9 0 10 -262144
-1 -1 1800 1;
#X obj 251 143 osc~;
#X obj 293 142 osc~;
#X obj 615 309 *~;
#X msg 657 273 \$1 50;
#X obj 656 292 line~;
#X obj 332 141 osc~;
#X obj 290 113 mtof;
#X obj 332 113 mtof;
#X floatatom 195 74 5 0 0 0 - - -;
#X obj 241 218 *~ 0.33;
#X obj 296 217 *~ 0.33;
#X obj 351 214 *~ 0.33;
#X obj 333 83 + 7;
#X obj 294 84 + 4;
#X obj 251 406 s~ signal;
#X obj 617 59 r~ signal;
#X obj 251 339 svf~;
#X obj 335 264 r mx;
#X obj 402 291 r my;
#X obj 398 325 / 900;
#X obj 638 117 vsl 15 40 0 20 0 0 empty empty empty 0 -9 0 10 -262144
-1 -1 400 1;
#X obj 614 228 *~;
#X obj 653 176 osc~;
#X connect 0 0 1 0;
#X connect 2 0 4 0;
#X connect 3 0 2 0;
#X connect 4 0 5 0;
#X connect 5 0 6 0;
#X connect 5 1 7 0;
#X connect 6 0 8 0;
#X connect 7 0 9 0;
#X connect 10 0 11 0;
#X connect 10 0 23 0;
#X connect 10 0 27 0;
#X connect 10 0 28 0;
#X connect 11 0 15 0;
#X connect 13 0 31 0;
#X connect 14 0 18 0;
#X connect 15 0 24 0;
#X connect 16 0 25 0;
#X connect 17 0 12 0;
#X connect 17 0 12 1;
#X connect 18 0 19 0;
#X connect 19 0 17 1;
#X connect 20 0 26 0;
#X connect 21 0 16 0;
#X connect 22 0 20 0;
#X connect 24 0 13 0;
#X connect 25 0 13 1;
#X connect 26 0 13 1;
#X connect 27 0 22 0;
#X connect 28 0 21 0;
#X connect 30 0 36 0;
#X connect 31 0 29 0;
#X connect 32 0 31 1;
#X connect 33 0 34 0;
#X connect 34 0 31 2;
#X connect 35 0 37 0;
#X connect 36 0 17 0;
#X connect 37 0 36 1;
