#N canvas 602 241 520 510 10;
#N canvas 0 0 450 300 (subpatch) 0;
#X array wave 8 float 1;
#A 0 0 0.5 0.75 0.5 0 -0.5 -0.75 0;
#X coords 0 1 7 -1 200 140 1;
#X restore 296 177 graph;
#X obj 95 152 hradio 15 1 0 8 empty empty empty 0 -8 0 10 -262144 -1
-1 7;
#X floatatom 117 187 5 0 0 0 - - -;
#X obj 60 41 hradio 15 1 0 8 empty empty empty 0 -8 0 10 -262144 -1
-1 1;
#X floatatom 20 141 5 0 0 0 - - -;
#X obj 20 187 tabwrite wave;
#X obj 60 69 select 0 1 2 3 4 5 6 7;
#X msg 60 96 -1;
#X msg 90 96 -0.75;
#X msg 130 96 -0.5;
#X msg 172 96 -0.25;
#X msg 212 96 0.25;
#X msg 247 96 0.5;
#X msg 277 96 0.75;
#X msg 307 96 1;
#X obj 41 360 monitor;
#X obj 41 329 tabread~ wave;
#X obj 42 283 phasor~;
#X obj 41 308 *~ 8;
#X obj 51 239 hsl 128 15 0 127 0 0 empty empty empty -2 -8 0 10 -262144
-1 -1 3100 1;
#X obj 42 262 mtof;
#X obj 20 39 bng 30 250 50 0 empty empty empty 17 7 0 10 -262144 -1
-1;
#X msg 20 80 0;
#X connect 1 0 2 0;
#X connect 1 0 5 1;
#X connect 3 0 6 0;
#X connect 4 0 5 0;
#X connect 6 0 7 0;
#X connect 6 1 8 0;
#X connect 6 2 9 0;
#X connect 6 3 10 0;
#X connect 6 4 11 0;
#X connect 6 5 12 0;
#X connect 6 6 13 0;
#X connect 6 7 14 0;
#X connect 7 0 4 0;
#X connect 8 0 4 0;
#X connect 9 0 4 0;
#X connect 10 0 4 0;
#X connect 11 0 4 0;
#X connect 12 0 4 0;
#X connect 13 0 4 0;
#X connect 14 0 4 0;
#X connect 16 0 15 0;
#X connect 16 0 15 1;
#X connect 17 0 18 0;
#X connect 18 0 16 0;
#X connect 19 0 20 0;
#X connect 20 0 17 0;
#X connect 21 0 22 0;
#X connect 22 0 4 0;
