#N canvas 37 58 1198 414 10;
#X obj 342 87 bpm;
#X floatatom 382 112 5 0 0 0 - - -;
#X floatatom 436 110 5 0 0 0 - - -;
#X floatatom 344 34 5 0 0 0 - - -;
#X obj 232 254 monitor;
#X obj 214 147 metro 100;
#X obj 255 105 tgl 15 0 empty empty empty 17 7 0 10 -262144 -1 -1 1
1;
#X obj 195 166 bng 15 250 50 0 empty empty empty 17 7 0 10 -262144
-1 -1;
#X obj 275 121 * 4;
#X obj 12 78 openpanel;
#X msg 12 114 read -resize \$1 snd;
#X obj 12 136 soundfiler;
#X obj 12 53 bng 15 250 50 0 empty empty empty 17 7 0 10 -262144 -1
-1;
#X floatatom 13 163 5 0 0 0 - - -;
#N canvas 0 0 450 300 (subpatch) 0;
#X array snd 67510 float 2;
#X coords 0 1 67510 -1 200 140 1;
#X restore 12 212 graph;
#X msg 990 275 \; snd normalize 1;
#X obj 232 179 tabplay~ snd;
#X obj 231 230 catch~ L;
#X obj 236 204 throw~ L;
#X obj 296 205 throw~ R;
#X obj 298 230 catch~ R;
#X obj 331 166 metro 100;
#X obj 331 148 tgl 15 0 empty empty empty 17 7 0 10 -262144 -1 -1 1
1;
#X obj 394 183 tabplay~ snare;
#X obj 331 187 bng 15 250 50 0 empty empty empty 17 7 0 10 -262144
-1 -1;
#X obj 342 11 bng 15 250 50 0 empty empty empty 17 7 0 10 -262144 -1
-1;
#N canvas 0 0 450 300 (subpatch) 0;
#X array snare 80726 float 2;
#X coords 0 1 80726 -1 200 140 1;
#X restore 391 252 graph;
#X obj 396 214 throw~ L;
#X obj 456 215 throw~ R;
#X obj 852 178 openpanel;
#X obj 852 236 soundfiler;
#X obj 852 153 bng 15 250 50 0 empty empty empty 17 7 0 10 -262144
-1 -1;
#X floatatom 852 260 5 0 0 0 - - -;
#X msg 852 214 read -resize \$1 snare;
#X msg 990 295 \; snare normalize 1;
#X obj 382 141 * 8;
#X obj 852 305 openpanel;
#X obj 852 344 soundfiler;
#X obj 852 287 bng 15 250 50 0 empty empty empty 17 7 0 10 -262144
-1 -1;
#X floatatom 852 364 5 0 0 0 - - -;
#N canvas 0 0 450 300 (subpatch) 0;
#X array hat 19585 float 2;
#X coords 0 1 19585 -1 200 140 1;
#X restore 631 252 graph;
#X msg 852 324 read -resize \$1 hat;
#X msg 990 327 \; hat normalize 1;
#X obj 521 166 metro 100;
#X obj 586 214 throw~ L;
#X obj 646 215 throw~ R;
#X obj 522 144 tgl 15 0 empty empty empty 17 7 0 10 -262144 -1 -1 1
1;
#X obj 584 183 tabplay~ hat;
#X obj 572 141 * 1;
#X obj 574 100 t b f;
#X floatatom 578 75 5 0 0 0 - - -;
#X msg 567 37 1;
#X msg 595 40 2;
#X connect 0 0 1 0;
#X connect 0 0 8 0;
#X connect 0 1 2 0;
#X connect 1 0 35 0;
#X connect 1 0 48 0;
#X connect 3 0 0 0;
#X connect 5 0 7 0;
#X connect 5 0 16 0;
#X connect 6 0 5 0;
#X connect 8 0 5 1;
#X connect 9 0 10 0;
#X connect 10 0 11 0;
#X connect 11 0 13 0;
#X connect 12 0 9 0;
#X connect 16 0 18 0;
#X connect 16 0 19 0;
#X connect 17 0 4 0;
#X connect 20 0 4 1;
#X connect 21 0 23 0;
#X connect 21 0 24 0;
#X connect 22 0 21 0;
#X connect 23 0 28 0;
#X connect 23 0 27 0;
#X connect 25 0 3 0;
#X connect 29 0 33 0;
#X connect 30 0 32 0;
#X connect 31 0 29 0;
#X connect 33 0 30 0;
#X connect 35 0 21 1;
#X connect 36 0 41 0;
#X connect 37 0 39 0;
#X connect 38 0 36 0;
#X connect 41 0 37 0;
#X connect 43 0 47 0;
#X connect 46 0 43 0;
#X connect 47 0 45 0;
#X connect 47 0 44 0;
#X connect 48 0 43 1;
#X connect 49 0 48 0;
#X connect 49 1 48 1;
#X connect 50 0 49 0;
#X connect 51 0 50 0;
#X connect 52 0 50 0;
