#N canvas 418 291 184 288 10;
#X obj 13 13 adc~;
#X obj 13 118 monitor;
#X obj 84 38 sigmund~;
#X obj 84 66 mtof;
#X floatatom 84 88 5 0 0 0 - - -;
#X floatatom 117 67 5 0 0 0 - - -;
#X connect 0 0 2 0;
#X connect 0 0 1 0;
#X connect 0 1 1 1;
#X connect 2 0 3 0;
#X connect 2 0 5 0;
#X connect 3 0 4 0;
