#N canvas 26 85 786 307 10;
#X floatatom 27 20 5 0 127 0 - - -;
#X obj 31 221 midi-to-note;
#X floatatom 95 255 5 0 0 0 - - -;
#X symbolatom 31 256 10 0 0 0 - - -;
#X obj 373 82 mtof;
#X obj 250 127 * 3;
#X obj 254 176 ftom;
#X obj 257 227 midi-to-note;
#X floatatom 314 255 5 0 0 0 - - -;
#X symbolatom 250 256 10 0 0 0 - - -;
#X text 69 24 Pick a root note [midi value];
#X obj 27 48 div;
#X obj 460 181 ftom;
#X obj 469 211 midi-to-note;
#X floatatom 526 253 5 0 0 0 - - -;
#X symbolatom 462 254 10 0 0 0 - - -;
#X obj 455 129 * 5;
#X obj 566 180 ftom;
#X obj 575 210 midi-to-note;
#X floatatom 632 252 5 0 0 0 - - -;
#X symbolatom 568 253 10 0 0 0 - - -;
#X obj 668 180 ftom;
#X obj 677 210 midi-to-note;
#X floatatom 734 252 5 0 0 0 - - -;
#X symbolatom 670 253 10 0 0 0 - - -;
#X obj 561 128 * 6;
#X obj 663 128 * 7;
#X obj 354 183 ftom;
#X obj 363 213 midi-to-note;
#X floatatom 420 255 5 0 0 0 - - -;
#X symbolatom 356 256 10 0 0 0 - - -;
#X obj 349 131 * 4;
#X text 27 280 Root;
#X text 357 273 3rd Harmonic;
#X text 463 271 4th Harmonic;
#X text 569 272 5th Harmonic;
#X text 679 273 6th Harmonic;
#X text 251 272 2nd Harmonic;
#X floatatom 251 152 5 0 0 0 - - -;
#X floatatom 59 107 5 0 0 0 - - -;
#X floatatom 254 204 5 0 0 0 - - -;
#X obj 142 176 ftom;
#X obj 145 227 midi-to-note;
#X floatatom 202 255 5 0 0 0 - - -;
#X symbolatom 138 256 10 0 0 0 - - -;
#X floatatom 139 152 5 0 0 0 - - -;
#X floatatom 142 204 5 0 0 0 - - -;
#X obj 138 127 * 2;
#X obj 28 132 * 1;
#X text 139 272 1st Harmonic;
#X connect 0 0 11 0;
#X connect 1 0 2 0;
#X connect 1 1 3 0;
#X connect 4 0 5 0;
#X connect 4 0 16 0;
#X connect 4 0 25 0;
#X connect 4 0 26 0;
#X connect 4 0 31 0;
#X connect 4 0 39 0;
#X connect 4 0 47 0;
#X connect 5 0 38 0;
#X connect 6 0 40 0;
#X connect 7 0 8 0;
#X connect 7 1 9 0;
#X connect 11 0 4 0;
#X connect 11 0 48 0;
#X connect 12 0 13 0;
#X connect 13 0 14 0;
#X connect 13 1 15 0;
#X connect 16 0 12 0;
#X connect 17 0 18 0;
#X connect 18 0 19 0;
#X connect 18 1 20 0;
#X connect 21 0 22 0;
#X connect 22 0 23 0;
#X connect 22 1 24 0;
#X connect 25 0 17 0;
#X connect 26 0 21 0;
#X connect 27 0 28 0;
#X connect 28 0 29 0;
#X connect 28 1 30 0;
#X connect 31 0 27 0;
#X connect 38 0 6 0;
#X connect 40 0 7 0;
#X connect 41 0 46 0;
#X connect 42 0 43 0;
#X connect 42 1 44 0;
#X connect 45 0 41 0;
#X connect 46 0 42 0;
#X connect 47 0 45 0;
#X connect 48 0 1 0;
