#N canvas 1383 476 448 484 10;
#X obj 16 16 bng 15 250 50 0 empty empty empty 17 7 0 10 -262144 -1
-1;
#X obj 15 34 openpanel;
#X msg 15 55 read -resize \$1 leftC rightC;
#X obj 15 76 soundfiler;
#N canvas 0 0 450 300 (subpatch) 0;
#X array leftC 170710 float 2;
#X coords 0 1 170710 -1 100 100 1;
#X restore 201 24 graph;
#N canvas 0 0 450 300 (subpatch) 0;
#X array rightC 170710 float 2;
#X coords 0 1 170710 -1 100 100 1;
#X restore 304 24 graph;
#X obj 15 100 nbx 10 14 -1e+037 1e+037 0 0 empty empty empty 0 -8 0
10 -262144 -1 -1 170710 256;
#X obj 13 288 tabread4~ leftC;
#X obj 109 288 tabread4~ rightC;
#X obj 15 222 phasor~;
#X obj 25 128 s size;
#X obj 15 178 f 44100;
#X obj 14 259 *~;
#X obj 81 218 r size;
#X obj 15 198 /;
#X obj 15 153 bng 15 250 50 0 empty empty empty 17 7 0 10 -262144 -1
-1;
#X obj 143 153 bng 30 50 10 0 empty empty empty 17 7 0 10 -262144 -1
-1;
#X obj 173 153 bng 30 50 10 0 empty empty empty 17 7 0 10 -262144 -1
-1;
#X obj 203 153 bng 30 50 10 0 empty empty empty 17 7 0 10 -262144 -1
-1;
#X obj 233 153 bng 30 50 10 0 empty empty empty 17 7 0 10 -262144 -1
-1;
#X obj 263 153 bng 30 50 10 0 empty empty empty 17 7 0 10 -262144 -1
-1;
#X obj 293 153 bng 30 50 10 0 empty empty empty 17 7 0 10 -262144 -1
-1;
#X obj 323 153 bng 30 50 10 0 empty empty empty 17 7 0 10 -262144 -1
-1;
#X obj 353 153 bng 30 50 10 0 empty empty empty 17 7 0 10 -262144 -1
-1;
#X msg 143 201 0;
#X msg 173 201 0.125;
#X msg 213 201 0.25;
#X msg 246 201 0.375;
#X msg 286 201 0.5;
#X msg 312 201 0.625;
#X msg 352 201 0.75;
#X msg 386 201 0.875;
#X obj 143 218 s phase;
#X obj 65 195 r phase;
#X obj 223 280 hsl 128 15 0 127 0 0 empty empty empty -2 -8 0 10 -262144
-1 -1 12700 1;
#X obj 220 300 mtof;
#X obj 224 257 line;
#X msg 278 226 127 4000;
#X msg 233 225 0 4000;
#X obj 56 253 s~ phasor_pos;
#X obj 14 316 lop~;
#X obj 143 81 notein;
#N canvas 856 459 444 443 lighting 1;
#X obj -47 -109 r~ phasor_pos;
#X obj -46 -68 snapshot~ 10;
#X obj 45 -85 metro 10;
#X obj 45 -109 loadbang;
#X obj -46 -49 * 8;
#X obj -46 -27 int;
#X obj -46 -7 change;
#X obj -46 198 noteout;
#X floatatom 154 221 5 0 1 0 - - -;
#X obj -7 140 f;
#X obj -42 17 t b f b;
#X msg 150 200 1;
#X obj 150 172 loadbang;
#X obj 35 79 select 0 1 2 3 4 5 6 7;
#X msg 34 107 9;
#X floatatom 73 16 5 0 0 0 - - -;
#X msg 64 117 10;
#X msg 94 117 11;
#X msg 124 117 12;
#X floatatom 20 166 5 0 0 0 - - -;
#X msg -22 101 127;
#X msg -48 136 0;
#X msg 156 116 25;
#X msg 184 120 26;
#X msg 215 120 27;
#X msg 247 120 28;
#X connect 0 0 1 0;
#X connect 1 0 4 0;
#X connect 2 0 1 0;
#X connect 3 0 2 0;
#X connect 4 0 5 0;
#X connect 5 0 6 0;
#X connect 6 0 10 0;
#X connect 6 0 15 0;
#X connect 8 0 7 2;
#X connect 9 0 7 0;
#X connect 9 0 19 0;
#X connect 10 0 9 0;
#X connect 10 0 21 0;
#X connect 10 1 13 0;
#X connect 10 2 9 0;
#X connect 10 2 20 0;
#X connect 11 0 8 0;
#X connect 12 0 11 0;
#X connect 13 0 14 0;
#X connect 13 1 16 0;
#X connect 13 2 17 0;
#X connect 13 3 18 0;
#X connect 13 4 22 0;
#X connect 13 5 23 0;
#X connect 13 6 24 0;
#X connect 13 7 25 0;
#X connect 14 0 9 1;
#X connect 16 0 9 1;
#X connect 17 0 9 1;
#X connect 18 0 9 1;
#X connect 20 0 7 1;
#X connect 21 0 7 1;
#X connect 22 0 9 1;
#X connect 23 0 9 1;
#X connect 24 0 9 1;
#X connect 25 0 9 1;
#X restore 266 256 pd lighting;
#X obj 143 104 spigot;
#X obj 15 339 monitor;
#X msg 307 360 \; rightC normalize 1;
#X msg 308 327 \; leftC normalize 1;
#X obj 162 434 cnv 15 180 40 empty empty mlr-pd 20 20 0 30 -233017
-66577 0;
#X msg 90 161 0;
#X obj 176 389 midiout;
#X msg 176 358 176;
#X obj 399 256 bng 15 250 50 0 empty empty empty 17 7 0 10 -262144
-1 -1;
#X floatatom 392 298 5 0 0 0 - - -;
#X obj 156 319 lop~;
#X floatatom 86 123 5 0 0 0 - - -;
#X obj 143 136 select 9 10 11 12 25 26 27 28;
#X connect 0 0 1 0;
#X connect 1 0 2 0;
#X connect 2 0 3 0;
#X connect 3 0 6 0;
#X connect 6 0 10 0;
#X connect 6 0 15 0;
#X connect 7 0 40 0;
#X connect 8 0 53 0;
#X connect 9 0 12 0;
#X connect 9 0 39 0;
#X connect 11 0 14 0;
#X connect 12 0 7 0;
#X connect 12 0 8 0;
#X connect 13 0 12 1;
#X connect 13 0 14 1;
#X connect 14 0 9 0;
#X connect 15 0 11 0;
#X connect 16 0 24 0;
#X connect 17 0 25 0;
#X connect 18 0 26 0;
#X connect 19 0 27 0;
#X connect 20 0 28 0;
#X connect 21 0 29 0;
#X connect 22 0 30 0;
#X connect 23 0 31 0;
#X connect 24 0 32 0;
#X connect 25 0 32 0;
#X connect 26 0 32 0;
#X connect 27 0 32 0;
#X connect 28 0 32 0;
#X connect 29 0 32 0;
#X connect 30 0 32 0;
#X connect 31 0 32 0;
#X connect 33 0 9 1;
#X connect 34 0 35 0;
#X connect 35 0 40 1;
#X connect 35 0 53 1;
#X connect 36 0 34 0;
#X connect 37 0 36 0;
#X connect 38 0 36 0;
#X connect 40 0 44 0;
#X connect 41 0 43 0;
#X connect 41 0 54 0;
#X connect 41 1 43 1;
#X connect 43 0 55 0;
#X connect 48 0 9 0;
#X connect 50 0 49 0;
#X connect 51 0 52 0;
#X connect 53 0 44 1;
#X connect 55 0 16 0;
#X connect 55 1 17 0;
#X connect 55 2 18 0;
#X connect 55 3 19 0;
#X connect 55 4 20 0;
#X connect 55 5 21 0;
#X connect 55 6 22 0;
#X connect 55 7 23 0;
