#N canvas 148 162 485 300 8;
#X obj 43 228 outlet;
#X obj 43 96 inlet;
#X obj 82 150 - \$1;
#X obj 82 96 loadbang;
#X obj 82 124 f \$2;
#X obj 82 178 / 127;
#X obj 43 193 *;
#X connect 1 0 6 0;
#X connect 2 0 5 0;
#X connect 3 0 4 0;
#X connect 4 0 2 0;
#X connect 5 0 6 1;
#X connect 6 0 0 0;
