#N canvas 621 23 643 411 10;
#X obj 303 269 key;
#X floatatom 303 288 5 0 0 0 - - -;
#X obj -121 23 tgl 50 0 \$0-r1c1-1-out \$0-r1c1-1-in empty 17 7 0 10
-262144 -1 -1 0 1;
#X obj -61 23 tgl 50 0 \$0-r1c2-1-out \$0-r1c2-1-in empty 17 7 0 10
-262144 -1 -1 0 1;
#X obj -1 23 tgl 50 0 \$0-r1c3-1-out \$0-r1c3-1-in empty 17 7 0 10
-262144 -1 -1 0 1;
#X obj 59 23 tgl 50 0 \$0-r1c4-1-out \$0-r1c4-1-in empty 17 7 0 10
-262144 -1 -1 0 1;
#X obj -121 83 tgl 50 0 \$0-r1c1-1-out \$0-r1c1-1-in empty 17 7 0 10
-262144 -1 -1 0 1;
#X obj -61 83 tgl 50 0 \$0-r1c1-1-out \$0-r1c1-1-in empty 17 7 0 10
-262144 -1 -1 0 1;
#X obj -1 83 tgl 50 0 \$0-r1c1-1-out \$0-r1c1-1-in empty 17 7 0 10
-262144 -1 -1 0 1;
#X obj 59 83 tgl 50 0 \$0-r1c1-1-out \$0-r1c1-1-in empty 17 7 0 10
-262144 -1 -1 0 1;
#X obj -121 143 tgl 50 0 \$0-r1c1-1-out \$0-r1c1-1-in empty 17 7 0
10 -262144 -1 -1 0 1;
#X obj -61 143 tgl 50 0 \$0-r1c1-1-out \$0-r1c1-1-in empty 17 7 0 10
-262144 -1 -1 0 1;
#X obj -1 143 tgl 50 0 \$0-r1c1-1-out \$0-r1c1-1-in empty 17 7 0 10
-262144 -1 -1 0 1;
#X obj 59 143 tgl 50 0 \$0-r1c1-1-out \$0-r1c1-1-in empty 17 7 0 10
-262144 -1 -1 0 1;
#X obj -121 204 tgl 50 0 \$0-r1c1-1-out \$0-r1c1-1-in empty 17 7 0
10 -262144 -1 -1 0 1;
#X obj -61 204 tgl 50 0 \$0-r1c1-1-out \$0-r1c1-1-in empty 17 7 0 10
-262144 -1 -1 0 1;
#X obj -1 204 tgl 50 0 \$0-r1c1-1-out \$0-r1c1-1-in empty 17 7 0 10
-262144 -1 -1 0 1;
#X obj 59 204 tgl 50 0 \$0-r1c1-1-out \$0-r1c1-1-in empty 17 7 0 10
-262144 -1 -1 0 1;
#X obj 135 28 notein 1;
#X obj 135 57 pack 0 0;
#X obj 343 269 notein 1;
#X floatatom 343 296 5 0 0 0 - - -;
#X floatatom 388 296 5 0 0 0 - - -;
#X obj 135 84 route 48 49 50 51;
#X msg 135 143 0;
#X msg 165 143 1;
#X obj 135 164 s \$0-r1c1-1-in;
#X obj 135 114 select 0;
#X msg 225 143 0;
#X msg 255 143 1;
#X obj 225 114 select 0;
#X obj 225 164 s \$0-r1c2-1-in;
#X msg 315 143 0;
#X msg 345 143 1;
#X obj 315 114 select 0;
#X msg 405 143 0;
#X msg 435 143 1;
#X obj 405 114 select 0;
#X obj 315 164 s \$0-r1c3-1-in;
#X obj 405 164 s \$0-r1c4-1-in;
#X connect 0 0 1 0;
#X connect 18 0 19 0;
#X connect 18 1 19 1;
#X connect 19 0 23 0;
#X connect 20 0 21 0;
#X connect 20 1 22 0;
#X connect 23 0 27 0;
#X connect 23 1 30 0;
#X connect 23 2 34 0;
#X connect 23 3 37 0;
#X connect 24 0 26 0;
#X connect 25 0 26 0;
#X connect 27 0 24 0;
#X connect 27 1 25 0;
#X connect 28 0 31 0;
#X connect 29 0 31 0;
#X connect 30 0 28 0;
#X connect 30 1 29 0;
#X connect 32 0 38 0;
#X connect 33 0 38 0;
#X connect 34 0 32 0;
#X connect 34 1 33 0;
#X connect 35 0 39 0;
#X connect 36 0 39 0;
#X connect 37 0 35 0;
#X connect 37 1 36 0;
