#N canvas 23 17 717 261 10;
#X obj 10 12 cnv 15 650 210 empty empty nanoKONTROL-synth 10 20 0 16
-233017 -66577 0;
#X obj 230 78 vsl 15 128 0 127 0 0 \$0-slider1 \$0-slider1-set empty
0 -9 0 10 -66577 -262144 -1 0 1;
#X obj 220 28 knob 30 30 0 127 0 0 \$0-knob1 \$0-knob1-set empty 0
-8 192 8 -262144 -1 -1 0 1;
#X obj 168 190 hradio 15 1 0 3 \$0-scene \$0-scene-set scene 0 -8 0
10 -262144 -1 -1 0;
#X obj 280 78 vsl 15 128 0 127 0 0 \$0-slider2 \$0-slider2-set empty
0 -9 0 10 -66577 -262144 -1 0 1;
#X obj 330 78 vsl 15 128 0 127 0 0 \$0-slider3 \$0-slider3-set empty
0 -9 0 10 -66577 -262144 -1 0 1;
#X obj 380 78 vsl 15 128 0 127 0 0 \$0-slider4 \$0-slider4-set empty
0 -9 0 10 -66577 -262144 -1 0 1;
#X obj 430 78 vsl 15 128 0 127 0 0 \$0-slider5 \$0-slider5-set empty
0 -9 0 10 -66577 -262144 -1 0 1;
#X obj 480 78 vsl 15 128 0 127 0 0 \$0-slider6 \$0-slider6-set empty
0 -9 0 10 -66577 -262144 -1 0 1;
#X obj 530 78 vsl 15 128 0 127 0 0 \$0-slider7 \$0-slider7-set empty
0 -9 0 10 -66577 -262144 -1 0 1;
#X obj 580 78 vsl 15 128 0 127 0 0 \$0-slider8 \$0-slider8-set empty
0 -9 0 10 -66577 -262144 -1 0 1;
#X obj 630 78 vsl 15 128 0 127 0 0 \$0-slider9 \$0-slider9-set empty
0 -9 0 10 -66577 -262144 -1 100 1;
#N canvas 73 49 450 300 help 0;
#X restore 10 223 pd help;
#N canvas 573 113 793 538 sliders 0;
#X obj 11 152 spigot;
#X msg 52 129 1;
#X msg 24 129 0;
#X floatatom 115 169 5 0 0 0 - - -;
#X obj 11 12 ctlin;
#X obj 11 171 s \$0-slider1-set;
#X obj 67 12 r \$0-scene;
#X obj 24 81 ==;
#X obj 67 36 select 0 1 2;
#X obj 24 105 select 0 1;
#X msg 67 60 2;
#X msg 97 60 42;
#X msg 127 60 85;
#X obj 161 152 spigot;
#X msg 202 129 1;
#X msg 174 129 0;
#X floatatom 265 169 5 0 0 0 - - -;
#X obj 161 12 ctlin;
#X obj 217 12 r \$0-scene;
#X obj 174 81 ==;
#X obj 217 36 select 0 1 2;
#X obj 174 105 select 0 1;
#X obj 311 152 spigot;
#X msg 352 129 1;
#X msg 324 129 0;
#X floatatom 415 169 5 0 0 0 - - -;
#X obj 311 12 ctlin;
#X obj 367 12 r \$0-scene;
#X obj 324 81 ==;
#X obj 367 36 select 0 1 2;
#X obj 324 105 select 0 1;
#X obj 461 152 spigot;
#X msg 502 129 1;
#X msg 474 129 0;
#X floatatom 565 169 5 0 0 0 - - -;
#X obj 461 12 ctlin;
#X obj 517 12 r \$0-scene;
#X obj 474 81 ==;
#X obj 517 36 select 0 1 2;
#X obj 474 105 select 0 1;
#X obj 11 342 spigot;
#X msg 52 319 1;
#X msg 24 319 0;
#X floatatom 115 359 5 0 0 0 - - -;
#X obj 11 202 ctlin;
#X obj 67 202 r \$0-scene;
#X obj 24 271 ==;
#X obj 67 226 select 0 1 2;
#X obj 24 295 select 0 1;
#X obj 161 342 spigot;
#X msg 202 319 1;
#X msg 174 319 0;
#X floatatom 265 359 5 0 0 0 - - -;
#X obj 161 202 ctlin;
#X obj 217 202 r \$0-scene;
#X obj 174 271 ==;
#X obj 217 226 select 0 1 2;
#X obj 174 295 select 0 1;
#X obj 311 342 spigot;
#X msg 352 319 1;
#X msg 324 319 0;
#X floatatom 415 359 5 0 0 0 - - -;
#X obj 311 202 ctlin;
#X obj 367 202 r \$0-scene;
#X obj 324 271 ==;
#X obj 367 226 select 0 1 2;
#X obj 324 295 select 0 1;
#X obj 461 342 spigot;
#X msg 502 319 1;
#X msg 474 319 0;
#X floatatom 565 359 5 0 0 0 - - -;
#X obj 461 202 ctlin;
#X obj 517 202 r \$0-scene;
#X obj 474 271 ==;
#X obj 517 226 select 0 1 2;
#X obj 474 295 select 0 1;
#X obj 621 232 spigot;
#X msg 662 209 1;
#X msg 634 209 0;
#X floatatom 725 249 5 0 0 0 - - -;
#X obj 621 92 ctlin;
#X obj 677 92 r \$0-scene;
#X obj 634 161 ==;
#X obj 677 116 select 0 1 2;
#X obj 634 185 select 0 1;
#X obj 161 171 s \$0-slider2-set;
#X obj 311 171 s \$0-slider3-set;
#X obj 461 171 s \$0-slider4-set;
#X obj 11 361 s \$0-slider5-set;
#X obj 161 361 s \$0-slider6-set;
#X obj 311 361 s \$0-slider7-set;
#X obj 461 361 s \$0-slider8-set;
#X obj 621 251 s \$0-slider9-set;
#X msg 217 60 3;
#X msg 247 60 43;
#X msg 277 60 86;
#X msg 367 60 4;
#X msg 397 60 50;
#X msg 427 60 87;
#X msg 517 60 5;
#X msg 547 60 51;
#X msg 577 60 88;
#X msg 67 250 6;
#X msg 97 250 52;
#X msg 127 250 89;
#X msg 217 250 8;
#X msg 247 250 53;
#X msg 277 250 90;
#X msg 367 250 9;
#X msg 397 250 54;
#X msg 427 250 91;
#X msg 517 250 12;
#X msg 547 250 55;
#X msg 577 250 92;
#X msg 677 140 13;
#X msg 707 140 56;
#X msg 737 140 93;
#X connect 0 0 3 0;
#X connect 0 0 5 0;
#X connect 1 0 0 1;
#X connect 2 0 0 1;
#X connect 4 0 0 0;
#X connect 4 1 7 0;
#X connect 6 0 8 0;
#X connect 7 0 9 0;
#X connect 8 0 10 0;
#X connect 8 1 11 0;
#X connect 8 2 12 0;
#X connect 9 0 2 0;
#X connect 9 1 1 0;
#X connect 10 0 7 1;
#X connect 11 0 7 1;
#X connect 12 0 7 1;
#X connect 13 0 16 0;
#X connect 13 0 85 0;
#X connect 14 0 13 1;
#X connect 15 0 13 1;
#X connect 17 0 13 0;
#X connect 17 1 19 0;
#X connect 18 0 20 0;
#X connect 19 0 21 0;
#X connect 20 0 93 0;
#X connect 20 1 94 0;
#X connect 20 2 95 0;
#X connect 21 0 15 0;
#X connect 21 1 14 0;
#X connect 22 0 25 0;
#X connect 22 0 86 0;
#X connect 23 0 22 1;
#X connect 24 0 22 1;
#X connect 26 0 22 0;
#X connect 26 1 28 0;
#X connect 27 0 29 0;
#X connect 28 0 30 0;
#X connect 29 0 96 0;
#X connect 29 1 97 0;
#X connect 29 2 98 0;
#X connect 30 0 24 0;
#X connect 30 1 23 0;
#X connect 31 0 34 0;
#X connect 31 0 87 0;
#X connect 32 0 31 1;
#X connect 33 0 31 1;
#X connect 35 0 31 0;
#X connect 35 1 37 0;
#X connect 36 0 38 0;
#X connect 37 0 39 0;
#X connect 38 0 99 0;
#X connect 38 1 100 0;
#X connect 38 2 101 0;
#X connect 39 0 33 0;
#X connect 39 1 32 0;
#X connect 40 0 43 0;
#X connect 40 0 88 0;
#X connect 41 0 40 1;
#X connect 42 0 40 1;
#X connect 44 0 40 0;
#X connect 44 1 46 0;
#X connect 45 0 47 0;
#X connect 46 0 48 0;
#X connect 47 0 102 0;
#X connect 47 1 103 0;
#X connect 47 2 104 0;
#X connect 48 0 42 0;
#X connect 48 1 41 0;
#X connect 49 0 52 0;
#X connect 49 0 89 0;
#X connect 50 0 49 1;
#X connect 51 0 49 1;
#X connect 53 0 49 0;
#X connect 53 1 55 0;
#X connect 54 0 56 0;
#X connect 55 0 57 0;
#X connect 56 0 105 0;
#X connect 56 1 106 0;
#X connect 56 2 107 0;
#X connect 57 0 51 0;
#X connect 57 1 50 0;
#X connect 58 0 61 0;
#X connect 58 0 90 0;
#X connect 59 0 58 1;
#X connect 60 0 58 1;
#X connect 62 0 58 0;
#X connect 62 1 64 0;
#X connect 63 0 65 0;
#X connect 64 0 66 0;
#X connect 65 0 108 0;
#X connect 65 1 109 0;
#X connect 65 2 110 0;
#X connect 66 0 60 0;
#X connect 66 1 59 0;
#X connect 67 0 70 0;
#X connect 67 0 91 0;
#X connect 68 0 67 1;
#X connect 69 0 67 1;
#X connect 71 0 67 0;
#X connect 71 1 73 0;
#X connect 72 0 74 0;
#X connect 73 0 75 0;
#X connect 74 0 111 0;
#X connect 74 1 112 0;
#X connect 74 2 113 0;
#X connect 75 0 69 0;
#X connect 75 1 68 0;
#X connect 76 0 79 0;
#X connect 76 0 92 0;
#X connect 77 0 76 1;
#X connect 78 0 76 1;
#X connect 80 0 76 0;
#X connect 80 1 82 0;
#X connect 81 0 83 0;
#X connect 82 0 84 0;
#X connect 83 0 114 0;
#X connect 83 1 115 0;
#X connect 83 2 116 0;
#X connect 84 0 78 0;
#X connect 84 1 77 0;
#X connect 93 0 19 1;
#X connect 94 0 19 1;
#X connect 95 0 19 1;
#X connect 96 0 28 1;
#X connect 97 0 28 1;
#X connect 98 0 28 1;
#X connect 99 0 37 1;
#X connect 100 0 37 1;
#X connect 101 0 37 1;
#X connect 102 0 46 1;
#X connect 103 0 46 1;
#X connect 104 0 46 1;
#X connect 105 0 55 1;
#X connect 106 0 55 1;
#X connect 107 0 55 1;
#X connect 108 0 64 1;
#X connect 109 0 64 1;
#X connect 110 0 64 1;
#X connect 111 0 73 1;
#X connect 112 0 73 1;
#X connect 113 0 73 1;
#X connect 114 0 82 1;
#X connect 115 0 82 1;
#X connect 116 0 82 1;
#X restore 60 223 pd sliders;
#N canvas 0 0 450 300 buttons 0;
#X restore 184 223 pd buttons;
#N canvas 0 0 450 300 output 0;
#X obj 100 100 monitor;
#X obj 101 12 catch~ \$0-L;
#X obj 166 33 catch~ \$0-R;
#X obj 270 39 r \$0-slider9;
#X obj 275 69 / 127;
#X obj 276 94 * 3;
#X connect 1 0 0 0;
#X connect 2 0 0 1;
#X connect 3 0 4 0;
#X connect 4 0 5 0;
#X connect 5 0 0 2;
#X coords 0 -1 1 1 140 135 2 100 100;
#X restore 18 72 pd output;
#X obj 270 28 knob 30 30 0 127 0 0 \$0-knob2 \$0-knob2-set empty 0
-8 192 8 -262144 -1 -1 0 1;
#X obj 320 28 knob 30 30 0 127 0 0 \$0-knob3 \$0-knob3-set empty 0
-8 192 8 -262144 -1 -1 0 1;
#X obj 370 28 knob 30 30 0 127 0 0 \$0-knob4 \$0-knob4-set empty 0
-8 192 8 -262144 -1 -1 0 1;
#X obj 420 28 knob 30 30 0 127 0 0 \$0-knob5 \$0-knob5-set empty 0
-8 192 8 -262144 -1 -1 0 1;
#X obj 470 28 knob 30 30 0 127 0 0 \$0-knob6 \$0-knob6-set empty 0
-8 192 8 -262144 -1 -1 0 1;
#X obj 520 28 knob 30 30 0 127 0 0 \$0-knob7 \$0-knob7-set empty 0
-8 192 8 -262144 -1 -1 0 1;
#X obj 570 28 knob 30 30 0 127 0 0 \$0-knob8 \$0-knob8-set empty 0
-8 192 8 -262144 -1 -1 0 1;
#X obj 620 28 knob 30 30 0 127 0 0 \$0-knob9 \$0-knob9-set empty 0
-8 192 8 -262144 -1 -1 0 1;
#N canvas 789 137 772 538 knobs 0;
#X obj 11 152 spigot;
#X msg 52 129 1;
#X msg 24 129 0;
#X floatatom 115 169 5 0 0 0 - - -;
#X obj 11 12 ctlin;
#X obj 67 12 r \$0-scene;
#X obj 24 81 ==;
#X obj 67 36 select 0 1 2;
#X obj 24 105 select 0 1;
#X obj 161 152 spigot;
#X msg 202 129 1;
#X msg 174 129 0;
#X floatatom 265 169 5 0 0 0 - - -;
#X obj 161 12 ctlin;
#X obj 217 12 r \$0-scene;
#X obj 174 81 ==;
#X obj 217 36 select 0 1 2;
#X obj 174 105 select 0 1;
#X obj 311 152 spigot;
#X msg 352 129 1;
#X msg 324 129 0;
#X floatatom 415 169 5 0 0 0 - - -;
#X obj 311 12 ctlin;
#X obj 367 12 r \$0-scene;
#X obj 324 81 ==;
#X obj 367 36 select 0 1 2;
#X obj 324 105 select 0 1;
#X obj 461 152 spigot;
#X msg 502 129 1;
#X msg 474 129 0;
#X floatatom 565 169 5 0 0 0 - - -;
#X obj 461 12 ctlin;
#X obj 517 12 r \$0-scene;
#X obj 474 81 ==;
#X obj 517 36 select 0 1 2;
#X obj 474 105 select 0 1;
#X obj 11 342 spigot;
#X msg 52 319 1;
#X msg 24 319 0;
#X floatatom 115 359 5 0 0 0 - - -;
#X obj 11 202 ctlin;
#X obj 67 202 r \$0-scene;
#X obj 24 271 ==;
#X obj 67 226 select 0 1 2;
#X obj 24 295 select 0 1;
#X obj 161 342 spigot;
#X msg 202 319 1;
#X msg 174 319 0;
#X floatatom 265 359 5 0 0 0 - - -;
#X obj 161 202 ctlin;
#X obj 217 202 r \$0-scene;
#X obj 174 271 ==;
#X obj 217 226 select 0 1 2;
#X obj 174 295 select 0 1;
#X obj 311 342 spigot;
#X msg 352 319 1;
#X msg 324 319 0;
#X floatatom 415 359 5 0 0 0 - - -;
#X obj 311 202 ctlin;
#X obj 367 202 r \$0-scene;
#X obj 324 271 ==;
#X obj 367 226 select 0 1 2;
#X obj 324 295 select 0 1;
#X obj 461 342 spigot;
#X msg 502 319 1;
#X msg 474 319 0;
#X floatatom 565 359 5 0 0 0 - - -;
#X obj 461 202 ctlin;
#X obj 517 202 r \$0-scene;
#X obj 474 271 ==;
#X obj 517 226 select 0 1 2;
#X obj 474 295 select 0 1;
#X obj 621 232 spigot;
#X msg 662 209 1;
#X msg 634 209 0;
#X floatatom 725 249 5 0 0 0 - - -;
#X obj 621 92 ctlin;
#X obj 677 92 r \$0-scene;
#X obj 634 161 ==;
#X obj 677 116 select 0 1 2;
#X obj 634 185 select 0 1;
#X obj 11 171 s \$0-knob1-set;
#X obj 161 171 s \$0-knob2-set;
#X obj 311 171 s \$0-knob3-set;
#X obj 461 171 s \$0-knob4-set;
#X obj 11 361 s \$0-knob5-set;
#X obj 161 361 s \$0-knob6-set;
#X obj 311 361 s \$0-knob7-set;
#X obj 461 361 s \$0-knob8-set;
#X obj 621 251 s \$0-knob9-set;
#X msg 67 60 14;
#X msg 97 60 57;
#X msg 127 60 94;
#X msg 217 60 15;
#X msg 247 60 58;
#X msg 277 60 95;
#X msg 367 60 16;
#X msg 397 60 59;
#X msg 427 60 96;
#X msg 517 60 17;
#X msg 547 60 60;
#X msg 577 60 97;
#X msg 67 250 18;
#X msg 97 250 61;
#X msg 127 250 102;
#X msg 217 250 19;
#X msg 247 250 62;
#X msg 277 250 103;
#X msg 367 250 20;
#X msg 397 250 63;
#X msg 427 250 104;
#X msg 517 250 21;
#X msg 547 250 65;
#X msg 577 250 105;
#X msg 677 140 22;
#X msg 707 140 66;
#X msg 737 140 106;
#X connect 0 0 3 0;
#X connect 0 0 81 0;
#X connect 1 0 0 1;
#X connect 2 0 0 1;
#X connect 4 0 0 0;
#X connect 4 1 6 0;
#X connect 5 0 7 0;
#X connect 6 0 8 0;
#X connect 7 0 90 0;
#X connect 7 1 91 0;
#X connect 7 2 92 0;
#X connect 8 0 2 0;
#X connect 8 1 1 0;
#X connect 9 0 12 0;
#X connect 9 0 82 0;
#X connect 10 0 9 1;
#X connect 11 0 9 1;
#X connect 13 0 9 0;
#X connect 13 1 15 0;
#X connect 14 0 16 0;
#X connect 15 0 17 0;
#X connect 16 0 93 0;
#X connect 16 1 94 0;
#X connect 16 2 95 0;
#X connect 17 0 11 0;
#X connect 17 1 10 0;
#X connect 18 0 21 0;
#X connect 18 0 83 0;
#X connect 19 0 18 1;
#X connect 20 0 18 1;
#X connect 22 0 18 0;
#X connect 22 1 24 0;
#X connect 23 0 25 0;
#X connect 24 0 26 0;
#X connect 25 0 96 0;
#X connect 25 1 97 0;
#X connect 25 2 98 0;
#X connect 26 0 20 0;
#X connect 26 1 19 0;
#X connect 27 0 30 0;
#X connect 27 0 84 0;
#X connect 28 0 27 1;
#X connect 29 0 27 1;
#X connect 31 0 27 0;
#X connect 31 1 33 0;
#X connect 32 0 34 0;
#X connect 33 0 35 0;
#X connect 34 0 99 0;
#X connect 34 1 100 0;
#X connect 34 2 101 0;
#X connect 35 0 29 0;
#X connect 35 1 28 0;
#X connect 36 0 39 0;
#X connect 36 0 85 0;
#X connect 37 0 36 1;
#X connect 38 0 36 1;
#X connect 40 0 36 0;
#X connect 40 1 42 0;
#X connect 41 0 43 0;
#X connect 42 0 44 0;
#X connect 43 0 102 0;
#X connect 43 1 103 0;
#X connect 43 2 104 0;
#X connect 44 0 38 0;
#X connect 44 1 37 0;
#X connect 45 0 48 0;
#X connect 45 0 86 0;
#X connect 46 0 45 1;
#X connect 47 0 45 1;
#X connect 49 0 45 0;
#X connect 49 1 51 0;
#X connect 50 0 52 0;
#X connect 51 0 53 0;
#X connect 52 0 105 0;
#X connect 52 1 106 0;
#X connect 52 2 107 0;
#X connect 53 0 47 0;
#X connect 53 1 46 0;
#X connect 54 0 57 0;
#X connect 54 0 87 0;
#X connect 55 0 54 1;
#X connect 56 0 54 1;
#X connect 58 0 54 0;
#X connect 58 1 60 0;
#X connect 59 0 61 0;
#X connect 60 0 62 0;
#X connect 61 0 108 0;
#X connect 61 1 109 0;
#X connect 61 2 110 0;
#X connect 62 0 56 0;
#X connect 62 1 55 0;
#X connect 63 0 66 0;
#X connect 63 0 88 0;
#X connect 64 0 63 1;
#X connect 65 0 63 1;
#X connect 67 0 63 0;
#X connect 67 1 69 0;
#X connect 68 0 70 0;
#X connect 69 0 71 0;
#X connect 70 0 111 0;
#X connect 70 1 112 0;
#X connect 70 2 113 0;
#X connect 71 0 65 0;
#X connect 71 1 64 0;
#X connect 72 0 75 0;
#X connect 72 0 89 0;
#X connect 73 0 72 1;
#X connect 74 0 72 1;
#X connect 76 0 72 0;
#X connect 76 1 78 0;
#X connect 77 0 79 0;
#X connect 78 0 80 0;
#X connect 79 0 114 0;
#X connect 79 1 115 0;
#X connect 79 2 116 0;
#X connect 80 0 74 0;
#X connect 80 1 73 0;
#X connect 90 0 6 1;
#X connect 91 0 6 1;
#X connect 92 0 6 1;
#X connect 93 0 15 1;
#X connect 94 0 15 1;
#X connect 95 0 15 1;
#X connect 96 0 24 1;
#X connect 97 0 24 1;
#X connect 98 0 24 1;
#X connect 99 0 33 1;
#X connect 100 0 33 1;
#X connect 101 0 33 1;
#X connect 102 0 42 1;
#X connect 103 0 42 1;
#X connect 104 0 42 1;
#X connect 105 0 51 1;
#X connect 106 0 51 1;
#X connect 107 0 51 1;
#X connect 108 0 60 1;
#X connect 109 0 60 1;
#X connect 110 0 60 1;
#X connect 111 0 69 1;
#X connect 112 0 69 1;
#X connect 113 0 69 1;
#X connect 114 0 78 1;
#X connect 115 0 78 1;
#X connect 116 0 78 1;
#X restore 128 223 pd knobs;
#N canvas 718 229 479 391 oscs 0;
#X obj 49 25 r \$0-knob1;
#X obj 49 101 mtof;
#X obj 121 22 r \$0-knob2;
#X obj 49 142 oscillator;
#X obj 113 118 +;
#X text 46 9 frequency;
#X text 124 7 detune;
#X obj 140 78 / 127;
#X obj 140 101 * 1000;
#X obj 214 44 r \$0-slider1;
#X obj 214 75 / 127;
#X obj 214 99 * 4;
#X obj 214 124 int;
#X obj 304 75 / 127;
#X obj 304 99 * 4;
#X obj 304 124 int;
#X obj 50 227 panner;
#X obj 113 141 oscillator;
#X obj 304 44 r \$0-slider2;
#X obj 113 46 t b f;
#X obj 161 327 tabwrite~ \$0-waveform;
#X obj 161 277 loadbang;
#X obj 51 289 +~;
#X obj 161 306 metro 100;
#X obj 50 330 s~ \$0-filtering;
#X text 220 24 osc1;
#X text 311 24 osc2;
#X obj 189 184 r \$0-knob3;
#X obj 189 210 / 127;
#X obj -39 66 s \$0-midinum;
#X obj -62 130 s \$0-freqnum;
#X obj 140 121 s \$0-detune;
#X obj 189 239 s \$0-pannum;
#X connect 0 0 1 0;
#X connect 0 0 29 0;
#X connect 1 0 3 0;
#X connect 1 0 4 0;
#X connect 1 0 30 0;
#X connect 2 0 19 0;
#X connect 3 0 16 0;
#X connect 4 0 17 0;
#X connect 7 0 8 0;
#X connect 8 0 4 1;
#X connect 8 0 31 0;
#X connect 9 0 10 0;
#X connect 10 0 11 0;
#X connect 11 0 12 0;
#X connect 12 0 3 1;
#X connect 13 0 14 0;
#X connect 14 0 15 0;
#X connect 15 0 17 1;
#X connect 16 0 22 0;
#X connect 16 1 22 1;
#X connect 17 0 16 1;
#X connect 18 0 13 0;
#X connect 19 0 4 0;
#X connect 19 1 7 0;
#X connect 21 0 23 0;
#X connect 22 0 20 0;
#X connect 22 0 24 0;
#X connect 23 0 20 0;
#X connect 27 0 28 0;
#X connect 28 0 16 2;
#X connect 28 0 32 0;
#X restore 251 223 pd oscs;
#N canvas 766 21 345 164 wavetable 1;
#N canvas 0 0 450 300 (subpatch) 0;
#X array \$0-waveform 256 float 5;
#A 0 0.891339 0.890809 0.890279 0.889749 0.889219 0.888689 0.888159
0.887628 0.887085 0.886543 0.886 0.885457 0.884914 0.884371 0.883829
0.883286 0.882743 0.8822 0.881651 0.881096 0.880541 0.879985 0.87943
0.878874 0.878319 0.877764 0.877208 0.876653 0.876097 0.87553 0.874962
0.874394 0.873826 0.873258 0.87269 0.872123 0.871555 0.870987 0.870419
0.869846 0.869265 0.868685 0.868105 0.867524 0.866944 0.866364 0.865783
0.865203 0.864623 0.864042 0.863451 0.862858 0.862266 0.861673 0.86108
0.860487 0.859895 0.859302 0.858709 0.858117 0.85752 0.856915 0.85631
0.855705 0.8551 0.854495 0.85389 0.853285 0.85268 0.852075 0.85147
0.850855 0.850238 0.849621 0.849004 0.848387 0.847769 0.847152 0.846535
0.845918 0.845301 0.84468 0.844051 0.843422 0.842793 0.842164 0.841534
0.840905 0.840276 0.839647 0.839017 0.838388 0.83775 0.837109 0.836468
0.835827 0.835185 0.834544 0.833903 0.833262 0.832621 0.831979 0.831336
0.830683 0.83003 0.829376 0.828723 0.82807 0.827417 0.826764 0.826111
0.825458 0.824805 0.824144 0.823479 0.822814 0.822149 0.821484 0.82082
0.820155 0.81949 0.818825 0.81816 0.817494 0.816817 0.816141 0.815464
0.814787 0.814111 0.813434 0.812758 0.812081 0.811405 0.810728 0.810045
0.809356 0.808668 0.80798 0.807292 0.806604 0.805916 0.805228 0.804539
0.803851 0.803162 0.802463 0.801763 0.801063 0.800364 0.799664 0.798965
0.798265 0.797565 0.796866 0.796166 0.79546 0.794749 0.794038 0.793328
0.792616 0.791905 0.791194 0.790483 0.789773 0.789061 0.78835 0.787628
0.786906 0.786184 0.785461 0.784739 0.784017 0.783295 0.782572 0.78185
0.781128 0.7804 0.779667 0.778934 0.7782 0.777467 0.776733 0.776 0.775266
0.774533 0.7738 0.773066 0.772322 0.771578 0.770834 0.770089 0.769345
0.7686 0.767856 0.767111 0.766367 0.765622 0.764873 0.764118 0.763363
0.762607 0.761852 0.761096 0.760341 0.759585 0.75883 0.758075 0.757319
0.756555 0.755788 0.755022 0.754256 0.75349 0.752723 0.751957 0.751191
0.750425 0.749658 0.748889 0.748112 0.747335 0.746558 0.745781 0.745004
0.744227 0.74345 0.742673 0.741896 0.741119 0.740334 0.739546 0.738759
0.737971 0.737184 0.736396 0.735609 0.734821 0.734034 0.733246 0.732456
0.731658 0.73086 0.730062 0.729264 0.728466 0.727668 0.72687 0.726072
0.725274 0.724476 0.72367 0.722862 0.722054 0.721245 0.720437 0.719629
;
#X coords 0 1 255 -1 300 140 1;
#X restore 10 0 graph;
#X restore 584 223 pd wavetable;
#N canvas 721 281 418 389 filtering 1;
#X obj 31 19 r~ \$0-filtering;
#X obj 31 257 filter;
#X obj 145 240 / 127;
#X obj 48 90 mtof~;
#X obj 148 216 r \$0-slider3;
#X obj 48 52 r \$0-knob4;
#X obj 231 201 / 127;
#X obj 231 180 r \$0-slider4;
#X obj 231 223 * 3;
#X obj 186 240 int;
#X obj 32 330 s~ \$0-fx;
#X obj 99 115 lfo;
#X obj 129 51 r \$0-knob5;
#X obj 129 75 / 127;
#X obj 172 86 loadbang;
#X obj 129 98 * 20;
#X obj 47 236 +~;
#X obj 100 220 *~;
#X obj 190 130 r \$0-knob6;
#X obj 190 159 / 127;
#X obj 190 190 * 300;
#X connect 0 0 1 0;
#X connect 1 0 10 0;
#X connect 2 0 1 2;
#X connect 3 0 16 0;
#X connect 4 0 2 0;
#X connect 5 0 3 0;
#X connect 6 0 8 0;
#X connect 7 0 6 0;
#X connect 8 0 9 0;
#X connect 9 0 1 3;
#X connect 11 0 17 0;
#X connect 12 0 13 0;
#X connect 13 0 15 0;
#X connect 14 0 11 1;
#X connect 15 0 11 0;
#X connect 16 0 1 1;
#X connect 17 0 16 1;
#X connect 18 0 19 0;
#X connect 19 0 20 0;
#X connect 20 0 17 1;
#X restore 301 223 pd filtering;
#N canvas 834 47 450 300 extras 0;
#X obj 21 13 loadbang;
#X msg 21 37 0;
#X obj 21 72 s \$0-scene-set;
#X obj 124 12 midiin;
#X floatatom 179 55 5 0 0 0 - - -;
#X floatatom 192 40 5 0 0 0 - - -;
#X connect 0 0 1 0;
#X connect 1 0 2 0;
#X connect 3 0 4 0;
#X connect 3 1 5 0;
#X restore 522 223 pd extras;
#N canvas 25 349 450 300 fx 1;
#X obj 20 27 r~ \$0-fx;
#X obj 21 265 throw~ \$0-L;
#X obj 101 265 throw~ \$0-R;
#X obj 21 157 reverb;
#X obj 58 49 r \$0-slider5;
#X obj 58 74 / 127;
#X obj 98 94 / 127;
#X obj 98 69 r \$0-slider6;
#X obj 138 114 / 127;
#X obj 138 89 r \$0-slider7;
#X obj 178 134 / 127;
#X obj 178 109 r \$0-slider8;
#X connect 0 0 3 0;
#X connect 0 0 3 1;
#X connect 3 0 1 0;
#X connect 3 1 2 0;
#X connect 4 0 5 0;
#X connect 5 0 3 2;
#X connect 6 0 3 3;
#X connect 7 0 6 0;
#X connect 8 0 3 4;
#X connect 9 0 8 0;
#X connect 10 0 3 5;
#X connect 11 0 10 0;
#X restore 381 223 pd fx;
#X text 224 59 osc1;
#X text 220 11 freq;
#N canvas 30 343 450 300 stats 0;
#X floatatom 9 81 8 0 0 0 frequency #0-freqnum NOPE;
#X obj -51 4 cnv 15 300 20 empty empty Synthesizer-numerics 20 12 0
14 -233017 -66577 0;
#X floatatom 9 60 8 0 0 0 midi #0-midinum NOPE;
#X floatatom 9 101 8 0 0 0 detune #0-detune NOPE;
#X floatatom 9 121 8 0 0 0 panning #0-pannum NOPE;
#X restore 420 223 pd stats;
