#N canvas 337 12 664 607 10;
#X obj 31 532 output~;
#X obj 30 9 bng 15 250 50 0 empty empty empty 17 7 0 10 -262144 -1
-1;
#X obj 417 87 table notes;
#X obj 30 284 mtof;
#X obj 30 207 tabread notes;
#X obj 30 167 counter 0 31;
#X obj 30 141 metro 220;
#X obj 30 405 +~;
#X obj 84 49 hsl 128 15 1 300 0 0 empty empty bpm -2 -8 0 10 -262144
-1 -1 6225 1;
#X floatatom 185 83 5 0 0 0 - - -;
#X obj 81 68 div;
#X obj 31 330 -~ 0.5;
#X obj 30 32 t b b;
#X obj 81 89 expr 60000 / $f1;
#X obj 90 284 mtof;
#X obj 150 284 mtof;
#X obj 150 261 + 7;
#X obj 204 257 bng 15 250 50 0 empty empty empty 17 7 0 10 -262144
-1 -1;
#X obj 30 483 *~;
#X msg 405 48 60 65 60 65 60 65 60 65 62 67 62 67 62 67 62 67 64 69
64 69 64 69 64 69 62 67 62 67 62 67 62 67;
#X msg 405 115 \; notes 0 \$1 \$2 \$3 \$4 \$5 \$6 \$7 \$8 \$9 \$10
\$11 \$12 \$13 \$14 \$15 \$16 \$17 \$18 \$19 \$20 \$21 \$22 \$23 \$24
\$25 \$26 \$27 \$28 \$29 \$30 \$31 \$32;
#X floatatom 476 441 5 0 0 0 - - -;
#X floatatom 535 447 5 0 0 0 - - -;
#X obj 469 399 notein;
#X floatatom 45 261 5 0 0 0 - - -;
#X obj 91 330 -~ 0.25;
#X obj 151 330 -~ 0.25;
#X obj 324 116 loadbang;
#X msg 324 142 200;
#X obj 81 113 div;
#X obj 294 173 vsl 15 128 50 5000 1 0 empty empty empty 0 -9 0 10 -262144
-1 -1 800 1;
#X msg 204 355 1 \$1;
#X floatatom 318 322 5 0 0 0 - - -;
#X obj 204 447 vline~;
#X obj 205 282 t b b;
#X obj 258 354 f;
#X obj 204 327 f;
#X obj 324 173 vsl 15 128 50 5000 1 0 empty empty empty 0 -9 0 10 -262144
-1 -1 12700 1;
#X obj 252 328 del;
#X msg 255 380 0 \$1;
#X obj 30 228 + 0;
#X obj 90 359 +~;
#X obj 89 388 *~;
#X obj 130 373 tgl 15 0 empty empty empty 17 7 0 10 -262144 -1 -1 0
1;
#X obj 30 307 osc~;
#X obj 90 307 osc~;
#X obj 90 262 + 3;
#X msg 157 212 3;
#X msg 122 212 4;
#X obj 150 307 osc~;
#X connect 1 0 12 0;
#X connect 3 0 44 0;
#X connect 4 0 40 0;
#X connect 5 0 4 0;
#X connect 6 0 5 0;
#X connect 7 0 18 0;
#X connect 8 0 10 0;
#X connect 10 0 9 0;
#X connect 10 0 13 0;
#X connect 11 0 7 0;
#X connect 12 0 6 0;
#X connect 12 1 8 0;
#X connect 13 0 29 0;
#X connect 14 0 45 0;
#X connect 15 0 49 0;
#X connect 16 0 15 0;
#X connect 17 0 34 0;
#X connect 18 0 0 0;
#X connect 18 0 0 1;
#X connect 19 0 20 0;
#X connect 23 0 21 0;
#X connect 23 1 22 0;
#X connect 25 0 41 0;
#X connect 26 0 41 1;
#X connect 27 0 28 0;
#X connect 28 0 37 0;
#X connect 29 0 6 1;
#X connect 30 0 32 0;
#X connect 30 0 36 1;
#X connect 30 0 38 1;
#X connect 31 0 33 0;
#X connect 33 0 18 1;
#X connect 34 0 38 0;
#X connect 34 1 36 0;
#X connect 35 0 39 0;
#X connect 36 0 31 0;
#X connect 37 0 35 1;
#X connect 38 0 35 0;
#X connect 39 0 33 0;
#X connect 40 0 3 0;
#X connect 40 0 16 0;
#X connect 40 0 24 0;
#X connect 40 0 17 0;
#X connect 40 0 46 0;
#X connect 41 0 42 0;
#X connect 42 0 7 1;
#X connect 43 0 42 1;
#X connect 44 0 11 0;
#X connect 45 0 25 0;
#X connect 46 0 14 0;
#X connect 47 0 46 1;
#X connect 48 0 46 1;
#X connect 49 0 26 0;
