#N canvas 70 5 1270 455 10;
#X obj 108 178 f;
#X floatatom 107 202 5 0 0 0 - - -;
#X floatatom 170 160 5 0 0 0 - - -;
#X obj 80 -48 tgl 15 0 empty empty empty 17 7 0 10 -262144 -1 -1 0
1;
#X obj 143 178 +;
#X msg 170 130 -1;
#X msg 203 127 1;
#X obj 164 22 random 100;
#X obj 167 47 / 100;
#X obj 167 72 > 0.5;
#X obj 166 101 select 1;
#X obj 90 5 t b b b;
#X floatatom 114 115 5 0 0 0 - - -;
#X msg 113 76 60;
#N canvas 0 0 450 300 (subpatch) 0;
#X array notes 32 float 3;
#A 0 50 51 50 49 50 49 50 51 52 51 50 49 48 49 50 49 48 47 46 45 46
47 48 47 46 47 48 47 46 47 46 51;
#X coords 0 127 32 0 200 140 1;
#X restore 243 -32 graph;
#X obj 34 57 f;
#X obj 66 58 + 1;
#X obj 8 220 tabwrite notes;
#X obj 38 94 mod 32;
#X msg 36 9 0;
#X obj 828 231 dac~;
#X obj 510 96 metro;
#X obj 509 -1 t b b;
#X obj 571 16 hsl 128 15 1 320 0 0 empty empty empty -2 -8 0 10 -262144
-1 -1 9516 1;
#X floatatom 568 36 5 0 0 0 - - -;
#X obj 568 79 expr 60000 / $f1;
#X obj 568 57 div;
#X obj 510 236 phasor~;
#X obj 510 122 f;
#X obj 546 123 + 1;
#X obj 510 216 mtof;
#X obj 827 116 *~;
#X obj 855 100 line~;
#X msg 855 77 \$1 50;
#X obj 858 57 hsl 128 15 0 1 0 0 empty empty empty -2 -8 0 10 -262144
-1 -1 5800 1;
#X obj 855 10 loadbang;
#X msg 855 34 0.2;
#X obj 510 187 tabread notes;
#X msg 481 76 0;
#X obj 452 121 == 32;
#X obj 455 146 select 1;
#X obj 509 256 -~ 0.5;
#X obj 828 -12 r~ final;
#X obj 508 355 s~ final;
#X obj 567 247 phasor~;
#X obj 566 268 -~ 0.5;
#X obj 567 227 mtof;
#X obj 567 207 + 3;
#X obj 627 247 phasor~;
#X obj 626 268 -~ 0.5;
#X obj 627 227 mtof;
#X obj 565 316 +~;
#X obj 509 333 +~;
#X obj 627 207 + 7;
#X obj 566 288 *~ 0.25;
#X obj 626 288 *~ 0.25;
#X obj 509 277 *~ 0.5;
#X obj 850 133 hsl 60 15 0 1 0 0 empty empty empty -2 -8 0 10 -262144
-1 -1 5900 1;
#X msg 847 149 roomsize \$1;
#X obj 827 199 freeverb~;
#X obj 941 126 knob 32 32 0 1 0 0 empty empty empty 0 -8 0 8 -262144
-1 -1 0 1;
#X msg 922 182 wet \$1;
#X msg 972 182 dry \$1;
#X obj 974 162 expr 1 - $f1;
#X obj 508 -32 tgl 15 0 empty empty pause/play 17 7 0 10 -262144 -1
-1 0 1;
#X obj 88 -29 metro;
#X obj 12 178 select 1;
#X msg 43 -50 0;
#X floatatom 532 157 5 0 0 0 - - -;
#X obj 289 268 tgl 15 0 empty empty empty 17 7 0 10 -262144 -1 -1 1
1;
#X msg 329 231 1;
#X msg 289 227 0;
#X obj 7 148 == 31;
#X msg 126 49 50;
#X connect 0 0 1 0;
#X connect 0 0 4 0;
#X connect 1 0 17 0;
#X connect 2 0 4 1;
#X connect 3 0 65 0;
#X connect 4 0 0 1;
#X connect 5 0 2 0;
#X connect 6 0 2 0;
#X connect 7 0 8 0;
#X connect 8 0 9 0;
#X connect 9 0 10 0;
#X connect 10 0 5 0;
#X connect 10 1 6 0;
#X connect 11 0 0 0;
#X connect 11 0 15 0;
#X connect 11 1 7 0;
#X connect 12 0 0 0;
#X connect 13 0 12 0;
#X connect 15 0 16 0;
#X connect 15 0 18 0;
#X connect 16 0 15 1;
#X connect 18 0 17 1;
#X connect 18 0 72 0;
#X connect 19 0 15 0;
#X connect 21 0 28 0;
#X connect 22 0 21 0;
#X connect 22 0 38 0;
#X connect 22 1 23 0;
#X connect 23 0 24 0;
#X connect 24 0 26 0;
#X connect 25 0 21 1;
#X connect 26 0 25 0;
#X connect 27 0 41 0;
#X connect 28 0 29 0;
#X connect 28 0 37 0;
#X connect 28 0 39 0;
#X connect 28 0 68 0;
#X connect 29 0 28 1;
#X connect 30 0 27 0;
#X connect 31 0 59 0;
#X connect 32 0 31 1;
#X connect 33 0 32 0;
#X connect 34 0 33 0;
#X connect 35 0 36 0;
#X connect 36 0 34 0;
#X connect 37 0 30 0;
#X connect 37 0 47 0;
#X connect 37 0 53 0;
#X connect 38 0 28 0;
#X connect 39 0 40 0;
#X connect 40 0 38 0;
#X connect 41 0 56 0;
#X connect 42 0 31 0;
#X connect 44 0 45 0;
#X connect 45 0 54 0;
#X connect 46 0 44 0;
#X connect 47 0 46 0;
#X connect 48 0 49 0;
#X connect 49 0 55 0;
#X connect 50 0 48 0;
#X connect 51 0 52 1;
#X connect 52 0 43 0;
#X connect 53 0 50 0;
#X connect 54 0 51 0;
#X connect 55 0 51 1;
#X connect 56 0 52 0;
#X connect 57 0 58 0;
#X connect 58 0 59 0;
#X connect 59 0 20 0;
#X connect 59 1 20 1;
#X connect 60 0 63 0;
#X connect 60 0 61 0;
#X connect 61 0 59 0;
#X connect 62 0 59 0;
#X connect 63 0 62 0;
#X connect 64 0 22 0;
#X connect 65 0 11 0;
#X connect 66 0 67 0;
#X connect 67 0 3 0;
#X connect 70 0 69 0;
#X connect 71 0 69 0;
#X connect 72 0 66 0;
#X connect 73 0 12 0;
