#N canvas 13 32 634 505 10;
#X floatatom 9 50 5 0 0 0 - - -;
#X obj 9 9 ctlin;
#X floatatom 22 37 5 0 0 0 - - -;
#X floatatom 36 24 5 0 0 0 - - -;
#X obj 439 29 bng 15 250 50 0 empty empty empty 17 7 0 10 -262144 -1
-1;
#X obj 439 47 openpanel;
#N canvas 0 0 450 300 (subpatch) 0;
#X array array 580436 float 2;
#X coords 0 1 580436 -1 200 80 1;
#X restore 197 10 graph;
#X obj 439 96 soundfiler;
#X obj 202 310 expr 44100 / $f1;
#X obj 75 3 tgl 30 0 empty empty empty 17 7 0 10 -260097 -1 -1 1 1
;
#X msg 75 36 \; pd dsp \$1;
#X obj 439 135 s size;
#X obj 12 142 r~ sig;
#X obj 12 199 *~;
#X obj 12 352 dac~;
#X obj 49 200 ctlin 14;
#X obj 49 219 mtof;
#X obj 27 160 r toggle;
#X obj 203 410 tabread~ array;
#X obj 203 389 *~;
#X obj 202 348 phasor~;
#X obj 203 433 s~ sig;
#X obj 202 274 r size;
#X obj 218 369 r size;
#X obj 241 328 r pos;
#X floatatom 252 349 5 0 0 0 - - -;
#X floatatom 207 293 6 0 0 0 - - -;
#X obj 429 282 r~ sig;
#X obj 429 307 env~;
#X obj 429 329 - 100;
#X obj 430 352 vu 15 120 empty empty -1 -8 0 10 -66577 -1 1 0;
#X obj 30 180 hsl 40 15 0 1 0 0 empty empty empty -2 -8 0 10 -262144
-1 -1 0 1;
#N canvas 0 0 450 354 buttons 0;
#X obj 14 5 ctlin 33;
#X obj 14 47 bng 15 250 50 0 empty empty empty 17 7 0 10 -262144 -1
-1;
#X obj 71 47 bng 15 250 50 0 empty empty empty 17 7 0 10 -262144 -1
-1;
#X obj 14 26 select 127;
#X msg 14 77 0;
#X obj 14 97 s pos;
#X obj 52 98 s toggle;
#X msg 44 77 1;
#X msg 71 77 0;
#X obj 114 47 bng 15 250 50 0 empty empty empty 17 7 0 10 -262144 -1
-1;
#X obj 171 47 bng 15 250 50 0 empty empty empty 17 7 0 10 -262144 -1
-1;
#X obj 114 26 select 127;
#X obj 114 97 s pos;
#X obj 152 98 s toggle;
#X msg 144 77 1;
#X msg 171 77 0;
#X msg 114 77 0.11;
#X obj 114 5 ctlin 34;
#X obj 214 47 bng 15 250 50 0 empty empty empty 17 7 0 10 -262144 -1
-1;
#X obj 271 47 bng 15 250 50 0 empty empty empty 17 7 0 10 -262144 -1
-1;
#X obj 214 26 select 127;
#X obj 214 97 s pos;
#X obj 252 98 s toggle;
#X msg 244 77 1;
#X msg 271 77 0;
#X obj 314 47 bng 15 250 50 0 empty empty empty 17 7 0 10 -262144 -1
-1;
#X obj 371 47 bng 15 250 50 0 empty empty empty 17 7 0 10 -262144 -1
-1;
#X obj 314 26 select 127;
#X obj 314 97 s pos;
#X obj 352 98 s toggle;
#X msg 344 77 1;
#X msg 371 77 0;
#X msg 214 77 0.22;
#X msg 314 77 0.33;
#X obj 14 158 bng 15 250 50 0 empty empty empty 17 7 0 10 -262144 -1
-1;
#X obj 71 158 bng 15 250 50 0 empty empty empty 17 7 0 10 -262144 -1
-1;
#X obj 14 137 select 127;
#X obj 14 208 s pos;
#X obj 52 209 s toggle;
#X msg 44 188 1;
#X msg 71 188 0;
#X obj 114 158 bng 15 250 50 0 empty empty empty 17 7 0 10 -262144
-1 -1;
#X obj 171 158 bng 15 250 50 0 empty empty empty 17 7 0 10 -262144
-1 -1;
#X obj 114 137 select 127;
#X obj 114 208 s pos;
#X obj 152 209 s toggle;
#X msg 144 188 1;
#X msg 171 188 0;
#X obj 214 158 bng 15 250 50 0 empty empty empty 17 7 0 10 -262144
-1 -1;
#X obj 271 158 bng 15 250 50 0 empty empty empty 17 7 0 10 -262144
-1 -1;
#X obj 214 137 select 127;
#X obj 214 208 s pos;
#X obj 252 209 s toggle;
#X msg 244 188 1;
#X msg 271 188 0;
#X obj 314 158 bng 15 250 50 0 empty empty empty 17 7 0 10 -262144
-1 -1;
#X obj 371 158 bng 15 250 50 0 empty empty empty 17 7 0 10 -262144
-1 -1;
#X obj 314 137 select 127;
#X obj 314 208 s pos;
#X obj 352 209 s toggle;
#X msg 344 188 1;
#X msg 371 188 0;
#X msg 14 188 0.44;
#X msg 114 188 0.55;
#X msg 214 188 0.66;
#X msg 314 188 0.77;
#X obj 14 268 bng 15 250 50 0 empty empty empty 17 7 0 10 -262144 -1
-1;
#X obj 71 268 bng 15 250 50 0 empty empty empty 17 7 0 10 -262144 -1
-1;
#X obj 14 247 select 127;
#X obj 14 318 s pos;
#X obj 52 319 s toggle;
#X msg 44 298 1;
#X msg 71 298 0;
#X msg 14 298 0.88;
#X obj 214 5 ctlin 35;
#X obj 314 5 ctlin 36;
#X obj 14 116 ctlin 37;
#X obj 114 116 ctlin 38;
#X obj 214 116 ctlin 39;
#X obj 314 116 ctlin 40;
#X obj 14 226 ctlin 41;
#X connect 0 0 3 0;
#X connect 1 0 4 0;
#X connect 1 0 7 0;
#X connect 2 0 8 0;
#X connect 3 0 1 0;
#X connect 3 1 2 0;
#X connect 4 0 5 0;
#X connect 7 0 6 0;
#X connect 8 0 6 0;
#X connect 9 0 16 0;
#X connect 9 0 14 0;
#X connect 10 0 15 0;
#X connect 11 0 9 0;
#X connect 11 1 10 0;
#X connect 14 0 13 0;
#X connect 15 0 13 0;
#X connect 16 0 12 0;
#X connect 17 0 11 0;
#X connect 18 0 32 0;
#X connect 18 0 23 0;
#X connect 19 0 24 0;
#X connect 20 0 18 0;
#X connect 20 1 19 0;
#X connect 23 0 22 0;
#X connect 24 0 22 0;
#X connect 25 0 33 0;
#X connect 25 0 30 0;
#X connect 26 0 31 0;
#X connect 27 0 25 0;
#X connect 27 1 26 0;
#X connect 30 0 29 0;
#X connect 31 0 29 0;
#X connect 32 0 21 0;
#X connect 33 0 28 0;
#X connect 34 0 62 0;
#X connect 34 0 39 0;
#X connect 35 0 40 0;
#X connect 36 0 34 0;
#X connect 36 1 35 0;
#X connect 39 0 38 0;
#X connect 40 0 38 0;
#X connect 41 0 63 0;
#X connect 41 0 46 0;
#X connect 42 0 47 0;
#X connect 43 0 41 0;
#X connect 43 1 42 0;
#X connect 46 0 45 0;
#X connect 47 0 45 0;
#X connect 48 0 64 0;
#X connect 48 0 53 0;
#X connect 49 0 54 0;
#X connect 50 0 48 0;
#X connect 50 1 49 0;
#X connect 53 0 52 0;
#X connect 54 0 52 0;
#X connect 55 0 65 0;
#X connect 55 0 60 0;
#X connect 56 0 61 0;
#X connect 57 0 55 0;
#X connect 57 1 56 0;
#X connect 60 0 59 0;
#X connect 61 0 59 0;
#X connect 62 0 37 0;
#X connect 63 0 44 0;
#X connect 64 0 51 0;
#X connect 65 0 58 0;
#X connect 66 0 73 0;
#X connect 66 0 71 0;
#X connect 67 0 72 0;
#X connect 68 0 66 0;
#X connect 68 1 67 0;
#X connect 71 0 70 0;
#X connect 72 0 70 0;
#X connect 73 0 69 0;
#X connect 74 0 20 0;
#X connect 75 0 27 0;
#X connect 76 0 36 0;
#X connect 77 0 43 0;
#X connect 78 0 50 0;
#X connect 79 0 57 0;
#X connect 80 0 68 0;
#X restore 75 69 pd buttons;
#X obj 450 117 f;
#X obj 475 307 env~;
#X obj 475 329 - 100;
#X obj 476 352 vu 15 120 empty empty -1 -8 0 10 -66577 -1 1 0;
#X obj 475 282 r~ sig2;
#X msg 439 66 read -resize \$1 array;
#X obj 439 156 bng 15 250 50 0 empty empty empty 17 7 0 10 -262144
-1 -1;
#X obj 439 174 openpanel;
#X obj 439 223 soundfiler;
#X obj 450 244 f;
#X msg 439 193 read -resize \$1 array2;
#X obj 312 310 expr 44100 / $f1;
#X obj 313 410 tabread~ array;
#X obj 313 389 *~;
#X obj 312 348 phasor~;
#X floatatom 362 349 5 0 0 0 - - -;
#X floatatom 317 293 6 0 0 0 - - -;
#X obj 313 433 s~ sig2;
#X obj 351 328 r pos2;
#X obj 328 369 r size2;
#X obj 312 274 r size2;
#N canvas 0 0 450 300 (subpatch) 0;
#X array array2 580436 float 2;
#X coords 0 1 580436 -1 200 80 1;
#X restore 197 102 graph;
#X obj 28 254 ctlin 2;
#X obj 28 311 vline~;
#X msg 28 292 \$1 50;
#X obj 28 273 / 127;
#N canvas 661 9 450 354 buttons2 0;
#X obj 14 47 bng 15 250 50 0 empty empty empty 17 7 0 10 -262144 -1
-1;
#X obj 71 47 bng 15 250 50 0 empty empty empty 17 7 0 10 -262144 -1
-1;
#X obj 14 26 select 127;
#X msg 14 77 0;
#X msg 44 77 1;
#X msg 71 77 0;
#X obj 114 47 bng 15 250 50 0 empty empty empty 17 7 0 10 -262144 -1
-1;
#X obj 171 47 bng 15 250 50 0 empty empty empty 17 7 0 10 -262144 -1
-1;
#X obj 114 26 select 127;
#X msg 144 77 1;
#X msg 171 77 0;
#X msg 114 77 0.11;
#X obj 214 47 bng 15 250 50 0 empty empty empty 17 7 0 10 -262144 -1
-1;
#X obj 271 47 bng 15 250 50 0 empty empty empty 17 7 0 10 -262144 -1
-1;
#X obj 214 26 select 127;
#X msg 244 77 1;
#X msg 271 77 0;
#X obj 314 47 bng 15 250 50 0 empty empty empty 17 7 0 10 -262144 -1
-1;
#X obj 371 47 bng 15 250 50 0 empty empty empty 17 7 0 10 -262144 -1
-1;
#X obj 314 26 select 127;
#X msg 344 77 1;
#X msg 371 77 0;
#X msg 214 77 0.22;
#X msg 314 77 0.33;
#X obj 14 158 bng 15 250 50 0 empty empty empty 17 7 0 10 -262144 -1
-1;
#X obj 71 158 bng 15 250 50 0 empty empty empty 17 7 0 10 -262144 -1
-1;
#X obj 14 137 select 127;
#X msg 44 188 1;
#X msg 71 188 0;
#X obj 114 158 bng 15 250 50 0 empty empty empty 17 7 0 10 -262144
-1 -1;
#X obj 171 158 bng 15 250 50 0 empty empty empty 17 7 0 10 -262144
-1 -1;
#X obj 114 137 select 127;
#X msg 144 188 1;
#X msg 171 188 0;
#X obj 214 158 bng 15 250 50 0 empty empty empty 17 7 0 10 -262144
-1 -1;
#X obj 271 158 bng 15 250 50 0 empty empty empty 17 7 0 10 -262144
-1 -1;
#X obj 214 137 select 127;
#X msg 244 188 1;
#X msg 271 188 0;
#X obj 314 158 bng 15 250 50 0 empty empty empty 17 7 0 10 -262144
-1 -1;
#X obj 371 158 bng 15 250 50 0 empty empty empty 17 7 0 10 -262144
-1 -1;
#X obj 314 137 select 127;
#X msg 344 188 1;
#X msg 371 188 0;
#X msg 14 188 0.44;
#X msg 114 188 0.55;
#X msg 214 188 0.66;
#X msg 314 188 0.77;
#X obj 14 268 bng 15 250 50 0 empty empty empty 17 7 0 10 -262144 -1
-1;
#X obj 71 268 bng 15 250 50 0 empty empty empty 17 7 0 10 -262144 -1
-1;
#X obj 14 247 select 127;
#X msg 44 298 1;
#X msg 71 298 0;
#X msg 14 298 0.88;
#X obj 14 5 ctlin 23;
#X obj 114 5 ctlin 24;
#X obj 214 5 ctlin 25;
#X obj 314 5 ctlin 26;
#X obj 14 116 ctlin 27;
#X obj 114 116 ctlin 28;
#X obj 214 116 ctlin 29;
#X obj 314 116 ctlin 30;
#X obj 14 226 ctlin 31;
#X obj 14 97 s pos2;
#X obj 114 97 s pos2;
#X obj 214 97 s pos2;
#X obj 314 97 s pos2;
#X obj 14 208 s pos2;
#X obj 114 208 s pos2;
#X obj 214 208 s pos2;
#X obj 314 208 s pos2;
#X obj 14 318 s pos2;
#X obj 52 98 s toggle2;
#X obj 152 98 s toggle2;
#X obj 252 98 s toggle2;
#X obj 352 98 s toggle2;
#X obj 52 209 s toggle2;
#X obj 152 209 s toggle2;
#X obj 252 209 s toggle2;
#X obj 352 209 s toggle2;
#X obj 52 319 s toggle2;
#X connect 0 0 3 0;
#X connect 0 0 4 0;
#X connect 1 0 5 0;
#X connect 2 0 0 0;
#X connect 2 1 1 0;
#X connect 3 0 63 0;
#X connect 4 0 72 0;
#X connect 5 0 72 0;
#X connect 6 0 11 0;
#X connect 6 0 9 0;
#X connect 7 0 10 0;
#X connect 8 0 6 0;
#X connect 8 1 7 0;
#X connect 9 0 73 0;
#X connect 10 0 73 0;
#X connect 11 0 64 0;
#X connect 12 0 22 0;
#X connect 12 0 15 0;
#X connect 13 0 16 0;
#X connect 14 0 12 0;
#X connect 14 1 13 0;
#X connect 15 0 74 0;
#X connect 16 0 74 0;
#X connect 17 0 23 0;
#X connect 17 0 20 0;
#X connect 18 0 21 0;
#X connect 19 0 17 0;
#X connect 19 1 18 0;
#X connect 20 0 75 0;
#X connect 21 0 75 0;
#X connect 22 0 65 0;
#X connect 23 0 66 0;
#X connect 24 0 44 0;
#X connect 24 0 27 0;
#X connect 25 0 28 0;
#X connect 26 0 24 0;
#X connect 26 1 25 0;
#X connect 27 0 76 0;
#X connect 28 0 76 0;
#X connect 29 0 45 0;
#X connect 29 0 32 0;
#X connect 30 0 33 0;
#X connect 31 0 29 0;
#X connect 31 1 30 0;
#X connect 32 0 77 0;
#X connect 33 0 77 0;
#X connect 34 0 46 0;
#X connect 34 0 37 0;
#X connect 35 0 38 0;
#X connect 36 0 34 0;
#X connect 36 1 35 0;
#X connect 37 0 78 0;
#X connect 38 0 78 0;
#X connect 39 0 47 0;
#X connect 39 0 42 0;
#X connect 40 0 43 0;
#X connect 41 0 39 0;
#X connect 41 1 40 0;
#X connect 42 0 79 0;
#X connect 43 0 79 0;
#X connect 44 0 67 0;
#X connect 45 0 68 0;
#X connect 46 0 69 0;
#X connect 47 0 70 0;
#X connect 48 0 53 0;
#X connect 48 0 51 0;
#X connect 49 0 52 0;
#X connect 50 0 48 0;
#X connect 50 1 49 0;
#X connect 51 0 80 0;
#X connect 52 0 80 0;
#X connect 53 0 71 0;
#X connect 54 0 2 0;
#X connect 55 0 8 0;
#X connect 56 0 14 0;
#X connect 57 0 19 0;
#X connect 58 0 26 0;
#X connect 59 0 31 0;
#X connect 60 0 36 0;
#X connect 61 0 41 0;
#X connect 62 0 50 0;
#X restore 75 89 pd buttons2;
#X obj 112 199 *~;
#X obj 112 352 dac~;
#X obj 144 218 mtof;
#X obj 130 180 hsl 40 15 0 1 0 0 empty empty empty -2 -8 0 10 -262144
-1 -1 0 1;
#X obj 112 334 *~;
#X obj 112 235 hip~;
#X obj 128 311 vline~;
#X msg 128 292 \$1 50;
#X obj 128 273 / 127;
#X obj 112 142 r~ sig2;
#X obj 128 254 ctlin 3;
#X obj 127 160 r toggle2;
#X obj 439 262 s size2;
#X obj 144 199 ctlin 15;
#N canvas 468 209 450 300 keys 1;
#X obj 41 12 key;
#X obj 111 13 keyup;
#X obj 111 64 select 32;
#X obj 41 64 select 32;
#X obj 41 137 s pos;
#X msg 79 115 1;
#X obj 79 137 s toggle;
#X msg 111 115 0;
#X msg 41 115 0;
#X obj 14 88 bng 15 250 50 0 empty empty empty 17 7 0 10 -262144 -1
-1;
#X obj 131 92 bng 15 250 50 0 empty empty empty 17 7 0 10 -262144 -1
-1;
#X obj 43 37 change;
#X msg 123 36 0;
#X connect 0 0 11 0;
#X connect 1 0 2 0;
#X connect 2 0 7 0;
#X connect 2 0 10 0;
#X connect 2 0 12 0;
#X connect 3 0 8 0;
#X connect 3 0 5 0;
#X connect 3 0 9 0;
#X connect 5 0 6 0;
#X connect 7 0 6 0;
#X connect 8 0 4 0;
#X connect 11 0 3 0;
#X connect 12 0 11 0;
#X restore 74 110 pd keys;
#X obj 12 334 *~ 1;
#X connect 1 0 0 0;
#X connect 1 1 2 0;
#X connect 1 2 3 0;
#X connect 4 0 5 0;
#X connect 5 0 38 0;
#X connect 7 0 11 0;
#X connect 7 0 33 1;
#X connect 8 0 20 0;
#X connect 9 0 10 0;
#X connect 12 0 13 0;
#X connect 13 0 75 0;
#X connect 15 0 16 0;
#X connect 17 0 31 0;
#X connect 18 0 21 0;
#X connect 19 0 18 0;
#X connect 20 0 19 0;
#X connect 22 0 8 0;
#X connect 22 0 26 0;
#X connect 23 0 19 1;
#X connect 24 0 20 1;
#X connect 24 0 25 0;
#X connect 27 0 28 0;
#X connect 28 0 29 0;
#X connect 29 0 30 0;
#X connect 31 0 13 1;
#X connect 33 0 11 0;
#X connect 34 0 35 0;
#X connect 35 0 36 0;
#X connect 37 0 34 0;
#X connect 38 0 7 0;
#X connect 39 0 40 0;
#X connect 40 0 43 0;
#X connect 41 0 42 1;
#X connect 41 0 72 0;
#X connect 42 0 72 0;
#X connect 43 0 41 0;
#X connect 44 0 47 0;
#X connect 45 0 50 0;
#X connect 46 0 45 0;
#X connect 47 0 46 0;
#X connect 51 0 47 1;
#X connect 51 0 48 0;
#X connect 52 0 46 1;
#X connect 53 0 44 0;
#X connect 53 0 49 0;
#X connect 55 0 58 0;
#X connect 56 0 75 1;
#X connect 57 0 56 0;
#X connect 58 0 57 0;
#X connect 60 0 65 0;
#X connect 62 0 65 1;
#X connect 63 0 60 1;
#X connect 64 0 61 0;
#X connect 64 0 61 1;
#X connect 65 0 64 0;
#X connect 66 0 64 1;
#X connect 67 0 66 0;
#X connect 68 0 67 0;
#X connect 69 0 60 0;
#X connect 70 0 68 0;
#X connect 71 0 63 0;
#X connect 73 0 62 0;
#X connect 75 0 14 0;
#X connect 75 0 14 1;
