#N canvas 107 239 520 373 10;
#X obj 366 143 monitor;
#X obj 9 8 oscillator;
#X obj 9 -11 mtof;
#X obj 9 93 volume;
#X obj 69 -11 mtof;
#X obj 69 8 oscillator;
#X obj 129 8 oscillator;
#X obj 129 -11 mtof;
#X obj 129 -30 + 7;
#N canvas 0 0 450 300 (subpatch) 0;
#X array osc 1000 float 0;
#X coords 0 1 999 -1 80 40 1;
#X restore 277 159 graph;
#X obj 277 228 metro 100;
#X obj 277 205 tgl 15 0 empty empty empty 17 7 0 10 -262144 -1 -1 1
1;
#X obj 277 247 tabwrite~ osc;
#X obj 69 -30 + 3;
#X obj 205 -37 metronome;
#X obj 9 -47 r midi;
#X obj 205 35 counter 31;
#N canvas 39 151 758 513 (subpatch) 0;
#X array notes 16 float 3;
#A 0 8.04939 5.84939 9.62082 9.14939 6.94939 5.22082 8.04939 6.94939
5.84939 7.42082 6.94939 4.74939 6.32082 4.12082 7.42082 9.46367;
#X coords 0 12 15 1 140 70 1;
#X restore 310 -40 graph;
#X obj 205 62 tabread notes;
#X obj 205 122 change;
#X obj 205 143 s midi;
#X msg 309 36 \; notes 0 1 1 1 1 1 1;
#X obj 205 82 int;
#X obj 319 78 hsl 30 15 0 8 0 0 empty empty octave -2 -8 0 10 -262144
-1 -1 1802 1;
#X obj 235 100 * 12;
#X obj 205 102 +;
#X floatatom 275 123 5 0 0 0 - - -;
#X obj 75 123 ar;
#X obj 8 287 throw~ l;
#X obj 366 77 catch~ l;
#X obj 8 194 *~;
#X obj 75 99 r midi;
#X obj 182 168 lfo;
#X obj 8 225 *~;
#X obj 235 81 int;
#X msg 262 18 max 14;
#X obj 87 238 filter;
#X obj 182 259 sig~;
#X floatatom 189 228 5 0 0 0 - - -;
#X floatatom 238 256 5 0 0 0 - - -;
#X connect 1 0 3 0;
#X connect 2 0 1 0;
#X connect 3 0 30 0;
#X connect 4 0 5 0;
#X connect 5 0 3 0;
#X connect 6 0 3 0;
#X connect 7 0 6 0;
#X connect 8 0 7 0;
#X connect 10 0 12 0;
#X connect 11 0 10 0;
#X connect 13 0 4 0;
#X connect 14 0 16 0;
#X connect 15 0 2 0;
#X connect 15 0 13 0;
#X connect 15 0 8 0;
#X connect 16 0 18 0;
#X connect 18 0 22 0;
#X connect 19 0 20 0;
#X connect 22 0 25 0;
#X connect 23 0 26 0;
#X connect 23 0 34 0;
#X connect 24 0 25 1;
#X connect 25 0 19 0;
#X connect 27 0 30 1;
#X connect 29 0 12 0;
#X connect 29 0 0 0;
#X connect 30 0 33 0;
#X connect 31 0 27 0;
#X connect 32 0 33 1;
#X connect 33 0 36 0;
#X connect 34 0 24 0;
#X connect 35 0 16 0;
#X connect 36 0 28 0;
#X connect 37 0 36 1;
#X connect 38 0 37 0;
#X connect 39 0 36 2;
