#N canvas 4 377 450 300 10;
#X obj 32 136 saw~;
#X obj 32 117 mtof;
#X obj 32 31 notein 1;
#X obj 77 77 select 0;
#X obj 35 174 *~;
#X obj 77 56 / 127;
#X obj 77 121 vline~;
#X obj 37 201 *~;
#X obj 88 146 hsl 128 15 0 127 0 0 empty empty empty -2 -8 0 10 -262144
-1 -1 6000 1;
#X obj 84 201 vline~;
#X msg 85 166 \$1 50;
#X obj 37 222 dac~;
#X floatatom -4 74 5 0 0 0 - - -;
#X msg 77 96 0 50;
#X msg 122 96 \$1 50;
#X connect 0 0 4 0;
#X connect 1 0 0 0;
#X connect 2 0 1 0;
#X connect 2 0 12 0;
#X connect 2 1 5 0;
#X connect 3 0 13 0;
#X connect 3 1 14 0;
#X connect 4 0 7 0;
#X connect 5 0 3 0;
#X connect 6 0 4 1;
#X connect 7 0 11 0;
#X connect 7 0 11 1;
#X connect 8 0 10 0;
#X connect 9 0 7 1;
#X connect 10 0 9 0;
#X connect 13 0 6 0;
#X connect 14 0 6 0;
