#N canvas 715 65 526 287 10;
#N canvas 0 0 450 300 (subpatch) 0;
#X array row1L 758784 float 2;
#X coords 0 1 758784 -1 200 25 1;
#X restore 12 27 graph;
#N canvas 0 0 450 300 (subpatch) 0;
#X array row1R 758784 float 2;
#X coords 0 1 758784 -1 200 25 1;
#X restore 13 67 graph;
#N canvas 0 0 450 300 (subpatch) 0;
#X array row2L 618496 float 2;
#X coords 0 1 618496 -1 200 25 1;
#X restore 12 117 graph;
#N canvas 0 0 450 300 (subpatch) 0;
#X array row2R 618496 float 2;
#X coords 0 1 618496 -1 200 25 1;
#X restore 13 157 graph;
#N canvas 659 92 433 460 row1 0;
#X obj 10 10 bng 30 250 50 0 empty empty empty 17 7 0 10 -262144 -1
-1;
#X obj 10 43 openpanel;
#X msg 10 64 read -resize \$1 row1L row1R;
#X obj 10 83 soundfiler;
#X msg 67 124 \; row1L normalize 1;
#X msg 66 158 \; row1R normalize 1;
#X obj 10 282 phasor~;
#X obj 21 298 s~ phasor1-pos;
#X obj 11 332 *~;
#X obj 66 265 r phase1;
#X obj 12 351 tabread4~ row1L;
#X obj 11 372 throw~ sig1L;
#X obj 111 372 throw~ sig1R;
#X msg 123 300 0;
#X msg 153 300 0.125;
#X msg 193 300 0.25;
#X msg 226 300 0.375;
#X msg 266 300 0.5;
#X msg 292 300 0.625;
#X msg 332 300 0.75;
#X msg 366 300 0.875;
#X obj 123 273 select 0 1 2 3 4 5 6 7;
#X obj 123 317 s phase1;
#X obj 123 233 notein;
#X obj 123 253 spigot;
#X obj 264 30 r~ phasor1-pos;
#X obj 263 56 snapshot~ 10;
#X obj 354 39 metro 10;
#X obj 354 15 loadbang;
#X obj 263 75 * 8;
#X obj 263 97 int;
#X obj 263 127 change;
#X obj 263 205 noteout;
#X floatatom 356 182 5 0 1 0 - - -;
#X obj 294 177 f;
#X obj 263 146 t b f b;
#X msg 319 177 60;
#X msg 263 177 0;
#X msg 356 150 1;
#X obj 356 122 loadbang;
#X obj 112 350 tabread4~ row1R;
#X obj 10 110 nbx 10 14 -1e+037 1e+037 0 0 empty empty empty 0 -8 0
10 -262144 -1 -1 758784 256;
#X obj 122 100 s size;
#X floatatom 222 70 5 0 0 0 - - -;
#X floatatom 29 235 5 0 0 0 - - -;
#X obj 47 319 r size;
#X obj 9 211 expr 44100 / $f1;
#X connect 0 0 1 0;
#X connect 1 0 2 0;
#X connect 2 0 3 0;
#X connect 3 0 41 0;
#X connect 3 0 42 0;
#X connect 6 0 7 0;
#X connect 6 0 8 0;
#X connect 8 0 10 0;
#X connect 8 0 40 0;
#X connect 9 0 6 1;
#X connect 10 0 11 0;
#X connect 13 0 22 0;
#X connect 14 0 22 0;
#X connect 15 0 22 0;
#X connect 16 0 22 0;
#X connect 17 0 22 0;
#X connect 18 0 22 0;
#X connect 19 0 22 0;
#X connect 20 0 22 0;
#X connect 21 0 13 0;
#X connect 21 1 14 0;
#X connect 21 2 15 0;
#X connect 21 3 16 0;
#X connect 21 4 17 0;
#X connect 21 5 18 0;
#X connect 21 6 19 0;
#X connect 21 7 20 0;
#X connect 23 0 24 0;
#X connect 23 1 24 1;
#X connect 24 0 21 0;
#X connect 25 0 26 0;
#X connect 26 0 29 0;
#X connect 26 0 43 0;
#X connect 27 0 26 0;
#X connect 28 0 27 0;
#X connect 29 0 30 0;
#X connect 30 0 31 0;
#X connect 31 0 35 0;
#X connect 33 0 32 2;
#X connect 34 0 32 0;
#X connect 35 0 34 0;
#X connect 35 0 37 0;
#X connect 35 1 34 1;
#X connect 35 2 34 0;
#X connect 35 2 36 0;
#X connect 36 0 32 1;
#X connect 37 0 32 1;
#X connect 38 0 33 0;
#X connect 39 0 38 0;
#X connect 40 0 12 0;
#X connect 41 0 4 0;
#X connect 41 0 5 0;
#X connect 41 0 46 0;
#X connect 45 0 8 1;
#X connect 46 0 6 0;
#X connect 46 0 44 0;
#X coords 0 -1 1 1 30 30 2 10 10;
#X restore 226 42 pd row1;
#X obj 272 86 monitor;
#X obj 272 25 catch~ sig1L;
#X obj 406 25 catch~ sig1R;
#X obj 284 52 catch~ sig2L;
#X obj 414 52 catch~ sig2R;
#N canvas 0 0 447 410 row2 1;
#X obj 10 10 bng 30 250 50 0 empty empty empty 17 7 0 10 -262144 -1
-1;
#X obj 10 43 openpanel;
#X obj 10 83 soundfiler;
#X obj 10 282 phasor~;
#X obj 11 332 *~;
#X msg 123 300 0;
#X msg 153 300 0.125;
#X msg 193 300 0.25;
#X msg 226 300 0.375;
#X msg 266 300 0.5;
#X msg 292 300 0.625;
#X msg 332 300 0.75;
#X msg 366 300 0.875;
#X obj 123 233 notein;
#X obj 123 253 spigot;
#X obj 263 49 snapshot~ 10;
#X obj 354 32 metro 10;
#X obj 354 8 loadbang;
#X obj 263 68 * 8;
#X obj 263 117 int;
#X obj 263 137 change;
#X obj 263 215 noteout;
#X floatatom 356 192 5 0 1 0 - - -;
#X obj 294 187 f;
#X obj 263 156 t b f b;
#X msg 319 187 60;
#X msg 263 187 0;
#X msg 356 160 1;
#X obj 356 132 loadbang;
#X obj 10 110 nbx 10 14 -1e+037 1e+037 0 0 empty empty empty 0 -8 0
10 -262144 -1 -1 618496 256;
#X floatatom 222 63 5 0 0 0 - - -;
#X floatatom 29 235 5 0 0 0 - - -;
#X obj 9 211 expr 44100 / $f1;
#X msg 10 64 read -resize \$1 row2L row2R;
#X obj 264 23 r~ phasor2-pos;
#X obj 123 273 select 16 17 18 19 20 21 22 23;
#X obj 123 317 s phase2;
#X obj 66 265 r phase2;
#X msg 67 124 \; row2L normalize 1;
#X msg 66 158 \; row2R normalize 1;
#X obj 12 351 tabread4~ row2L;
#X obj 112 350 tabread4~ row2R;
#X obj 122 100 s size2;
#X obj 47 319 r size2;
#X obj 11 372 throw~ sig2L;
#X obj 111 372 throw~ sig2R;
#X obj 21 298 s~ phasor2-pos;
#X obj 263 91 + 16;
#X floatatom 223 114 5 0 0 0 - - -;
#X connect 0 0 1 0;
#X connect 1 0 33 0;
#X connect 2 0 29 0;
#X connect 2 0 42 0;
#X connect 3 0 4 0;
#X connect 3 0 46 0;
#X connect 4 0 40 0;
#X connect 4 0 41 0;
#X connect 5 0 36 0;
#X connect 6 0 36 0;
#X connect 7 0 36 0;
#X connect 8 0 36 0;
#X connect 9 0 36 0;
#X connect 10 0 36 0;
#X connect 11 0 36 0;
#X connect 12 0 36 0;
#X connect 13 0 14 0;
#X connect 13 1 14 1;
#X connect 14 0 35 0;
#X connect 15 0 18 0;
#X connect 15 0 30 0;
#X connect 16 0 15 0;
#X connect 17 0 16 0;
#X connect 18 0 47 0;
#X connect 19 0 20 0;
#X connect 20 0 24 0;
#X connect 22 0 21 2;
#X connect 23 0 21 0;
#X connect 24 0 23 0;
#X connect 24 0 26 0;
#X connect 24 1 23 1;
#X connect 24 2 23 0;
#X connect 24 2 25 0;
#X connect 25 0 21 1;
#X connect 26 0 21 1;
#X connect 27 0 22 0;
#X connect 28 0 27 0;
#X connect 29 0 38 0;
#X connect 29 0 39 0;
#X connect 29 0 32 0;
#X connect 32 0 3 0;
#X connect 32 0 31 0;
#X connect 33 0 2 0;
#X connect 34 0 15 0;
#X connect 35 0 5 0;
#X connect 35 1 6 0;
#X connect 35 2 7 0;
#X connect 35 3 8 0;
#X connect 35 4 9 0;
#X connect 35 5 10 0;
#X connect 35 6 11 0;
#X connect 35 7 12 0;
#X connect 37 0 3 1;
#X connect 40 0 44 0;
#X connect 41 0 45 0;
#X connect 43 0 4 1;
#X connect 47 0 19 0;
#X connect 47 0 48 0;
#X coords 0 -1 1 1 30 30 2 10 10;
#X restore 222 140 pd row2;
#X connect 6 0 5 0;
#X connect 7 0 5 1;
#X connect 8 0 5 0;
#X connect 9 0 5 1;
