#N canvas 18 279 1200 672 10;
#X obj 451 304 notein;
#X floatatom 451 346 5 0 0 0 - - -;
#X floatatom 506 348 5 0 0 0 - - -;
#X obj 451 460 noteout;
#X obj 815 59 knob 32 32 0 127 0 0 empty \$0-knob-00 empty 0 -8 64
8 -258113 -258113 -1 1025 1;
#X obj 855 59 knob 32 32 0 127 0 0 empty \$0-knob-10 empty 0 -8 64
8 -262144 -1 -1 122 1;
#X obj 895 59 knob 32 32 0 127 0 0 empty \$0-knob-20 empty 0 -8 64
8 -262144 -1 -1 1587 1;
#X obj 935 59 knob 32 32 0 127 0 0 empty \$0-knob-30 empty 0 -8 64
8 -262144 -1 -1 0 1;
#X obj 975 59 knob 32 32 0 127 0 0 empty \$0-knob-40 empty 0 -8 64
8 -262144 -1 -1 0 1;
#X obj 1015 59 knob 32 32 0 127 0 0 empty \$0-knob-50 empty 0 -8 64
8 -262144 -1 -1 0 1;
#X obj 1055 59 knob 32 32 0 127 0 0 empty \$0-knob-60 empty 0 -8 64
8 -262144 -1 -1 0 1;
#X obj 1095 59 knob 32 32 0 127 0 0 empty \$0-knob-70 empty 0 -8 64
8 -262144 -1 -1 0 1;
#X obj 815 99 knob 32 32 0 127 0 0 empty \$0-knob-01 empty 0 -8 64
8 -262144 -1 -1 1025 1;
#X obj 855 99 knob 32 32 0 127 0 0 empty \$0-knob-11 empty 0 -8 64
8 -262144 -1 -1 122 1;
#X obj 895 99 knob 32 32 0 127 0 0 empty \$0-knob-21 empty 0 -8 64
8 -262144 -1 -1 1587 1;
#X obj 935 99 knob 32 32 0 127 0 0 empty \$0-knob-31 empty 0 -8 64
8 -262144 -1 -1 0 1;
#X obj 975 99 knob 32 32 0 127 0 0 empty \$0-knob-41 empty 0 -8 64
8 -262144 -1 -1 0 1;
#X obj 1014 99 knob 32 32 0 127 0 0 empty \$0-knob-51 empty 0 -8 64
8 -262144 -1 -1 0 1;
#X obj 1055 99 knob 32 32 0 127 0 0 empty \$0-knob-61 empty 0 -8 64
8 -262144 -1 -1 0 1;
#X obj 1095 99 knob 32 32 0 127 0 0 empty \$0-knob-71 empty 0 -8 64
8 -262144 -1 -1 0 1;
#X obj 815 138 bng 30 250 50 0 empty empty empty 17 7 0 10 -262144
-1 -1;
#X obj 855 138 bng 30 250 50 0 empty empty empty 17 7 0 10 -262144
-1 -1;
#X obj 895 138 bng 30 250 50 0 empty empty empty 17 7 0 10 -262144
-1 -1;
#X obj 935 138 bng 30 250 50 0 empty empty empty 17 7 0 10 -262144
-1 -1;
#X obj 975 138 bng 30 250 50 0 empty empty empty 17 7 0 10 -262144
-1 -1;
#X obj 1015 138 bng 30 250 50 0 empty empty empty 17 7 0 10 -262144
-1 -1;
#X obj 1055 138 bng 30 250 50 0 empty empty empty 17 7 0 10 -262144
-1 -1;
#X obj 1095 138 bng 30 250 50 0 empty empty empty 17 7 0 10 -262144
-1 -1;
#X obj 676 416 ctlin;
#X floatatom 673 463 5 0 0 0 - - -;
#X floatatom 717 464 5 0 0 0 - - -;
#X obj 506 397 bng 15 250 50 0 empty empty empty 17 7 0 10 -262144
-1 -1;
#X obj 532 397 bng 15 250 50 0 empty empty empty 17 7 0 10 -262144
-1 -1;
#X obj 506 371 route 0;
#X obj 538 420 f;
#X obj 506 420 f 0;
#X obj 677 397 ctlin 48;
#X obj 861 189 hradio 15 1 0 7 \$0-colorselect empty empty 0 -8 0 10
-262144 -1 -1 2;
#X text 823 188 color;
#X text 861 173 r;
#X text 878 172 y;
#X text 894 172 g;
#X text 908 173 o;
#X text 924 173 R;
#X text 938 173 Y;
#X obj 553 277 r \$0-colorselect;
#X msg 582 345 127;
#X msg 553 345 79;
#X msg 610 345 112;
#X obj 451 422 f 0;
#X msg 638 345 27;
#X msg 665 345 73;
#X msg 693 345 26;
#X msg 723 345 125;
#X obj 553 310 route 0 1 2 3 4 5 6;
#X text 955 174 G;
#X obj 99 106 s \$0-knob-00;
#X obj 179 106 s \$0-knob-10;
#X obj 259 106 s \$0-knob-20;
#X obj 339 106 s \$0-knob-30;
#X obj 419 106 s \$0-knob-40;
#X obj 499 106 s \$0-knob-50;
#X obj 579 106 s \$0-knob-60;
#X obj 659 106 s \$0-knob-70;
#X obj 99 85 ctlin 21;
#X obj 179 85 ctlin 22;
#X obj 259 85 ctlin 23;
#X obj 339 85 ctlin 24;
#X obj 419 85 ctlin 25;
#X obj 499 85 ctlin 26;
#X obj 579 85 ctlin 27;
#X obj 659 85 ctlin 28;
#X obj 99 135 ctlin 21;
#X obj 179 135 ctlin 22;
#X obj 259 135 ctlin 23;
#X obj 339 135 ctlin 24;
#X obj 419 135 ctlin 25;
#X obj 499 135 ctlin 26;
#X obj 579 135 ctlin 27;
#X obj 659 135 ctlin 28;
#X obj 99 156 s \$0-knob-01;
#X obj 179 156 s \$0-knob-11;
#X obj 259 156 s \$0-knob-21;
#X obj 339 156 s \$0-knob-31;
#X obj 419 156 s \$0-knob-41;
#X obj 499 156 s \$0-knob-51;
#X obj 579 156 s \$0-knob-61;
#X obj 659 156 s \$0-knob-71;
#X connect 0 0 1 0;
#X connect 0 1 2 0;
#X connect 1 0 49 0;
#X connect 2 0 33 0;
#X connect 28 0 29 0;
#X connect 28 1 30 0;
#X connect 31 0 35 0;
#X connect 32 0 34 0;
#X connect 33 0 31 0;
#X connect 33 1 32 0;
#X connect 34 0 3 1;
#X connect 35 0 3 1;
#X connect 36 0 34 1;
#X connect 45 0 54 0;
#X connect 46 0 34 1;
#X connect 47 0 34 1;
#X connect 49 0 3 0;
#X connect 50 0 34 1;
#X connect 51 0 34 1;
#X connect 52 0 34 1;
#X connect 53 0 34 1;
#X connect 54 0 47 0;
#X connect 54 1 46 0;
#X connect 54 2 48 0;
#X connect 54 3 50 0;
#X connect 54 4 51 0;
#X connect 54 5 52 0;
#X connect 54 6 53 0;
#X connect 64 0 56 0;
#X connect 65 0 57 0;
#X connect 66 0 58 0;
#X connect 67 0 59 0;
#X connect 68 0 60 0;
#X connect 69 0 61 0;
#X connect 70 0 62 0;
#X connect 71 0 63 0;
#X connect 72 0 80 0;
#X connect 73 0 81 0;
#X connect 74 0 82 0;
#X connect 75 0 83 0;
#X connect 76 0 84 0;
#X connect 77 0 85 0;
#X connect 78 0 86 0;
#X connect 79 0 87 0;
#X coords 0 -1 1 1 340 170 1 800 40;
