#N canvas 2561 49 959 1030 10;
#X obj 31 110 vsl 15 80 0 1 0 0 \$0-c1 \$0-c1in empty 0 -9 0 10 -262144
-1 -1 0 1;
#X obj 51 110 vsl 15 80 0 1 0 0 \$0-c2 \$0-c2in empty 0 -9 0 10 -262144
-1 -1 0 1;
#X obj 71 110 vsl 15 80 0 1 0 0 \$0-c3 \$0-c3in empty 0 -9 0 10 -262144
-1 -1 0 1;
#X obj 91 110 vsl 15 80 0 1 0 0 \$0-c4 \$0-c4in empty 0 -9 0 10 -262144
-1 -1 0 1;
#X obj 111 110 vsl 15 80 0 1 0 0 \$0-c5 \$0-c5in empty 0 -9 0 10 -262144
-1 -1 0 1;
#X obj 131 110 vsl 15 80 0 1 0 0 \$0-c6 \$0-c6in empty 0 -9 0 10 -262144
-1 -1 0 1;
#X obj 151 110 vsl 15 80 0 1 0 0 \$0-c7 \$0-c7in empty 0 -9 0 10 -262144
-1 -1 0 1;
#X obj 171 110 vsl 15 80 0 1 0 0 \$0-c8 \$0-c8in empty 0 -9 0 10 -262144
-1 -1 0 1;
#X obj 13 108 bng 15 250 50 0 \$0-reset no empty 17 7 0 10 -262144
-1 -1;
#X obj 216 16 inlet~ freq;
#X obj 18 293 outlet~ sig;
#X obj 216 34 phasor~;
#X obj 18 262 r~ final;
#X obj 215 347 s~ final;
#X obj 215 189 expr~ ($v1 + $v2 + $v3 + $v4 + $v5 + $v6 + $v7 + $v8)
;
#X msg 236 126 \$1 30;
#X obj 236 108 r \$0-c1;
#X obj 216 68 *~ 1;
#X msg 306 126 \$1 30;
#X obj 286 68 *~ 2;
#X obj 306 108 r \$0-c2;
#X msg 376 126 \$1 30;
#X obj 376 108 r \$0-c3;
#X obj 356 68 *~ 3;
#X msg 446 126 \$1 30;
#X obj 426 68 *~ 4;
#X obj 446 108 r \$0-c4;
#X msg 516 126 \$1 30;
#X msg 586 126 \$1 30;
#X msg 656 126 \$1 30;
#X msg 726 126 \$1 30;
#X obj 516 108 r \$0-c5;
#X obj 586 108 r \$0-c6;
#X obj 656 108 r \$0-c7;
#X obj 726 108 r \$0-c8;
#X obj 496 68 *~ 5;
#X obj 566 68 *~ 6;
#X obj 636 68 *~ 7;
#X obj 706 68 *~ 8;
#X obj 230 209 r \$0-c1;
#X obj 215 329 *~;
#X obj 280 209 r \$0-c2;
#X obj 330 209 r \$0-c3;
#X obj 380 209 r \$0-c4;
#X obj 430 209 r \$0-c5;
#X obj 480 209 r \$0-c6;
#X obj 530 209 r \$0-c7;
#X obj 580 209 r \$0-c8;
#X obj 215 163 *~;
#X obj 285 163 *~;
#X obj 236 144 vline~;
#X obj 306 144 vline~;
#X obj 376 144 vline~;
#X obj 355 163 *~;
#X obj 425 163 *~;
#X obj 495 163 *~;
#X obj 565 163 *~;
#X obj 635 163 *~;
#X obj 705 163 *~;
#X obj 231 289 clip~ 1 8;
#X obj 446 144 vline~;
#X obj 516 144 vline~;
#X obj 586 144 vline~;
#X obj 656 144 vline~;
#X obj 726 144 vline~;
#X obj 230 309 expr~ (1/$v1);
#X obj 367 368 s \$0-c1in;
#X msg 297 352 0;
#X obj 297 330 r \$0-reset;
#X obj 427 368 s \$0-c2in;
#X obj 487 368 s \$0-c3in;
#X obj 547 368 s \$0-c4in;
#X obj 607 368 s \$0-c5in;
#X obj 667 368 s \$0-c6in;
#X obj 727 368 s \$0-c7in;
#X obj 787 368 s \$0-c8in;
#X obj 367 347 clip 0 1;
#X obj 427 347 clip 0 1;
#X obj 487 347 clip 0 1;
#X obj 547 347 clip 0 1;
#X obj 607 347 clip 0 1;
#X obj 667 347 clip 0 1;
#X obj 727 347 clip 0 1;
#X obj 787 347 clip 0 1;
#X obj 367 325 inlet c1;
#X obj 427 325 inlet c2;
#X obj 487 325 inlet c3;
#X obj 547 325 inlet c4;
#X obj 607 325 inlet c5;
#X obj 667 325 inlet c6;
#X obj 727 325 inlet c7;
#X obj 787 325 inlet c8;
#X obj 230 270 expr~ ($v1 + $v2 + $v3 + $v4 + $v5 + $v6 + $v7 + $v8)
;
#X obj 230 249 vline~;
#X msg 230 229 \$1 30;
#X obj 280 249 vline~;
#X msg 280 229 \$1 30;
#X obj 330 249 vline~;
#X msg 330 229 \$1 30;
#X obj 380 249 vline~;
#X msg 380 229 \$1 30;
#X obj 430 249 vline~;
#X msg 430 229 \$1 30;
#X obj 480 249 vline~;
#X msg 480 229 \$1 30;
#X obj 530 249 vline~;
#X msg 530 229 \$1 30;
#X obj 580 249 vline~;
#X msg 580 229 \$1 30;
#X obj 215 87 osc~;
#X obj 285 87 osc~;
#X obj 355 87 osc~;
#X obj 425 87 osc~;
#X obj 495 87 osc~;
#X obj 565 87 osc~;
#X obj 635 87 osc~;
#X obj 705 87 osc~;
#X connect 9 0 11 0;
#X connect 11 0 17 0;
#X connect 11 0 19 0;
#X connect 11 0 23 0;
#X connect 11 0 25 0;
#X connect 11 0 35 0;
#X connect 11 0 36 0;
#X connect 11 0 37 0;
#X connect 11 0 38 0;
#X connect 12 0 10 0;
#X connect 14 0 40 0;
#X connect 15 0 50 0;
#X connect 16 0 15 0;
#X connect 17 0 109 0;
#X connect 18 0 51 0;
#X connect 19 0 110 0;
#X connect 20 0 18 0;
#X connect 21 0 52 0;
#X connect 22 0 21 0;
#X connect 23 0 111 0;
#X connect 24 0 60 0;
#X connect 25 0 112 0;
#X connect 26 0 24 0;
#X connect 27 0 61 0;
#X connect 28 0 62 0;
#X connect 29 0 63 0;
#X connect 30 0 64 0;
#X connect 31 0 27 0;
#X connect 32 0 28 0;
#X connect 33 0 29 0;
#X connect 34 0 30 0;
#X connect 35 0 113 0;
#X connect 36 0 114 0;
#X connect 37 0 115 0;
#X connect 38 0 116 0;
#X connect 39 0 94 0;
#X connect 40 0 13 0;
#X connect 41 0 96 0;
#X connect 42 0 98 0;
#X connect 43 0 100 0;
#X connect 44 0 102 0;
#X connect 45 0 104 0;
#X connect 46 0 106 0;
#X connect 47 0 108 0;
#X connect 48 0 14 0;
#X connect 49 0 14 1;
#X connect 50 0 48 1;
#X connect 51 0 49 1;
#X connect 52 0 53 1;
#X connect 53 0 14 2;
#X connect 54 0 14 3;
#X connect 55 0 14 4;
#X connect 56 0 14 5;
#X connect 57 0 14 6;
#X connect 58 0 14 7;
#X connect 59 0 65 0;
#X connect 60 0 54 1;
#X connect 61 0 55 1;
#X connect 62 0 56 1;
#X connect 63 0 57 1;
#X connect 64 0 58 1;
#X connect 65 0 40 1;
#X connect 67 0 66 0;
#X connect 67 0 69 0;
#X connect 67 0 70 0;
#X connect 67 0 71 0;
#X connect 67 0 72 0;
#X connect 67 0 73 0;
#X connect 67 0 74 0;
#X connect 67 0 75 0;
#X connect 68 0 67 0;
#X connect 76 0 66 0;
#X connect 77 0 69 0;
#X connect 78 0 70 0;
#X connect 79 0 71 0;
#X connect 80 0 72 0;
#X connect 81 0 73 0;
#X connect 82 0 74 0;
#X connect 83 0 75 0;
#X connect 84 0 76 0;
#X connect 85 0 77 0;
#X connect 86 0 78 0;
#X connect 87 0 79 0;
#X connect 88 0 80 0;
#X connect 89 0 81 0;
#X connect 90 0 82 0;
#X connect 91 0 83 0;
#X connect 92 0 59 0;
#X connect 93 0 92 0;
#X connect 94 0 93 0;
#X connect 95 0 92 1;
#X connect 96 0 95 0;
#X connect 97 0 92 2;
#X connect 98 0 97 0;
#X connect 99 0 92 3;
#X connect 100 0 99 0;
#X connect 101 0 92 4;
#X connect 102 0 101 0;
#X connect 103 0 92 5;
#X connect 104 0 103 0;
#X connect 105 0 92 6;
#X connect 106 0 105 0;
#X connect 107 0 92 7;
#X connect 108 0 107 0;
#X connect 109 0 48 0;
#X connect 110 0 49 0;
#X connect 111 0 53 0;
#X connect 112 0 54 0;
#X connect 113 0 55 0;
#X connect 114 0 56 0;
#X connect 115 0 57 0;
#X connect 116 0 58 0;
#X coords 0 -1 1 1 180 100 2 10 100;
