#N canvas 1119 591 751 250 10;
#X obj 176 -50 vsl 15 128 -1 1 0 0 c2 col2 c2 0 -9 0 10 -261234 -1
-1 12700 0;
#X obj 161 -50 vsl 15 128 -1 1 0 0 c1 col1 c1 0 -9 0 10 -204786 -1
-1 12700 0;
#X obj 9 -54 hsl 128 40 0 99 0 0 \$0-pitch-out \$0-pitch-control pitch
0 8 0 10 -204800 -258113 -1 2000 1;
#X obj 191 -50 vsl 15 128 -1 1 0 0 c3 col3 c3 0 -9 0 10 -261682 -1
-1 11684 0;
#X obj 206 -50 vsl 15 128 -1 1 0 0 c4 col4 c4 0 -9 0 10 -262130 -1
-1 10795 0;
#X obj 221 -50 vsl 15 128 -1 1 0 0 c5 col5 c5 0 -9 0 10 -204800 -1
-1 5461 0;
#X obj 236 -50 vsl 15 128 -1 1 0 0 c6 col6 c6 0 -9 0 10 -203904 -1
-1 1016 0;
#X obj 251 -50 vsl 15 128 -1 1 0 0 c7 col7 c7 0 -9 0 10 -232576 -1
-1 12700 0;
#X obj 266 -50 vsl 15 128 -1 1 0 0 c8 col8 c8 0 -9 0 10 -228856 -1
-1 6350 0;
#N canvas 163 87 464 393 button-code 0;
#N canvas 44 76 755 253 column1 0;
#X obj 181 15 notein;
#X msg 707 77 0;
#X obj 225 218 noteout;
#X msg 147 154 1;
#X msg 116 156 0;
#X obj 75 78 bng 15 250 50 0 empty empty empty 17 7 0 10 -262144 -1
-1;
#X obj 77 124 t b;
#X obj 401 129 t b;
#X obj 400 84 bng 15 250 50 0 empty empty empty 17 7 0 10 -262144 -1
-1;
#X obj 91 101 bang;
#X obj 414 108 bang;
#X obj 351 84 bng 15 250 50 0 empty empty empty 17 7 0 10 -262144 -1
-1;
#X obj 367 107 bang;
#X obj 353 131 t b b;
#X obj 305 81 bng 15 250 50 0 empty empty empty 17 7 0 10 -262144 -1
-1;
#X obj 321 104 bang;
#X obj 307 128 t b b;
#X obj 262 81 bng 15 250 50 0 empty empty empty 17 7 0 10 -262144 -1
-1;
#X obj 278 104 bang;
#X obj 264 129 t b b;
#X obj 215 79 bng 15 250 50 0 empty empty empty 17 7 0 10 -262144 -1
-1;
#X obj 231 102 bang;
#X obj 217 127 t b b;
#X obj 165 80 bng 15 250 50 0 empty empty empty 17 7 0 10 -262144 -1
-1;
#X obj 181 103 bang;
#X obj 171 128 t b b;
#X obj 115 79 bng 15 250 50 0 empty empty empty 17 7 0 10 -262144 -1
-1;
#X obj 131 102 bang;
#X obj 117 127 t b b;
#X obj 555 133 outlet;
#X obj 179 52 select 0 16 32 48 64 80 96 112;
#X msg 184 154 112;
#X msg 212 154 96;
#X msg 242 154 80;
#X msg 270 154 64;
#X msg 298 154 48;
#X msg 329 154 32;
#X msg 358 155 16;
#X msg 389 155 0;
#X msg 663 77 0.14;
#X msg 620 77 0.28;
#X msg 573 76 0.42;
#X msg 543 78 0.56;
#X msg 509 78 0.7;
#X msg 475 78 0.84;
#X msg 445 78 1;
#X msg 86 157 127;
#X connect 0 0 30 0;
#X connect 1 0 29 0;
#X connect 3 0 2 2;
#X connect 4 0 2 1;
#X connect 5 0 6 0;
#X connect 5 0 9 0;
#X connect 6 0 38 0;
#X connect 6 0 37 0;
#X connect 6 0 36 0;
#X connect 6 0 35 0;
#X connect 6 0 34 0;
#X connect 6 0 33 0;
#X connect 6 0 32 0;
#X connect 6 0 31 0;
#X connect 6 0 3 0;
#X connect 6 0 46 0;
#X connect 7 0 38 0;
#X connect 7 0 37 0;
#X connect 7 0 36 0;
#X connect 7 0 35 0;
#X connect 7 0 34 0;
#X connect 7 0 33 0;
#X connect 7 0 32 0;
#X connect 7 0 31 0;
#X connect 7 0 3 0;
#X connect 7 0 4 0;
#X connect 8 0 7 0;
#X connect 8 0 10 0;
#X connect 9 0 6 0;
#X connect 10 0 7 0;
#X connect 11 0 12 0;
#X connect 11 0 13 0;
#X connect 12 0 13 0;
#X connect 13 0 31 0;
#X connect 13 0 32 0;
#X connect 13 0 3 0;
#X connect 13 0 4 0;
#X connect 13 1 38 0;
#X connect 13 1 37 0;
#X connect 13 1 36 0;
#X connect 13 1 35 0;
#X connect 13 1 34 0;
#X connect 13 1 33 0;
#X connect 13 1 3 0;
#X connect 13 1 46 0;
#X connect 14 0 15 0;
#X connect 14 0 16 0;
#X connect 15 0 16 0;
#X connect 16 0 33 0;
#X connect 16 0 32 0;
#X connect 16 0 31 0;
#X connect 16 0 3 0;
#X connect 16 0 4 0;
#X connect 16 1 3 0;
#X connect 16 1 34 0;
#X connect 16 1 35 0;
#X connect 16 1 36 0;
#X connect 16 1 37 0;
#X connect 16 1 38 0;
#X connect 16 1 46 0;
#X connect 17 0 18 0;
#X connect 17 0 19 0;
#X connect 18 0 19 0;
#X connect 19 0 34 0;
#X connect 19 0 33 0;
#X connect 19 0 32 0;
#X connect 19 0 31 0;
#X connect 19 0 3 0;
#X connect 19 0 4 0;
#X connect 19 1 38 0;
#X connect 19 1 37 0;
#X connect 19 1 36 0;
#X connect 19 1 35 0;
#X connect 19 1 3 0;
#X connect 19 1 46 0;
#X connect 20 0 21 0;
#X connect 20 0 22 0;
#X connect 21 0 22 0;
#X connect 22 0 35 0;
#X connect 22 0 34 0;
#X connect 22 0 33 0;
#X connect 22 0 32 0;
#X connect 22 0 31 0;
#X connect 22 0 3 0;
#X connect 22 0 4 0;
#X connect 22 1 38 0;
#X connect 22 1 37 0;
#X connect 22 1 36 0;
#X connect 22 1 3 0;
#X connect 22 1 46 0;
#X connect 23 0 24 0;
#X connect 23 0 25 0;
#X connect 24 0 25 0;
#X connect 25 0 36 0;
#X connect 25 0 35 0;
#X connect 25 0 34 0;
#X connect 25 0 33 0;
#X connect 25 0 32 0;
#X connect 25 0 31 0;
#X connect 25 0 3 0;
#X connect 25 0 4 0;
#X connect 25 1 38 0;
#X connect 25 1 37 0;
#X connect 25 1 3 0;
#X connect 25 1 46 0;
#X connect 26 0 27 0;
#X connect 26 0 28 0;
#X connect 27 0 28 0;
#X connect 28 0 37 0;
#X connect 28 0 36 0;
#X connect 28 0 35 0;
#X connect 28 0 34 0;
#X connect 28 0 33 0;
#X connect 28 0 32 0;
#X connect 28 0 31 0;
#X connect 28 0 3 0;
#X connect 28 0 4 0;
#X connect 28 1 38 0;
#X connect 28 1 3 0;
#X connect 28 1 46 0;
#X connect 30 0 45 0;
#X connect 30 0 5 0;
#X connect 30 1 44 0;
#X connect 30 1 26 0;
#X connect 30 2 43 0;
#X connect 30 2 23 0;
#X connect 30 3 42 0;
#X connect 30 3 20 0;
#X connect 30 4 41 0;
#X connect 30 4 17 0;
#X connect 30 5 40 0;
#X connect 30 5 14 0;
#X connect 30 6 39 0;
#X connect 30 6 11 0;
#X connect 30 7 1 0;
#X connect 30 7 8 0;
#X connect 31 0 2 0;
#X connect 32 0 2 0;
#X connect 33 0 2 0;
#X connect 34 0 2 0;
#X connect 35 0 2 0;
#X connect 36 0 2 0;
#X connect 37 0 2 0;
#X connect 38 0 2 0;
#X connect 39 0 29 0;
#X connect 40 0 29 0;
#X connect 41 0 29 0;
#X connect 42 0 29 0;
#X connect 43 0 29 0;
#X connect 44 0 29 0;
#X connect 45 0 29 0;
#X connect 46 0 2 1;
#X restore 14 46 pd column1;
#N canvas 32 288 755 316 column2 0;
#X obj 181 15 notein;
#X msg 707 67 0;
#X obj 203 266 noteout;
#X msg 147 194 1;
#X msg 87 195 127;
#X msg 116 196 0;
#X obj 75 108 bng 15 250 50 0 empty empty empty 17 7 0 10 -262144 -1
-1;
#X obj 77 154 t b;
#X obj 401 159 t b;
#X obj 400 114 bng 15 250 50 0 empty empty empty 17 7 0 10 -262144
-1 -1;
#X obj 91 131 bang;
#X obj 414 138 bang;
#X obj 351 114 bng 15 250 50 0 empty empty empty 17 7 0 10 -262144
-1 -1;
#X obj 367 137 bang;
#X obj 353 161 t b b;
#X obj 305 111 bng 15 250 50 0 empty empty empty 17 7 0 10 -262144
-1 -1;
#X obj 321 134 bang;
#X obj 307 158 t b b;
#X obj 262 111 bng 15 250 50 0 empty empty empty 17 7 0 10 -262144
-1 -1;
#X obj 278 134 bang;
#X obj 264 159 t b b;
#X obj 215 109 bng 15 250 50 0 empty empty empty 17 7 0 10 -262144
-1 -1;
#X obj 231 132 bang;
#X obj 217 157 t b b;
#X obj 165 110 bng 15 250 50 0 empty empty empty 17 7 0 10 -262144
-1 -1;
#X obj 181 133 bang;
#X obj 171 158 t b b;
#X obj 115 109 bng 15 250 50 0 empty empty empty 17 7 0 10 -262144
-1 -1;
#X obj 131 132 bang;
#X obj 117 157 t b b;
#X obj 555 123 outlet;
#X obj 179 52 select 1 17 33 49 65 81 97 113;
#X msg 184 194 113;
#X msg 212 194 97;
#X msg 242 196 81;
#X msg 270 194 65;
#X msg 298 194 49;
#X msg 329 194 33;
#X msg 358 195 17;
#X msg 389 195 1;
#X msg 663 67 0.14;
#X msg 620 67 0.28;
#X msg 573 66 0.42;
#X msg 543 68 0.56;
#X msg 509 68 0.7;
#X msg 475 68 0.84;
#X msg 436 71 1;
#X connect 0 0 31 0;
#X connect 1 0 30 0;
#X connect 3 0 2 2;
#X connect 4 0 2 1;
#X connect 5 0 2 1;
#X connect 6 0 7 0;
#X connect 6 0 10 0;
#X connect 7 0 39 0;
#X connect 7 0 38 0;
#X connect 7 0 37 0;
#X connect 7 0 36 0;
#X connect 7 0 35 0;
#X connect 7 0 34 0;
#X connect 7 0 33 0;
#X connect 7 0 32 0;
#X connect 7 0 3 0;
#X connect 7 0 4 0;
#X connect 8 0 39 0;
#X connect 8 0 38 0;
#X connect 8 0 37 0;
#X connect 8 0 36 0;
#X connect 8 0 35 0;
#X connect 8 0 34 0;
#X connect 8 0 33 0;
#X connect 8 0 32 0;
#X connect 8 0 3 0;
#X connect 8 0 5 0;
#X connect 9 0 8 0;
#X connect 9 0 11 0;
#X connect 10 0 7 0;
#X connect 11 0 8 0;
#X connect 12 0 13 0;
#X connect 12 0 14 0;
#X connect 13 0 14 0;
#X connect 14 0 32 0;
#X connect 14 0 33 0;
#X connect 14 0 3 0;
#X connect 14 0 5 0;
#X connect 14 1 39 0;
#X connect 14 1 38 0;
#X connect 14 1 37 0;
#X connect 14 1 36 0;
#X connect 14 1 35 0;
#X connect 14 1 34 0;
#X connect 14 1 3 0;
#X connect 14 1 4 0;
#X connect 15 0 16 0;
#X connect 15 0 17 0;
#X connect 16 0 17 0;
#X connect 17 0 34 0;
#X connect 17 0 33 0;
#X connect 17 0 32 0;
#X connect 17 0 3 0;
#X connect 17 0 5 0;
#X connect 17 1 3 0;
#X connect 17 1 35 0;
#X connect 17 1 36 0;
#X connect 17 1 37 0;
#X connect 17 1 38 0;
#X connect 17 1 39 0;
#X connect 17 1 4 0;
#X connect 18 0 19 0;
#X connect 18 0 20 0;
#X connect 19 0 20 0;
#X connect 20 0 35 0;
#X connect 20 0 34 0;
#X connect 20 0 33 0;
#X connect 20 0 32 0;
#X connect 20 0 3 0;
#X connect 20 0 5 0;
#X connect 20 1 39 0;
#X connect 20 1 38 0;
#X connect 20 1 37 0;
#X connect 20 1 36 0;
#X connect 20 1 3 0;
#X connect 20 1 4 0;
#X connect 21 0 22 0;
#X connect 21 0 23 0;
#X connect 22 0 23 0;
#X connect 23 0 36 0;
#X connect 23 0 35 0;
#X connect 23 0 34 0;
#X connect 23 0 33 0;
#X connect 23 0 32 0;
#X connect 23 0 3 0;
#X connect 23 0 5 0;
#X connect 23 1 39 0;
#X connect 23 1 38 0;
#X connect 23 1 37 0;
#X connect 23 1 3 0;
#X connect 23 1 4 0;
#X connect 24 0 25 0;
#X connect 24 0 26 0;
#X connect 25 0 26 0;
#X connect 26 0 37 0;
#X connect 26 0 36 0;
#X connect 26 0 35 0;
#X connect 26 0 34 0;
#X connect 26 0 33 0;
#X connect 26 0 32 0;
#X connect 26 0 3 0;
#X connect 26 0 5 0;
#X connect 26 1 39 0;
#X connect 26 1 38 0;
#X connect 26 1 3 0;
#X connect 26 1 4 0;
#X connect 27 0 28 0;
#X connect 27 0 29 0;
#X connect 28 0 29 0;
#X connect 29 0 38 0;
#X connect 29 0 37 0;
#X connect 29 0 36 0;
#X connect 29 0 35 0;
#X connect 29 0 34 0;
#X connect 29 0 33 0;
#X connect 29 0 32 0;
#X connect 29 0 3 0;
#X connect 29 0 5 0;
#X connect 29 1 39 0;
#X connect 29 1 3 0;
#X connect 29 1 4 0;
#X connect 31 0 46 0;
#X connect 31 0 6 0;
#X connect 31 1 45 0;
#X connect 31 1 27 0;
#X connect 31 2 44 0;
#X connect 31 2 24 0;
#X connect 31 3 43 0;
#X connect 31 3 21 0;
#X connect 31 4 42 0;
#X connect 31 4 18 0;
#X connect 31 5 41 0;
#X connect 31 5 15 0;
#X connect 31 6 40 0;
#X connect 31 6 12 0;
#X connect 31 7 1 0;
#X connect 31 7 9 0;
#X connect 32 0 2 0;
#X connect 33 0 2 0;
#X connect 34 0 2 0;
#X connect 35 0 2 0;
#X connect 36 0 2 0;
#X connect 37 0 2 0;
#X connect 38 0 2 0;
#X connect 39 0 2 0;
#X connect 40 0 30 0;
#X connect 41 0 30 0;
#X connect 42 0 30 0;
#X connect 43 0 30 0;
#X connect 44 0 30 0;
#X connect 45 0 30 0;
#X connect 46 0 30 0;
#X restore 83 46 pd column2;
#X obj 14 193 s col1;
#X obj 84 194 s col2;
#N canvas 442 71 726 317 column3 0;
#X obj 121 25 notein;
#X msg 647 77 0;
#X obj 162 230 noteout;
#X msg 87 194 1;
#X msg 27 195 127;
#X msg 56 196 0;
#X obj 15 118 bng 15 250 50 0 empty empty empty 17 7 0 10 -262144 -1
-1;
#X obj 17 164 t b;
#X obj 341 169 t b;
#X obj 340 124 bng 15 250 50 0 empty empty empty 17 7 0 10 -262144
-1 -1;
#X obj 31 141 bang;
#X obj 354 148 bang;
#X obj 291 124 bng 15 250 50 0 empty empty empty 17 7 0 10 -262144
-1 -1;
#X obj 307 147 bang;
#X obj 293 171 t b b;
#X obj 245 121 bng 15 250 50 0 empty empty empty 17 7 0 10 -262144
-1 -1;
#X obj 261 144 bang;
#X obj 247 168 t b b;
#X obj 202 121 bng 15 250 50 0 empty empty empty 17 7 0 10 -262144
-1 -1;
#X obj 218 144 bang;
#X obj 204 169 t b b;
#X obj 155 119 bng 15 250 50 0 empty empty empty 17 7 0 10 -262144
-1 -1;
#X obj 171 142 bang;
#X obj 157 167 t b b;
#X obj 105 120 bng 15 250 50 0 empty empty empty 17 7 0 10 -262144
-1 -1;
#X obj 121 143 bang;
#X obj 111 168 t b b;
#X obj 55 119 bng 15 250 50 0 empty empty empty 17 7 0 10 -262144 -1
-1;
#X obj 71 142 bang;
#X obj 57 167 t b b;
#X obj 495 133 outlet;
#X obj 119 62 select 2 18 34 50 66 82 98 114;
#X msg 124 194 114;
#X msg 152 194 98;
#X msg 182 194 82;
#X msg 210 194 66;
#X msg 238 194 50;
#X msg 269 194 34;
#X msg 298 195 18;
#X msg 329 195 2;
#X msg 603 77 0.14;
#X msg 560 77 0.28;
#X msg 513 76 0.42;
#X msg 483 78 0.56;
#X msg 449 78 0.7;
#X msg 415 78 0.84;
#X msg 376 81 1;
#X connect 0 0 31 0;
#X connect 1 0 30 0;
#X connect 3 0 2 2;
#X connect 4 0 2 1;
#X connect 5 0 2 1;
#X connect 6 0 7 0;
#X connect 6 0 10 0;
#X connect 7 0 39 0;
#X connect 7 0 38 0;
#X connect 7 0 37 0;
#X connect 7 0 36 0;
#X connect 7 0 35 0;
#X connect 7 0 34 0;
#X connect 7 0 33 0;
#X connect 7 0 32 0;
#X connect 7 0 3 0;
#X connect 7 0 4 0;
#X connect 8 0 39 0;
#X connect 8 0 38 0;
#X connect 8 0 37 0;
#X connect 8 0 36 0;
#X connect 8 0 35 0;
#X connect 8 0 34 0;
#X connect 8 0 33 0;
#X connect 8 0 32 0;
#X connect 8 0 3 0;
#X connect 8 0 5 0;
#X connect 9 0 8 0;
#X connect 9 0 11 0;
#X connect 10 0 7 0;
#X connect 11 0 8 0;
#X connect 12 0 13 0;
#X connect 12 0 14 0;
#X connect 13 0 14 0;
#X connect 14 0 32 0;
#X connect 14 0 33 0;
#X connect 14 0 3 0;
#X connect 14 0 5 0;
#X connect 14 1 39 0;
#X connect 14 1 38 0;
#X connect 14 1 37 0;
#X connect 14 1 36 0;
#X connect 14 1 35 0;
#X connect 14 1 34 0;
#X connect 14 1 3 0;
#X connect 14 1 4 0;
#X connect 15 0 16 0;
#X connect 15 0 17 0;
#X connect 16 0 17 0;
#X connect 17 0 34 0;
#X connect 17 0 33 0;
#X connect 17 0 32 0;
#X connect 17 0 3 0;
#X connect 17 0 5 0;
#X connect 17 1 3 0;
#X connect 17 1 35 0;
#X connect 17 1 36 0;
#X connect 17 1 37 0;
#X connect 17 1 38 0;
#X connect 17 1 39 0;
#X connect 17 1 4 0;
#X connect 18 0 19 0;
#X connect 18 0 20 0;
#X connect 19 0 20 0;
#X connect 20 0 35 0;
#X connect 20 0 34 0;
#X connect 20 0 33 0;
#X connect 20 0 32 0;
#X connect 20 0 3 0;
#X connect 20 0 5 0;
#X connect 20 1 39 0;
#X connect 20 1 38 0;
#X connect 20 1 37 0;
#X connect 20 1 36 0;
#X connect 20 1 3 0;
#X connect 20 1 4 0;
#X connect 21 0 22 0;
#X connect 21 0 23 0;
#X connect 22 0 23 0;
#X connect 23 0 36 0;
#X connect 23 0 35 0;
#X connect 23 0 34 0;
#X connect 23 0 33 0;
#X connect 23 0 32 0;
#X connect 23 0 3 0;
#X connect 23 0 5 0;
#X connect 23 1 39 0;
#X connect 23 1 38 0;
#X connect 23 1 37 0;
#X connect 23 1 3 0;
#X connect 23 1 4 0;
#X connect 24 0 25 0;
#X connect 24 0 26 0;
#X connect 25 0 26 0;
#X connect 26 0 37 0;
#X connect 26 0 36 0;
#X connect 26 0 35 0;
#X connect 26 0 34 0;
#X connect 26 0 33 0;
#X connect 26 0 32 0;
#X connect 26 0 3 0;
#X connect 26 0 5 0;
#X connect 26 1 39 0;
#X connect 26 1 38 0;
#X connect 26 1 3 0;
#X connect 26 1 4 0;
#X connect 27 0 28 0;
#X connect 27 0 29 0;
#X connect 28 0 29 0;
#X connect 29 0 38 0;
#X connect 29 0 37 0;
#X connect 29 0 36 0;
#X connect 29 0 35 0;
#X connect 29 0 34 0;
#X connect 29 0 33 0;
#X connect 29 0 32 0;
#X connect 29 0 3 0;
#X connect 29 0 5 0;
#X connect 29 1 39 0;
#X connect 29 1 3 0;
#X connect 29 1 4 0;
#X connect 31 0 46 0;
#X connect 31 0 6 0;
#X connect 31 1 45 0;
#X connect 31 1 27 0;
#X connect 31 2 44 0;
#X connect 31 2 24 0;
#X connect 31 3 43 0;
#X connect 31 3 21 0;
#X connect 31 4 42 0;
#X connect 31 4 18 0;
#X connect 31 5 41 0;
#X connect 31 5 15 0;
#X connect 31 6 40 0;
#X connect 31 6 12 0;
#X connect 31 7 1 0;
#X connect 31 7 9 0;
#X connect 32 0 2 0;
#X connect 33 0 2 0;
#X connect 34 0 2 0;
#X connect 35 0 2 0;
#X connect 36 0 2 0;
#X connect 37 0 2 0;
#X connect 38 0 2 0;
#X connect 39 0 2 0;
#X connect 40 0 30 0;
#X connect 41 0 30 0;
#X connect 42 0 30 0;
#X connect 43 0 30 0;
#X connect 44 0 30 0;
#X connect 45 0 30 0;
#X connect 46 0 30 0;
#X restore 164 46 pd column3;
#X obj 164 193 s col3;
#N canvas 442 71 726 317 column4 0;
#X obj 121 25 notein;
#X msg 647 77 0;
#X obj 162 230 noteout;
#X msg 87 194 1;
#X msg 27 195 127;
#X msg 56 196 0;
#X obj 15 118 bng 15 250 50 0 empty empty empty 17 7 0 10 -262144 -1
-1;
#X obj 17 164 t b;
#X obj 341 169 t b;
#X obj 340 124 bng 15 250 50 0 empty empty empty 17 7 0 10 -262144
-1 -1;
#X obj 31 141 bang;
#X obj 354 148 bang;
#X obj 291 124 bng 15 250 50 0 empty empty empty 17 7 0 10 -262144
-1 -1;
#X obj 307 147 bang;
#X obj 293 171 t b b;
#X obj 245 121 bng 15 250 50 0 empty empty empty 17 7 0 10 -262144
-1 -1;
#X obj 261 144 bang;
#X obj 247 168 t b b;
#X obj 202 121 bng 15 250 50 0 empty empty empty 17 7 0 10 -262144
-1 -1;
#X obj 218 144 bang;
#X obj 204 169 t b b;
#X obj 155 119 bng 15 250 50 0 empty empty empty 17 7 0 10 -262144
-1 -1;
#X obj 171 142 bang;
#X obj 157 167 t b b;
#X obj 105 120 bng 15 250 50 0 empty empty empty 17 7 0 10 -262144
-1 -1;
#X obj 121 143 bang;
#X obj 111 168 t b b;
#X obj 55 119 bng 15 250 50 0 empty empty empty 17 7 0 10 -262144 -1
-1;
#X obj 71 142 bang;
#X obj 57 167 t b b;
#X obj 495 133 outlet;
#X msg 124 194 115;
#X msg 152 194 99;
#X msg 182 194 83;
#X msg 210 194 67;
#X msg 238 194 51;
#X msg 269 194 35;
#X msg 298 195 19;
#X msg 329 194 3;
#X obj 119 62 select 3 19 35 51 67 83 99 115;
#X msg 603 77 0.14;
#X msg 560 77 0.28;
#X msg 513 76 0.42;
#X msg 483 78 0.56;
#X msg 449 78 0.7;
#X msg 415 78 0.84;
#X msg 376 81 1;
#X connect 0 0 39 0;
#X connect 1 0 30 0;
#X connect 3 0 2 2;
#X connect 4 0 2 1;
#X connect 5 0 2 1;
#X connect 6 0 7 0;
#X connect 6 0 10 0;
#X connect 7 0 38 0;
#X connect 7 0 37 0;
#X connect 7 0 36 0;
#X connect 7 0 35 0;
#X connect 7 0 34 0;
#X connect 7 0 33 0;
#X connect 7 0 32 0;
#X connect 7 0 31 0;
#X connect 7 0 3 0;
#X connect 7 0 4 0;
#X connect 8 0 38 0;
#X connect 8 0 37 0;
#X connect 8 0 36 0;
#X connect 8 0 35 0;
#X connect 8 0 34 0;
#X connect 8 0 33 0;
#X connect 8 0 32 0;
#X connect 8 0 31 0;
#X connect 8 0 3 0;
#X connect 8 0 5 0;
#X connect 9 0 8 0;
#X connect 9 0 11 0;
#X connect 10 0 7 0;
#X connect 11 0 8 0;
#X connect 12 0 13 0;
#X connect 12 0 14 0;
#X connect 13 0 14 0;
#X connect 14 0 31 0;
#X connect 14 0 32 0;
#X connect 14 0 3 0;
#X connect 14 0 5 0;
#X connect 14 1 38 0;
#X connect 14 1 37 0;
#X connect 14 1 36 0;
#X connect 14 1 35 0;
#X connect 14 1 34 0;
#X connect 14 1 33 0;
#X connect 14 1 3 0;
#X connect 14 1 4 0;
#X connect 15 0 16 0;
#X connect 15 0 17 0;
#X connect 16 0 17 0;
#X connect 17 0 33 0;
#X connect 17 0 32 0;
#X connect 17 0 31 0;
#X connect 17 0 3 0;
#X connect 17 0 5 0;
#X connect 17 1 3 0;
#X connect 17 1 34 0;
#X connect 17 1 35 0;
#X connect 17 1 36 0;
#X connect 17 1 37 0;
#X connect 17 1 38 0;
#X connect 17 1 4 0;
#X connect 18 0 19 0;
#X connect 18 0 20 0;
#X connect 19 0 20 0;
#X connect 20 0 34 0;
#X connect 20 0 33 0;
#X connect 20 0 32 0;
#X connect 20 0 31 0;
#X connect 20 0 3 0;
#X connect 20 0 5 0;
#X connect 20 1 38 0;
#X connect 20 1 37 0;
#X connect 20 1 36 0;
#X connect 20 1 35 0;
#X connect 20 1 3 0;
#X connect 20 1 4 0;
#X connect 21 0 22 0;
#X connect 21 0 23 0;
#X connect 22 0 23 0;
#X connect 23 0 35 0;
#X connect 23 0 34 0;
#X connect 23 0 33 0;
#X connect 23 0 32 0;
#X connect 23 0 31 0;
#X connect 23 0 3 0;
#X connect 23 0 5 0;
#X connect 23 1 38 0;
#X connect 23 1 37 0;
#X connect 23 1 36 0;
#X connect 23 1 3 0;
#X connect 23 1 4 0;
#X connect 24 0 25 0;
#X connect 24 0 26 0;
#X connect 25 0 26 0;
#X connect 26 0 36 0;
#X connect 26 0 35 0;
#X connect 26 0 34 0;
#X connect 26 0 33 0;
#X connect 26 0 32 0;
#X connect 26 0 31 0;
#X connect 26 0 3 0;
#X connect 26 0 5 0;
#X connect 26 1 38 0;
#X connect 26 1 37 0;
#X connect 26 1 3 0;
#X connect 26 1 4 0;
#X connect 27 0 28 0;
#X connect 27 0 29 0;
#X connect 28 0 29 0;
#X connect 29 0 37 0;
#X connect 29 0 36 0;
#X connect 29 0 35 0;
#X connect 29 0 34 0;
#X connect 29 0 33 0;
#X connect 29 0 32 0;
#X connect 29 0 31 0;
#X connect 29 0 3 0;
#X connect 29 0 5 0;
#X connect 29 1 38 0;
#X connect 29 1 3 0;
#X connect 29 1 4 0;
#X connect 31 0 2 0;
#X connect 32 0 2 0;
#X connect 33 0 2 0;
#X connect 34 0 2 0;
#X connect 35 0 2 0;
#X connect 36 0 2 0;
#X connect 37 0 2 0;
#X connect 38 0 2 0;
#X connect 39 0 46 0;
#X connect 39 0 6 0;
#X connect 39 1 45 0;
#X connect 39 1 27 0;
#X connect 39 2 44 0;
#X connect 39 2 24 0;
#X connect 39 3 43 0;
#X connect 39 3 21 0;
#X connect 39 4 42 0;
#X connect 39 4 18 0;
#X connect 39 5 41 0;
#X connect 39 5 15 0;
#X connect 39 6 40 0;
#X connect 39 6 12 0;
#X connect 39 7 1 0;
#X connect 39 7 9 0;
#X connect 40 0 30 0;
#X connect 41 0 30 0;
#X connect 42 0 30 0;
#X connect 43 0 30 0;
#X connect 44 0 30 0;
#X connect 45 0 30 0;
#X connect 46 0 30 0;
#X restore 244 45 pd column4;
#X obj 244 195 s col4;
#N canvas 442 71 726 317 column5 0;
#X obj 121 25 notein;
#X msg 647 77 0;
#X obj 162 230 noteout;
#X msg 87 194 1;
#X msg 27 195 127;
#X msg 56 196 0;
#X obj 15 118 bng 15 250 50 0 empty empty empty 17 7 0 10 -262144 -1
-1;
#X obj 17 164 t b;
#X obj 341 169 t b;
#X obj 340 124 bng 15 250 50 0 empty empty empty 17 7 0 10 -262144
-1 -1;
#X obj 31 141 bang;
#X obj 354 148 bang;
#X obj 291 124 bng 15 250 50 0 empty empty empty 17 7 0 10 -262144
-1 -1;
#X obj 307 147 bang;
#X obj 293 171 t b b;
#X obj 245 121 bng 15 250 50 0 empty empty empty 17 7 0 10 -262144
-1 -1;
#X obj 261 144 bang;
#X obj 247 168 t b b;
#X obj 202 121 bng 15 250 50 0 empty empty empty 17 7 0 10 -262144
-1 -1;
#X obj 218 144 bang;
#X obj 204 169 t b b;
#X obj 155 119 bng 15 250 50 0 empty empty empty 17 7 0 10 -262144
-1 -1;
#X obj 171 142 bang;
#X obj 157 167 t b b;
#X obj 105 120 bng 15 250 50 0 empty empty empty 17 7 0 10 -262144
-1 -1;
#X obj 121 143 bang;
#X obj 111 168 t b b;
#X obj 55 119 bng 15 250 50 0 empty empty empty 17 7 0 10 -262144 -1
-1;
#X obj 71 142 bang;
#X obj 57 167 t b b;
#X obj 495 133 outlet;
#X obj 119 62 select 4 20 36 52 68 84 100 116;
#X msg 124 194 116;
#X msg 152 194 100;
#X msg 182 194 84;
#X msg 210 194 68;
#X msg 238 194 52;
#X msg 269 194 36;
#X msg 298 195 20;
#X msg 329 194 4;
#X msg 603 77 0.14;
#X msg 560 77 0.28;
#X msg 513 76 0.42;
#X msg 483 78 0.56;
#X msg 449 78 0.7;
#X msg 415 78 0.84;
#X msg 376 81 1;
#X connect 0 0 31 0;
#X connect 1 0 30 0;
#X connect 3 0 2 2;
#X connect 4 0 2 1;
#X connect 5 0 2 1;
#X connect 6 0 7 0;
#X connect 6 0 10 0;
#X connect 7 0 39 0;
#X connect 7 0 38 0;
#X connect 7 0 37 0;
#X connect 7 0 36 0;
#X connect 7 0 35 0;
#X connect 7 0 34 0;
#X connect 7 0 33 0;
#X connect 7 0 32 0;
#X connect 7 0 3 0;
#X connect 7 0 4 0;
#X connect 8 0 39 0;
#X connect 8 0 38 0;
#X connect 8 0 37 0;
#X connect 8 0 36 0;
#X connect 8 0 35 0;
#X connect 8 0 34 0;
#X connect 8 0 33 0;
#X connect 8 0 32 0;
#X connect 8 0 3 0;
#X connect 8 0 5 0;
#X connect 9 0 8 0;
#X connect 9 0 11 0;
#X connect 10 0 7 0;
#X connect 11 0 8 0;
#X connect 12 0 13 0;
#X connect 12 0 14 0;
#X connect 13 0 14 0;
#X connect 14 0 32 0;
#X connect 14 0 33 0;
#X connect 14 0 3 0;
#X connect 14 0 5 0;
#X connect 14 1 39 0;
#X connect 14 1 38 0;
#X connect 14 1 37 0;
#X connect 14 1 36 0;
#X connect 14 1 35 0;
#X connect 14 1 34 0;
#X connect 14 1 3 0;
#X connect 14 1 4 0;
#X connect 15 0 16 0;
#X connect 15 0 17 0;
#X connect 16 0 17 0;
#X connect 17 0 34 0;
#X connect 17 0 33 0;
#X connect 17 0 32 0;
#X connect 17 0 3 0;
#X connect 17 0 5 0;
#X connect 17 1 3 0;
#X connect 17 1 35 0;
#X connect 17 1 36 0;
#X connect 17 1 37 0;
#X connect 17 1 38 0;
#X connect 17 1 39 0;
#X connect 17 1 4 0;
#X connect 18 0 19 0;
#X connect 18 0 20 0;
#X connect 19 0 20 0;
#X connect 20 0 35 0;
#X connect 20 0 34 0;
#X connect 20 0 33 0;
#X connect 20 0 32 0;
#X connect 20 0 3 0;
#X connect 20 0 5 0;
#X connect 20 1 39 0;
#X connect 20 1 38 0;
#X connect 20 1 37 0;
#X connect 20 1 36 0;
#X connect 20 1 3 0;
#X connect 20 1 4 0;
#X connect 21 0 22 0;
#X connect 21 0 23 0;
#X connect 22 0 23 0;
#X connect 23 0 36 0;
#X connect 23 0 35 0;
#X connect 23 0 34 0;
#X connect 23 0 33 0;
#X connect 23 0 32 0;
#X connect 23 0 3 0;
#X connect 23 0 5 0;
#X connect 23 1 39 0;
#X connect 23 1 38 0;
#X connect 23 1 37 0;
#X connect 23 1 3 0;
#X connect 23 1 4 0;
#X connect 24 0 25 0;
#X connect 24 0 26 0;
#X connect 25 0 26 0;
#X connect 26 0 37 0;
#X connect 26 0 36 0;
#X connect 26 0 35 0;
#X connect 26 0 34 0;
#X connect 26 0 33 0;
#X connect 26 0 32 0;
#X connect 26 0 3 0;
#X connect 26 0 5 0;
#X connect 26 1 39 0;
#X connect 26 1 38 0;
#X connect 26 1 3 0;
#X connect 26 1 4 0;
#X connect 27 0 28 0;
#X connect 27 0 29 0;
#X connect 28 0 29 0;
#X connect 29 0 38 0;
#X connect 29 0 37 0;
#X connect 29 0 36 0;
#X connect 29 0 35 0;
#X connect 29 0 34 0;
#X connect 29 0 33 0;
#X connect 29 0 32 0;
#X connect 29 0 3 0;
#X connect 29 0 5 0;
#X connect 29 1 39 0;
#X connect 29 1 3 0;
#X connect 29 1 4 0;
#X connect 31 0 46 0;
#X connect 31 0 6 0;
#X connect 31 1 45 0;
#X connect 31 1 27 0;
#X connect 31 2 44 0;
#X connect 31 2 24 0;
#X connect 31 3 43 0;
#X connect 31 3 21 0;
#X connect 31 4 42 0;
#X connect 31 4 18 0;
#X connect 31 5 41 0;
#X connect 31 5 15 0;
#X connect 31 6 40 0;
#X connect 31 6 12 0;
#X connect 31 7 1 0;
#X connect 31 7 9 0;
#X connect 32 0 2 0;
#X connect 33 0 2 0;
#X connect 34 0 2 0;
#X connect 35 0 2 0;
#X connect 36 0 2 0;
#X connect 37 0 2 0;
#X connect 38 0 2 0;
#X connect 39 0 2 0;
#X connect 40 0 30 0;
#X connect 41 0 30 0;
#X connect 42 0 30 0;
#X connect 43 0 30 0;
#X connect 44 0 30 0;
#X connect 45 0 30 0;
#X connect 46 0 30 0;
#X restore 14 213 pd column5;
#X obj 14 363 s col5;
#N canvas 442 71 726 317 column6 0;
#X obj 121 25 notein;
#X msg 647 77 0;
#X obj 162 230 noteout;
#X msg 87 194 1;
#X msg 27 195 127;
#X msg 56 196 0;
#X obj 15 118 bng 15 250 50 0 empty empty empty 17 7 0 10 -262144 -1
-1;
#X obj 17 164 t b;
#X obj 341 169 t b;
#X obj 340 124 bng 15 250 50 0 empty empty empty 17 7 0 10 -262144
-1 -1;
#X obj 31 141 bang;
#X obj 354 148 bang;
#X obj 291 124 bng 15 250 50 0 empty empty empty 17 7 0 10 -262144
-1 -1;
#X obj 307 147 bang;
#X obj 293 171 t b b;
#X obj 245 121 bng 15 250 50 0 empty empty empty 17 7 0 10 -262144
-1 -1;
#X obj 261 144 bang;
#X obj 247 168 t b b;
#X obj 202 121 bng 15 250 50 0 empty empty empty 17 7 0 10 -262144
-1 -1;
#X obj 218 144 bang;
#X obj 204 169 t b b;
#X obj 155 119 bng 15 250 50 0 empty empty empty 17 7 0 10 -262144
-1 -1;
#X obj 171 142 bang;
#X obj 157 167 t b b;
#X obj 105 120 bng 15 250 50 0 empty empty empty 17 7 0 10 -262144
-1 -1;
#X obj 121 143 bang;
#X obj 111 168 t b b;
#X obj 55 119 bng 15 250 50 0 empty empty empty 17 7 0 10 -262144 -1
-1;
#X obj 71 142 bang;
#X obj 57 167 t b b;
#X obj 495 133 outlet;
#X obj 120 62 select 5 21 37 53 69 85 101 117;
#X msg 124 194 117;
#X msg 152 194 101;
#X msg 182 194 85;
#X msg 210 194 69;
#X msg 238 194 53;
#X msg 269 194 37;
#X msg 298 195 21;
#X msg 329 194 5;
#X msg 603 77 0.14;
#X msg 560 77 0.28;
#X msg 513 76 0.42;
#X msg 483 78 0.56;
#X msg 449 78 0.7;
#X msg 415 78 0.84;
#X msg 376 81 1;
#X connect 0 0 31 0;
#X connect 1 0 30 0;
#X connect 3 0 2 2;
#X connect 4 0 2 1;
#X connect 5 0 2 1;
#X connect 6 0 7 0;
#X connect 6 0 10 0;
#X connect 7 0 39 0;
#X connect 7 0 38 0;
#X connect 7 0 37 0;
#X connect 7 0 36 0;
#X connect 7 0 35 0;
#X connect 7 0 34 0;
#X connect 7 0 33 0;
#X connect 7 0 32 0;
#X connect 7 0 3 0;
#X connect 7 0 4 0;
#X connect 8 0 39 0;
#X connect 8 0 38 0;
#X connect 8 0 37 0;
#X connect 8 0 36 0;
#X connect 8 0 35 0;
#X connect 8 0 34 0;
#X connect 8 0 33 0;
#X connect 8 0 32 0;
#X connect 8 0 3 0;
#X connect 8 0 5 0;
#X connect 9 0 8 0;
#X connect 9 0 11 0;
#X connect 10 0 7 0;
#X connect 11 0 8 0;
#X connect 12 0 13 0;
#X connect 12 0 14 0;
#X connect 13 0 14 0;
#X connect 14 0 32 0;
#X connect 14 0 33 0;
#X connect 14 0 3 0;
#X connect 14 0 5 0;
#X connect 14 1 39 0;
#X connect 14 1 38 0;
#X connect 14 1 37 0;
#X connect 14 1 36 0;
#X connect 14 1 35 0;
#X connect 14 1 34 0;
#X connect 14 1 3 0;
#X connect 14 1 4 0;
#X connect 15 0 16 0;
#X connect 15 0 17 0;
#X connect 16 0 17 0;
#X connect 17 0 34 0;
#X connect 17 0 33 0;
#X connect 17 0 32 0;
#X connect 17 0 3 0;
#X connect 17 0 5 0;
#X connect 17 1 3 0;
#X connect 17 1 35 0;
#X connect 17 1 36 0;
#X connect 17 1 37 0;
#X connect 17 1 38 0;
#X connect 17 1 39 0;
#X connect 17 1 4 0;
#X connect 18 0 19 0;
#X connect 18 0 20 0;
#X connect 19 0 20 0;
#X connect 20 0 35 0;
#X connect 20 0 34 0;
#X connect 20 0 33 0;
#X connect 20 0 32 0;
#X connect 20 0 3 0;
#X connect 20 0 5 0;
#X connect 20 1 39 0;
#X connect 20 1 38 0;
#X connect 20 1 37 0;
#X connect 20 1 36 0;
#X connect 20 1 3 0;
#X connect 20 1 4 0;
#X connect 21 0 22 0;
#X connect 21 0 23 0;
#X connect 22 0 23 0;
#X connect 23 0 36 0;
#X connect 23 0 35 0;
#X connect 23 0 34 0;
#X connect 23 0 33 0;
#X connect 23 0 32 0;
#X connect 23 0 3 0;
#X connect 23 0 5 0;
#X connect 23 1 39 0;
#X connect 23 1 38 0;
#X connect 23 1 37 0;
#X connect 23 1 3 0;
#X connect 23 1 4 0;
#X connect 24 0 25 0;
#X connect 24 0 26 0;
#X connect 25 0 26 0;
#X connect 26 0 37 0;
#X connect 26 0 36 0;
#X connect 26 0 35 0;
#X connect 26 0 34 0;
#X connect 26 0 33 0;
#X connect 26 0 32 0;
#X connect 26 0 3 0;
#X connect 26 0 5 0;
#X connect 26 1 39 0;
#X connect 26 1 38 0;
#X connect 26 1 3 0;
#X connect 26 1 4 0;
#X connect 27 0 28 0;
#X connect 27 0 29 0;
#X connect 28 0 29 0;
#X connect 29 0 38 0;
#X connect 29 0 37 0;
#X connect 29 0 36 0;
#X connect 29 0 35 0;
#X connect 29 0 34 0;
#X connect 29 0 33 0;
#X connect 29 0 32 0;
#X connect 29 0 3 0;
#X connect 29 0 5 0;
#X connect 29 1 39 0;
#X connect 29 1 3 0;
#X connect 29 1 4 0;
#X connect 31 0 46 0;
#X connect 31 0 6 0;
#X connect 31 1 45 0;
#X connect 31 1 27 0;
#X connect 31 2 44 0;
#X connect 31 2 24 0;
#X connect 31 3 43 0;
#X connect 31 3 21 0;
#X connect 31 4 42 0;
#X connect 31 4 18 0;
#X connect 31 5 41 0;
#X connect 31 5 15 0;
#X connect 31 6 40 0;
#X connect 31 6 12 0;
#X connect 31 7 1 0;
#X connect 31 7 9 0;
#X connect 32 0 2 0;
#X connect 33 0 2 0;
#X connect 34 0 2 0;
#X connect 35 0 2 0;
#X connect 36 0 2 0;
#X connect 37 0 2 0;
#X connect 38 0 2 0;
#X connect 39 0 2 0;
#X connect 40 0 30 0;
#X connect 41 0 30 0;
#X connect 42 0 30 0;
#X connect 43 0 30 0;
#X connect 44 0 30 0;
#X connect 45 0 30 0;
#X connect 46 0 30 0;
#X restore 84 213 pd column6;
#X obj 84 363 s col6;
#N canvas 407 109 726 317 column7 0;
#X obj 121 25 notein;
#X msg 647 77 0;
#X obj 162 230 noteout;
#X msg 87 194 1;
#X msg 27 195 127;
#X msg 56 196 0;
#X obj 15 118 bng 15 250 50 0 empty empty empty 17 7 0 10 -262144 -1
-1;
#X obj 17 164 t b;
#X obj 341 169 t b;
#X obj 340 124 bng 15 250 50 0 empty empty empty 17 7 0 10 -262144
-1 -1;
#X obj 31 141 bang;
#X obj 354 148 bang;
#X obj 291 124 bng 15 250 50 0 empty empty empty 17 7 0 10 -262144
-1 -1;
#X obj 307 147 bang;
#X obj 293 171 t b b;
#X obj 245 121 bng 15 250 50 0 empty empty empty 17 7 0 10 -262144
-1 -1;
#X obj 261 144 bang;
#X obj 247 168 t b b;
#X obj 202 121 bng 15 250 50 0 empty empty empty 17 7 0 10 -262144
-1 -1;
#X obj 218 144 bang;
#X obj 204 169 t b b;
#X obj 155 119 bng 15 250 50 0 empty empty empty 17 7 0 10 -262144
-1 -1;
#X obj 171 142 bang;
#X obj 157 167 t b b;
#X obj 105 120 bng 15 250 50 0 empty empty empty 17 7 0 10 -262144
-1 -1;
#X obj 121 143 bang;
#X obj 111 168 t b b;
#X obj 55 119 bng 15 250 50 0 empty empty empty 17 7 0 10 -262144 -1
-1;
#X obj 71 142 bang;
#X obj 57 167 t b b;
#X obj 495 133 outlet;
#X obj 120 62 select 6 22 38 54 70 86 102 118;
#X msg 124 194 118;
#X msg 152 194 102;
#X msg 182 194 86;
#X msg 210 194 70;
#X msg 238 194 54;
#X msg 269 194 38;
#X msg 298 195 22;
#X msg 329 194 6;
#X msg 603 77 0.14;
#X msg 560 77 0.28;
#X msg 513 76 0.42;
#X msg 483 78 0.56;
#X msg 449 78 0.7;
#X msg 415 78 0.84;
#X msg 376 81 1;
#X connect 0 0 31 0;
#X connect 1 0 30 0;
#X connect 3 0 2 2;
#X connect 4 0 2 1;
#X connect 5 0 2 1;
#X connect 6 0 7 0;
#X connect 6 0 10 0;
#X connect 7 0 39 0;
#X connect 7 0 38 0;
#X connect 7 0 37 0;
#X connect 7 0 36 0;
#X connect 7 0 35 0;
#X connect 7 0 34 0;
#X connect 7 0 33 0;
#X connect 7 0 32 0;
#X connect 7 0 3 0;
#X connect 7 0 4 0;
#X connect 8 0 39 0;
#X connect 8 0 38 0;
#X connect 8 0 37 0;
#X connect 8 0 36 0;
#X connect 8 0 35 0;
#X connect 8 0 34 0;
#X connect 8 0 33 0;
#X connect 8 0 32 0;
#X connect 8 0 3 0;
#X connect 8 0 5 0;
#X connect 9 0 8 0;
#X connect 9 0 11 0;
#X connect 10 0 7 0;
#X connect 11 0 8 0;
#X connect 12 0 13 0;
#X connect 12 0 14 0;
#X connect 13 0 14 0;
#X connect 14 0 32 0;
#X connect 14 0 33 0;
#X connect 14 0 3 0;
#X connect 14 0 5 0;
#X connect 14 1 39 0;
#X connect 14 1 38 0;
#X connect 14 1 37 0;
#X connect 14 1 36 0;
#X connect 14 1 35 0;
#X connect 14 1 34 0;
#X connect 14 1 3 0;
#X connect 14 1 4 0;
#X connect 15 0 16 0;
#X connect 15 0 17 0;
#X connect 16 0 17 0;
#X connect 17 0 34 0;
#X connect 17 0 33 0;
#X connect 17 0 32 0;
#X connect 17 0 3 0;
#X connect 17 0 5 0;
#X connect 17 1 3 0;
#X connect 17 1 35 0;
#X connect 17 1 36 0;
#X connect 17 1 37 0;
#X connect 17 1 38 0;
#X connect 17 1 39 0;
#X connect 17 1 4 0;
#X connect 18 0 19 0;
#X connect 18 0 20 0;
#X connect 19 0 20 0;
#X connect 20 0 35 0;
#X connect 20 0 34 0;
#X connect 20 0 33 0;
#X connect 20 0 32 0;
#X connect 20 0 3 0;
#X connect 20 0 5 0;
#X connect 20 1 39 0;
#X connect 20 1 38 0;
#X connect 20 1 37 0;
#X connect 20 1 36 0;
#X connect 20 1 3 0;
#X connect 20 1 4 0;
#X connect 21 0 22 0;
#X connect 21 0 23 0;
#X connect 22 0 23 0;
#X connect 23 0 36 0;
#X connect 23 0 35 0;
#X connect 23 0 34 0;
#X connect 23 0 33 0;
#X connect 23 0 32 0;
#X connect 23 0 3 0;
#X connect 23 0 5 0;
#X connect 23 1 39 0;
#X connect 23 1 38 0;
#X connect 23 1 37 0;
#X connect 23 1 3 0;
#X connect 23 1 4 0;
#X connect 24 0 25 0;
#X connect 24 0 26 0;
#X connect 25 0 26 0;
#X connect 26 0 37 0;
#X connect 26 0 36 0;
#X connect 26 0 35 0;
#X connect 26 0 34 0;
#X connect 26 0 33 0;
#X connect 26 0 32 0;
#X connect 26 0 3 0;
#X connect 26 0 5 0;
#X connect 26 1 39 0;
#X connect 26 1 38 0;
#X connect 26 1 3 0;
#X connect 26 1 4 0;
#X connect 27 0 28 0;
#X connect 27 0 29 0;
#X connect 28 0 29 0;
#X connect 29 0 38 0;
#X connect 29 0 37 0;
#X connect 29 0 36 0;
#X connect 29 0 35 0;
#X connect 29 0 34 0;
#X connect 29 0 33 0;
#X connect 29 0 32 0;
#X connect 29 0 3 0;
#X connect 29 0 5 0;
#X connect 29 1 39 0;
#X connect 29 1 3 0;
#X connect 29 1 4 0;
#X connect 31 0 46 0;
#X connect 31 0 6 0;
#X connect 31 1 45 0;
#X connect 31 1 27 0;
#X connect 31 2 44 0;
#X connect 31 2 24 0;
#X connect 31 3 43 0;
#X connect 31 3 21 0;
#X connect 31 4 42 0;
#X connect 31 4 18 0;
#X connect 31 5 41 0;
#X connect 31 5 15 0;
#X connect 31 6 40 0;
#X connect 31 6 12 0;
#X connect 31 7 1 0;
#X connect 31 7 9 0;
#X connect 32 0 2 0;
#X connect 33 0 2 0;
#X connect 34 0 2 0;
#X connect 35 0 2 0;
#X connect 36 0 2 0;
#X connect 37 0 2 0;
#X connect 38 0 2 0;
#X connect 39 0 2 0;
#X connect 40 0 30 0;
#X connect 41 0 30 0;
#X connect 42 0 30 0;
#X connect 43 0 30 0;
#X connect 44 0 30 0;
#X connect 45 0 30 0;
#X connect 46 0 30 0;
#X restore 153 214 pd column7;
#X obj 154 362 s col7;
#N canvas 407 109 726 317 column8 0;
#X obj 121 25 notein;
#X msg 647 77 0;
#X obj 162 230 noteout;
#X msg 87 194 1;
#X msg 27 195 127;
#X msg 56 196 0;
#X obj 15 118 bng 15 250 50 0 empty empty empty 17 7 0 10 -262144 -1
-1;
#X obj 17 164 t b;
#X obj 341 169 t b;
#X obj 340 124 bng 15 250 50 0 empty empty empty 17 7 0 10 -262144
-1 -1;
#X obj 31 141 bang;
#X obj 354 148 bang;
#X obj 291 124 bng 15 250 50 0 empty empty empty 17 7 0 10 -262144
-1 -1;
#X obj 307 147 bang;
#X obj 293 171 t b b;
#X obj 245 121 bng 15 250 50 0 empty empty empty 17 7 0 10 -262144
-1 -1;
#X obj 261 144 bang;
#X obj 247 168 t b b;
#X obj 202 121 bng 15 250 50 0 empty empty empty 17 7 0 10 -262144
-1 -1;
#X obj 218 144 bang;
#X obj 204 169 t b b;
#X obj 155 119 bng 15 250 50 0 empty empty empty 17 7 0 10 -262144
-1 -1;
#X obj 171 142 bang;
#X obj 157 167 t b b;
#X obj 105 120 bng 15 250 50 0 empty empty empty 17 7 0 10 -262144
-1 -1;
#X obj 121 143 bang;
#X obj 111 168 t b b;
#X obj 55 119 bng 15 250 50 0 empty empty empty 17 7 0 10 -262144 -1
-1;
#X obj 71 142 bang;
#X obj 57 167 t b b;
#X obj 495 133 outlet;
#X obj 120 62 select 7 23 39 55 71 87 103 119;
#X msg 124 194 119;
#X msg 152 194 103;
#X msg 182 194 87;
#X msg 210 194 71;
#X msg 238 194 55;
#X msg 268 195 39;
#X msg 298 195 23;
#X msg 329 194 7;
#X msg 603 77 0.14;
#X msg 560 77 0.28;
#X msg 513 76 0.42;
#X msg 483 78 0.56;
#X msg 449 78 0.7;
#X msg 415 78 0.84;
#X msg 376 81 1;
#X connect 0 0 31 0;
#X connect 1 0 30 0;
#X connect 3 0 2 2;
#X connect 4 0 2 1;
#X connect 5 0 2 1;
#X connect 6 0 7 0;
#X connect 6 0 10 0;
#X connect 7 0 39 0;
#X connect 7 0 38 0;
#X connect 7 0 37 0;
#X connect 7 0 36 0;
#X connect 7 0 35 0;
#X connect 7 0 34 0;
#X connect 7 0 33 0;
#X connect 7 0 32 0;
#X connect 7 0 3 0;
#X connect 7 0 4 0;
#X connect 8 0 39 0;
#X connect 8 0 38 0;
#X connect 8 0 37 0;
#X connect 8 0 36 0;
#X connect 8 0 35 0;
#X connect 8 0 34 0;
#X connect 8 0 33 0;
#X connect 8 0 32 0;
#X connect 8 0 3 0;
#X connect 8 0 5 0;
#X connect 9 0 8 0;
#X connect 9 0 11 0;
#X connect 10 0 7 0;
#X connect 11 0 8 0;
#X connect 12 0 13 0;
#X connect 12 0 14 0;
#X connect 13 0 14 0;
#X connect 14 0 32 0;
#X connect 14 0 33 0;
#X connect 14 0 3 0;
#X connect 14 0 5 0;
#X connect 14 1 39 0;
#X connect 14 1 38 0;
#X connect 14 1 37 0;
#X connect 14 1 36 0;
#X connect 14 1 35 0;
#X connect 14 1 34 0;
#X connect 14 1 3 0;
#X connect 14 1 4 0;
#X connect 15 0 16 0;
#X connect 15 0 17 0;
#X connect 16 0 17 0;
#X connect 17 0 34 0;
#X connect 17 0 33 0;
#X connect 17 0 32 0;
#X connect 17 0 3 0;
#X connect 17 0 5 0;
#X connect 17 1 3 0;
#X connect 17 1 35 0;
#X connect 17 1 36 0;
#X connect 17 1 37 0;
#X connect 17 1 38 0;
#X connect 17 1 39 0;
#X connect 17 1 4 0;
#X connect 18 0 19 0;
#X connect 18 0 20 0;
#X connect 19 0 20 0;
#X connect 20 0 35 0;
#X connect 20 0 34 0;
#X connect 20 0 33 0;
#X connect 20 0 32 0;
#X connect 20 0 3 0;
#X connect 20 0 5 0;
#X connect 20 1 39 0;
#X connect 20 1 38 0;
#X connect 20 1 37 0;
#X connect 20 1 36 0;
#X connect 20 1 3 0;
#X connect 20 1 4 0;
#X connect 21 0 22 0;
#X connect 21 0 23 0;
#X connect 22 0 23 0;
#X connect 23 0 36 0;
#X connect 23 0 35 0;
#X connect 23 0 34 0;
#X connect 23 0 33 0;
#X connect 23 0 32 0;
#X connect 23 0 3 0;
#X connect 23 0 5 0;
#X connect 23 1 39 0;
#X connect 23 1 38 0;
#X connect 23 1 37 0;
#X connect 23 1 3 0;
#X connect 23 1 4 0;
#X connect 24 0 25 0;
#X connect 24 0 26 0;
#X connect 25 0 26 0;
#X connect 26 0 37 0;
#X connect 26 0 36 0;
#X connect 26 0 35 0;
#X connect 26 0 34 0;
#X connect 26 0 33 0;
#X connect 26 0 32 0;
#X connect 26 0 3 0;
#X connect 26 0 5 0;
#X connect 26 1 39 0;
#X connect 26 1 38 0;
#X connect 26 1 3 0;
#X connect 26 1 4 0;
#X connect 27 0 28 0;
#X connect 27 0 29 0;
#X connect 28 0 29 0;
#X connect 29 0 38 0;
#X connect 29 0 37 0;
#X connect 29 0 36 0;
#X connect 29 0 35 0;
#X connect 29 0 34 0;
#X connect 29 0 33 0;
#X connect 29 0 32 0;
#X connect 29 0 3 0;
#X connect 29 0 5 0;
#X connect 29 1 39 0;
#X connect 29 1 3 0;
#X connect 29 1 4 0;
#X connect 31 0 46 0;
#X connect 31 0 6 0;
#X connect 31 1 45 0;
#X connect 31 1 27 0;
#X connect 31 2 44 0;
#X connect 31 2 24 0;
#X connect 31 3 43 0;
#X connect 31 3 21 0;
#X connect 31 4 42 0;
#X connect 31 4 18 0;
#X connect 31 5 41 0;
#X connect 31 5 15 0;
#X connect 31 6 40 0;
#X connect 31 6 12 0;
#X connect 31 7 1 0;
#X connect 31 7 9 0;
#X connect 32 0 2 0;
#X connect 33 0 2 0;
#X connect 34 0 2 0;
#X connect 35 0 2 0;
#X connect 36 0 2 0;
#X connect 37 0 2 0;
#X connect 38 0 2 0;
#X connect 39 0 2 0;
#X connect 40 0 30 0;
#X connect 41 0 30 0;
#X connect 42 0 30 0;
#X connect 43 0 30 0;
#X connect 44 0 30 0;
#X connect 45 0 30 0;
#X connect 46 0 30 0;
#X restore 230 215 pd column8;
#X obj 230 362 s col8;
#X obj 14 173 *;
#X obj 29 89 select 0;
#X msg 29 130 1;
#X msg 59 130 -1;
#X obj 29 67 r mod1;
#X floatatom 53 154 5 0 0 0 - - -;
#X obj 33 108 loadbang;
#X obj 21 154 bang;
#X obj 84 172 *;
#X obj 99 88 select 0;
#X msg 99 129 1;
#X msg 129 129 -1;
#X floatatom 123 153 5 0 0 0 - - -;
#X obj 103 107 loadbang;
#X obj 91 153 bang;
#X obj 164 172 *;
#X obj 179 88 select 0;
#X msg 179 129 1;
#X msg 209 129 -1;
#X floatatom 203 153 5 0 0 0 - - -;
#X obj 183 107 loadbang;
#X obj 171 153 bang;
#X obj 244 172 *;
#X obj 259 88 select 0;
#X msg 259 129 1;
#X msg 289 129 -1;
#X floatatom 283 153 5 0 0 0 - - -;
#X obj 263 107 loadbang;
#X obj 251 153 bang;
#X obj 99 66 r mod2;
#X obj 179 66 r mod3;
#X obj 259 66 r mod4;
#X obj 14 343 *;
#X obj 29 257 select 0;
#X msg 29 298 1;
#X msg 59 298 -1;
#X floatatom 53 322 5 0 0 0 - - -;
#X obj 33 276 loadbang;
#X obj 21 322 bang;
#X obj 84 342 *;
#X obj 99 256 select 0;
#X msg 99 297 1;
#X msg 129 297 -1;
#X floatatom 123 321 5 0 0 0 - - -;
#X obj 103 275 loadbang;
#X obj 91 321 bang;
#X obj 154 342 *;
#X obj 169 256 select 0;
#X msg 169 297 1;
#X msg 199 297 -1;
#X floatatom 193 321 5 0 0 0 - - -;
#X obj 173 275 loadbang;
#X obj 161 321 bang;
#X obj 230 342 *;
#X obj 245 256 select 0;
#X msg 245 297 1;
#X msg 275 297 -1;
#X floatatom 269 321 5 0 0 0 - - -;
#X obj 249 275 loadbang;
#X obj 237 321 bang;
#X obj 29 235 r mod5;
#X obj 99 234 r mod6;
#X obj 169 234 r mod7;
#X obj 245 234 r mod8;
#X text 16 1 Individual Launchpad Column Code;
#X text 16 12 Each one receives input and assigns bangs;
#X text 15 23 Then the send-mods come in and invert the amplitude;
#X text 334 83 I wish it was easier;
#X text 334 93 But it isn't.;
#X connect 0 0 16 0;
#X connect 1 0 24 0;
#X connect 4 0 31 0;
#X connect 6 0 38 0;
#X connect 8 0 48 0;
#X connect 10 0 55 0;
#X connect 12 0 62 0;
#X connect 14 0 69 0;
#X connect 16 0 2 0;
#X connect 17 0 18 0;
#X connect 17 1 19 0;
#X connect 18 0 21 0;
#X connect 18 0 23 0;
#X connect 19 0 21 0;
#X connect 19 0 23 0;
#X connect 20 0 17 0;
#X connect 21 0 16 1;
#X connect 22 0 18 0;
#X connect 23 0 16 0;
#X connect 24 0 3 0;
#X connect 25 0 26 0;
#X connect 25 1 27 0;
#X connect 26 0 28 0;
#X connect 26 0 30 0;
#X connect 27 0 28 0;
#X connect 27 0 30 0;
#X connect 28 0 24 1;
#X connect 29 0 26 0;
#X connect 30 0 24 0;
#X connect 31 0 5 0;
#X connect 32 0 33 0;
#X connect 32 1 34 0;
#X connect 33 0 35 0;
#X connect 33 0 37 0;
#X connect 34 0 35 0;
#X connect 34 0 37 0;
#X connect 35 0 31 1;
#X connect 36 0 33 0;
#X connect 37 0 31 0;
#X connect 38 0 7 0;
#X connect 39 0 40 0;
#X connect 39 1 41 0;
#X connect 40 0 42 0;
#X connect 40 0 44 0;
#X connect 41 0 42 0;
#X connect 41 0 44 0;
#X connect 42 0 38 1;
#X connect 43 0 40 0;
#X connect 44 0 38 0;
#X connect 45 0 25 0;
#X connect 46 0 32 0;
#X connect 47 0 39 0;
#X connect 48 0 9 0;
#X connect 49 0 50 0;
#X connect 49 1 51 0;
#X connect 50 0 52 0;
#X connect 50 0 54 0;
#X connect 51 0 52 0;
#X connect 51 0 54 0;
#X connect 52 0 48 1;
#X connect 53 0 50 0;
#X connect 54 0 48 0;
#X connect 55 0 11 0;
#X connect 56 0 57 0;
#X connect 56 1 58 0;
#X connect 57 0 59 0;
#X connect 57 0 61 0;
#X connect 58 0 59 0;
#X connect 58 0 61 0;
#X connect 59 0 55 1;
#X connect 60 0 57 0;
#X connect 61 0 55 0;
#X connect 62 0 13 0;
#X connect 63 0 64 0;
#X connect 63 1 65 0;
#X connect 64 0 66 0;
#X connect 64 0 68 0;
#X connect 65 0 66 0;
#X connect 65 0 68 0;
#X connect 66 0 62 1;
#X connect 67 0 64 0;
#X connect 68 0 62 0;
#X connect 69 0 15 0;
#X connect 70 0 71 0;
#X connect 70 1 72 0;
#X connect 71 0 73 0;
#X connect 71 0 75 0;
#X connect 72 0 73 0;
#X connect 72 0 75 0;
#X connect 73 0 69 1;
#X connect 74 0 71 0;
#X connect 75 0 69 0;
#X connect 76 0 49 0;
#X connect 77 0 56 0;
#X connect 78 0 63 0;
#X connect 79 0 70 0;
#X restore 6 87 pd button-code;
#N canvas 589 109 320 442 mod-code 0;
#X obj 4 27 ctlin 104;
#X obj 4 47 select 127;
#X obj 4 88 tgl 15 0 empty empty empty 17 7 0 10 -262144 -1 -1 0 1
;
#X obj 4 165 ctlout 104;
#X obj 4 121 select 1;
#X msg 4 141 127;
#X msg 47 141 0;
#X obj 4 68 bang;
#X obj 14 103 s mod1;
#X obj 4 226 select 127;
#X obj 4 268 tgl 15 0 empty empty empty 17 7 0 10 -262144 -1 -1 1 1
;
#X obj 4 300 select 1;
#X msg 4 321 127;
#X msg 47 320 0;
#X obj 4 247 bang;
#X obj 71 47 select 127;
#X obj 71 88 tgl 15 0 empty empty empty 17 7 0 10 -262144 -1 -1 0 1
;
#X obj 71 121 select 1;
#X msg 71 141 127;
#X msg 114 141 0;
#X obj 71 68 bang;
#X obj 71 226 select 127;
#X obj 71 267 tgl 15 0 empty empty empty 17 7 0 10 -262144 -1 -1 1
1;
#X obj 71 300 select 1;
#X msg 71 320 127;
#X msg 114 320 0;
#X obj 71 247 bang;
#X obj 140 47 select 127;
#X obj 140 88 tgl 15 0 empty empty empty 17 7 0 10 -262144 -1 -1 0
1;
#X obj 140 121 select 1;
#X msg 140 141 127;
#X msg 183 141 0;
#X obj 140 68 bang;
#X obj 140 226 select 127;
#X obj 140 267 tgl 15 0 empty empty empty 17 7 0 10 -262144 -1 -1 0
1;
#X obj 140 300 select 1;
#X msg 140 320 127;
#X msg 183 320 0;
#X obj 140 247 bang;
#X obj 207 47 select 127;
#X obj 207 88 tgl 15 0 empty empty empty 17 7 0 10 -262144 -1 -1 0
1;
#X obj 207 121 select 1;
#X msg 207 141 127;
#X msg 242 146 0;
#X obj 207 68 bang;
#X obj 207 226 select 127;
#X obj 207 267 tgl 15 0 empty empty empty 17 7 0 10 -262144 -1 -1 0
1;
#X obj 207 300 select 1;
#X msg 207 320 127;
#X msg 242 326 0;
#X obj 207 247 bang;
#X obj 71 165 ctlout 105;
#X obj 71 27 ctlin 105;
#X obj 140 27 ctlin 106;
#X obj 140 165 ctlout 106;
#X obj 207 27 ctlin 107;
#X obj 207 165 ctlout 107;
#X obj 4 206 ctlin 108;
#X obj 4 344 ctlout 108;
#X obj 71 206 ctlin 109;
#X obj 71 344 ctlout 109;
#X obj 140 206 ctlin 110;
#X obj 140 344 ctlout 110;
#X obj 207 206 ctlin 111;
#X obj 207 344 ctlout 111;
#X obj 81 103 s mod2;
#X obj 150 103 s mod3;
#X obj 217 103 s mod4;
#X obj 14 282 s mod5;
#X obj 81 282 s mod6;
#X obj 150 282 s mod7;
#X obj 217 282 s mod8;
#X text 0 -18 Button Mod Code;
#X text 4 -5 - Allows for toggles for the top row of buttons;
#X text 5 5 - Will send [0..1] for inverting harmonic amps;
#X connect 0 0 1 0;
#X connect 1 0 7 0;
#X connect 2 0 4 0;
#X connect 2 0 8 0;
#X connect 4 0 5 0;
#X connect 4 1 6 0;
#X connect 5 0 3 0;
#X connect 6 0 3 0;
#X connect 7 0 2 0;
#X connect 9 0 14 0;
#X connect 10 0 11 0;
#X connect 10 0 68 0;
#X connect 11 0 12 0;
#X connect 11 1 13 0;
#X connect 12 0 58 0;
#X connect 13 0 58 0;
#X connect 14 0 10 0;
#X connect 15 0 20 0;
#X connect 16 0 17 0;
#X connect 16 0 65 0;
#X connect 17 0 18 0;
#X connect 17 1 19 0;
#X connect 18 0 51 0;
#X connect 19 0 51 0;
#X connect 20 0 16 0;
#X connect 21 0 26 0;
#X connect 22 0 23 0;
#X connect 22 0 69 0;
#X connect 23 0 24 0;
#X connect 23 1 25 0;
#X connect 24 0 60 0;
#X connect 25 0 60 0;
#X connect 26 0 22 0;
#X connect 27 0 32 0;
#X connect 28 0 29 0;
#X connect 28 0 66 0;
#X connect 29 0 30 0;
#X connect 29 1 31 0;
#X connect 30 0 54 0;
#X connect 31 0 54 0;
#X connect 32 0 28 0;
#X connect 33 0 38 0;
#X connect 34 0 35 0;
#X connect 34 0 70 0;
#X connect 35 0 36 0;
#X connect 35 1 37 0;
#X connect 36 0 62 0;
#X connect 37 0 62 0;
#X connect 38 0 34 0;
#X connect 39 0 44 0;
#X connect 40 0 41 0;
#X connect 40 0 67 0;
#X connect 41 0 42 0;
#X connect 41 1 43 0;
#X connect 42 0 56 0;
#X connect 43 0 56 0;
#X connect 44 0 40 0;
#X connect 45 0 50 0;
#X connect 46 0 47 0;
#X connect 46 0 71 0;
#X connect 47 0 48 0;
#X connect 47 1 49 0;
#X connect 48 0 64 0;
#X connect 49 0 64 0;
#X connect 50 0 46 0;
#X connect 52 0 15 0;
#X connect 53 0 27 0;
#X connect 55 0 39 0;
#X connect 57 0 9 0;
#X connect 59 0 21 0;
#X connect 61 0 33 0;
#X connect 63 0 45 0;
#X restore 97 87 pd mod-code;
#X obj 567 -46 monitor;
#N canvas 0 0 450 300 (subpatch) 0;
#X array osc 1027 float 5;
#A 0 0.253145 0.248994 0.244796 0.240548 0.236261 0.231936 0.227566
0.223157 0.218713 0.214234 0.20972 0.205169 0.200594 0.195982 0.19135
0.186685 0.181996 0.177285 0.172553 0.1678 0.163024 0.158234 0.153433
0.148612 0.143777 0.138936 0.134084 0.129228 0.124359 0.119493 0.114618
0.10975 0.104879 0.100006 0.0951414 0.0902837 0.0854315 0.0805862 0.075752
0.0709348 0.0661275 0.0613317 0.0565609 0.0518019 0.0470692 0.0423548
0.0376623 0.0329962 0.02836 0.0237479 0.0191648 0.014614 0.0100977
0.00561454 0.0011629 -0.00324761 -0.00761865 -0.0119517 -0.0162449
-0.0204914 -0.0247 -0.028854 -0.0329655 -0.0370331 -0.0410459 -0.0450071
-0.0489181 -0.0527773 -0.056581 -0.0603242 -0.064014 -0.0676507 -0.0712184
-0.0747306 -0.07818 -0.0815653 -0.0848901 -0.0881494 -0.0913371 -0.0944638
-0.0975222 -0.10051 -0.103429 -0.106274 -0.109055 -0.111758 -0.114386
-0.116944 -0.119428 -0.121833 -0.124167 -0.126418 -0.128594 -0.130697
-0.132717 -0.134654 -0.136517 -0.1383 -0.14 -0.141618 -0.143155 -0.144616
-0.145988 -0.147278 -0.14849 -0.149613 -0.150658 -0.15162 -0.152491
-0.153286 -0.153996 -0.154621 -0.155161 -0.155616 -0.155995 -0.156284
-0.156486 -0.15661 -0.15665 -0.156606 -0.15648 -0.156269 -0.155976
-0.155605 -0.155151 -0.154608 -0.153992 -0.153294 -0.152514 -0.151655
-0.150714 -0.149702 -0.148605 -0.147431 -0.146185 -0.144856 -0.143458
-0.141983 -0.14043 -0.138808 -0.137113 -0.135347 -0.133506 -0.131596
-0.129624 -0.127575 -0.125459 -0.123279 -0.121035 -0.118727 -0.116351
-0.113916 -0.111418 -0.108863 -0.106249 -0.10357 -0.100841 -0.0980551
-0.095213 -0.0923177 -0.0893684 -0.0863743 -0.0833254 -0.0802266 -0.0770859
-0.0738944 -0.0706645 -0.067387 -0.064067 -0.0607093 -0.0573117 -0.053878
-0.0504018 -0.0468942 -0.0433583 -0.0397822 -0.0361776 -0.0325438 -0.0288827
-0.0251979 -0.0214813 -0.0177474 -0.0139885 -0.0102117 -0.00641597
-0.00259708 0.00123375 0.00507789 0.00893712 0.0128106 0.0166922 0.0205785
0.0244777 0.0283822 0.0322888 0.0362007 0.040107 0.0440222 0.0479301
0.0518355 0.055737 0.0596285 0.0635212 0.0674 0.071264 0.0751234 0.0789664
0.0827956 0.0866089 0.0903999 0.0941799 0.0979339 0.101668 0.105376
0.109063 0.112724 0.116357 0.11996 0.123534 0.127083 0.130593 0.134069
0.137515 0.140923 0.144294 0.147628 0.150915 0.154173 0.157381 0.160548
0.163673 0.166747 0.169783 0.172768 0.175701 0.17859 0.181428 0.184215
0.186951 0.189629 0.192259 0.194833 0.197349 0.199807 0.202213 0.204558
0.206845 0.209071 0.211238 0.213349 0.215392 0.217373 0.219297 0.221154
0.222948 0.22468 0.226339 0.227943 0.229475 0.230942 0.232343 0.233676
0.234944 0.236146 0.237273 0.238337 0.239335 0.24026 0.241119 0.241906
0.242629 0.243281 0.243862 0.244371 0.244819 0.245191 0.245497 0.24573
0.245897 0.245997 0.246025 0.245985 0.245877 0.245702 0.245457 0.245147
0.244763 0.24432 0.243806 0.243225 0.242577 0.241867 0.24109 0.24025
0.23934 0.23837 0.23734 0.236242 0.235086 0.233863 0.232585 0.231245
0.229844 0.228381 0.226867 0.225289 0.223658 0.221966 0.220224 0.218426
0.216574 0.214669 0.212709 0.210704 0.208644 0.206537 0.204377 0.202176
0.199926 0.197628 0.195284 0.192902 0.190472 0.188004 0.185491 0.182941
0.180355 0.177727 0.175066 0.172363 0.169634 0.166868 0.164069 0.161238
0.158381 0.155492 0.152577 0.14963 0.146668 0.143673 0.140658 0.137622
0.134561 0.131487 0.12839 0.125276 0.122144 0.119003 0.115845 0.112673
0.109488 0.1063 0.103097 0.0998888 0.0966696 0.0934499 0.0902229 0.0869939
0.0837659 0.0805268 0.0772993 0.0740683 0.0708393 0.0676138 0.0643948
0.0611821 0.0579757 0.054772 0.0515907 0.0484076 0.0452394 0.0420861
0.038941 0.0358175 0.0327047 0.02961 0.0265296 0.0234739 0.0204347
0.0174165 0.0144171 0.0114456 0.00849524 0.00557014 0.00266581 -0.000205075
-0.00305542 -0.00587408 -0.00866063 -0.0114305 -0.0141552 -0.0168551
-0.0195237 -0.0221586 -0.0247585 -0.0273236 -0.0298541 -0.0323547 -0.0348059
-0.0372312 -0.0396171 -0.0419599 -0.0442686 -0.0465345 -0.0487612 -0.0509469
-0.0530962 -0.0551959 -0.0572577 -0.0592755 -0.0612529 -0.0631829 -0.0650685
-0.066911 -0.0687125 -0.0704607 -0.0721714 -0.0738327 -0.0754448 -0.0770212
-0.0785395 -0.080016 -0.0814469 -0.0828301 -0.0841627 -0.085449 -0.0866872
-0.0878828 -0.0890208 -0.0901185 -0.0911682 -0.0921662 -0.0931187 -0.0940241
-0.0948791 -0.0956863 -0.0964521 -0.0971618 -0.0978284 -0.0984469 -0.0990204
-0.0995424 -0.100018 -0.100448 -0.100835 -0.101169 -0.101464 -0.101711
-0.10191 -0.10207 -0.10218 -0.102248 -0.102273 -0.102256 -0.102191
-0.102086 -0.101938 -0.101752 -0.101517 -0.101247 -0.100937 -0.100585
-0.100195 -0.0997679 -0.0993 -0.0987948 -0.0982579 -0.0976781 -0.0970656
-0.096418 -0.0957399 -0.0950191 -0.0942695 -0.0934881 -0.0926758 -0.0918283
-0.090955 -0.0900509 -0.0891164 -0.0881561 -0.0871678 -0.0861512 -0.0851094
-0.0840472 -0.0829528 -0.0818384 -0.0807 -0.0795428 -0.0783579 -0.0771568
-0.0759364 -0.0746946 -0.0734361 -0.0721613 -0.0708689 -0.0695607 -0.0682393
-0.0669026 -0.0655525 -0.0641896 -0.0628225 -0.0614309 -0.0600369 -0.0586332
-0.0572204 -0.0558005 -0.0543742 -0.0529416 -0.0515043 -0.0500626 -0.0486196
-0.0471708 -0.04572 -0.0442734 -0.0428204 -0.0413697 -0.0399204 -0.0384759
-0.0370264 -0.0355871 -0.0341515 -0.0327171 -0.031292 -0.0298718 -0.02846
-0.0270563 -0.0256583 -0.0242744 -0.0228971 -0.0215294 -0.020182 -0.0188327
-0.0175028 -0.0161862 -0.0148814 -0.013593 -0.0123184 -0.0110585 -0.00981739
-0.00859114 -0.00738375 -0.00619299 -0.0050198 -0.00386831 -0.00273336
-0.001618 -0.000523884 0.00054643 0.00160599 0.00263456 0.00364299
0.0046334 0.00559555 0.00653861 0.00745662 0.00834966 0.00922308 0.010066
0.0108886 0.0116883 0.0124531 0.013204 0.0139253 0.0146199 0.0152903
0.015934 0.0165512 0.0171431 0.0177071 0.0182449 0.0187567 0.0192401
0.0196979 0.0201288 0.0205319 0.0209099 0.0212603 0.02158 0.021883
0.0221507 0.0223936 0.0226136 0.0228014 0.0229671 0.0231055 0.0232161
0.0233044 0.0233624 0.0233983 0.0234104 0.0233906 0.0233529 0.0232888
0.0231994 0.0230867 0.0229515 0.0227912 0.0226084 0.0224036 0.022175
0.0219267 0.0216541 0.0213608 0.0210486 0.0207133 0.02036 0.0199872
0.0195915 0.0191841 0.0187537 0.0183064 0.0178445 0.0173614 0.0168652
0.0163528 0.0158241 0.0152824 0.0147246 0.0141549 0.0135726 0.0129757
0.012369 0.0117506 0.0111212 0.0104817 0.00983361 0.00917554 0.00850954
0.00783638 0.00715552 0.00646867 0.00577559 0.00507744 0.00437515 0.00366832
0.00295849 0.00224638 0.00153178 0.000816098 9.95914e-005 -0.000616935
-0.00133308 -0.00204766 -0.0027609 -0.00347155 -0.00417896 -0.00488266
-0.0055818 -0.0062761 -0.00696496 -0.00764712 -0.00832259 -0.00899092
-0.00965064 -0.0103013 -0.0109447 -0.0115759 -0.012197 -0.0128084 -0.0134063
-0.0139936 -0.0145669 -0.0151265 -0.0156744 -0.0162047 -0.0167219 -0.0172243
-0.0177064 -0.0181774 -0.0186289 -0.0190625 -0.0194796 -0.0198764 -0.0202551
-0.0206154 -0.0209537 -0.021273 -0.0215712 -0.0218478 -0.0221039 -0.0223371
-0.0225484 -0.0227379 -0.0229035 -0.0230438 -0.0231678 -0.0232607 -0.023331
-0.0233801 -0.0233998 -0.0233981 -0.0233698 -0.0233146 -0.0232378 -0.0231298
-0.0229994 -0.0228449 -0.0226555 -0.0224488 -0.0222127 -0.021949 -0.0216599
-0.021344 -0.0210005 -0.0206311 -0.0202343 -0.0198103 -0.0193609 -0.0188823
-0.0183779 -0.0178478 -0.0172891 -0.0167061 -0.0160961 -0.0154548 -0.0147992
-0.0141084 -0.0133934 -0.0126571 -0.0118888 -0.0111 -0.0102854 -0.00944397
-0.00858206 -0.00769091 -0.00677991 -0.00584715 -0.0048827 -0.00390459
-0.00290144 -0.00187533 -0.000827176 0.000238289 0.00132834 0.00243829
0.00356571 0.00471526 0.00588143 0.00706866 0.00827317 0.00949303 0.0107328
0.0119865 0.0132557 0.0145478 0.0158398 0.0171548 0.0184825 0.0198195
0.0211732 0.0225355 0.0239088 0.0252939 0.0266862 0.0280913 0.0295002
0.0309166 0.0323456 0.0337733 0.0352088 0.0366487 0.038095 0.039537
0.0409873 0.0424387 0.0438874 0.0453386 0.0467883 0.0482371 0.0496831
0.0511254 0.052565 0.0539985 0.0554257 0.056854 0.0582619 0.0596683
0.0610657 0.0624533 0.0638288 0.0651946 0.0665479 0.0678878 0.0692144
0.0705277 0.0718232 0.0731026 0.0743694 0.0756125 0.0768393 0.0780462
0.0792359 0.0803967 0.081541 0.0826627 0.0837597 0.0848316 0.0858809
0.086904 0.0878988 0.0888698 0.0898099 0.0907217 0.0916052 0.0924622
0.0932798 0.0940699 0.0948269 0.0955547 0.0962421 0.0969001 0.0975237
0.0981085 0.0986601 0.0991753 0.0996506 0.100089 0.100493 0.100852
0.101174 0.101456 0.1017 0.101897 0.102054 0.102171 0.102246 0.102273
0.102263 0.102208 0.102105 0.101964 0.101773 0.101538 0.101259 0.100936
0.100561 0.100143 0.099677 0.0991685 0.0986058 0.0980007 0.0973488
0.0966475 0.0958983 0.0951056 0.0942598 0.0933662 0.0924329 0.0914414
0.090407 0.0893248 0.0881959 0.0870153 0.0857868 0.084512 0.0831951
0.0818183 0.0804056 0.0789427 0.0774291 0.0758765 0.0742701 0.072621
0.0709266 0.0691879 0.0673991 0.0655686 0.0636921 0.0617754 0.0598082
0.0578015 0.0557518 0.0536613 0.051525 0.0493524 0.0471349 0.0448747
0.0425867 0.0402462 0.0378727 0.0354623 0.0330137 0.0305274 0.028004
0.0254465 0.0228606 0.0202261 0.0175721 0.0148824 0.0121576 0.00940745
0.0066218 0.00381095 0.000970584 -0.00189343 -0.00479083 -0.0077099
-0.0106544 -0.0136196 -0.0166129 -0.0196261 -0.0226606 -0.0257103 -0.0287865
-0.0318745 -0.0349822 -0.0381094 -0.0412389 -0.0443964 -0.04756 -0.050735
-0.0539214 -0.0571183 -0.0603241 -0.063536 -0.0667499 -0.0699801 -0.0732038
-0.0764334 -0.0796657 -0.0828967 -0.0861308 -0.08936 -0.0925882 -0.095807
-0.0990276 -0.10224 -0.105443 -0.108635 -0.111822 -0.114996 -0.118159
-0.121303 -0.124441 -0.127557 -0.130657 -0.133743 -0.136801 -0.139848
-0.142868 -0.145867 -0.148839 -0.151791 -0.154714 -0.157609 -0.160473
-0.163315 -0.16612 -0.168895 -0.171635 -0.174343 -0.177017 -0.179653
-0.182253 -0.18481 -0.187334 -0.189815 -0.192254 -0.194648 -0.197004
-0.199311 -0.201575 -0.20379 -0.205962 -0.208082 -0.210155 -0.212176
-0.214145 -0.216067 -0.217932 -0.219747 -0.221501 -0.223209 -0.224857
-0.226446 -0.227977 -0.229455 -0.230871 -0.23223 -0.233523 -0.234759
-0.235937 -0.237048 -0.238099 -0.239083 -0.240008 -0.240868 -0.241663
-0.242389 -0.243056 -0.243653 -0.244184 -0.244648 -0.245046 -0.245376
-0.24564 -0.245831 -0.245957 -0.246018 -0.246006;
#A 1000 -0.245929 -0.245776 -0.245562 -0.245278 -0.24492 -0.244492
-0.244001 -0.243436 -0.242804 -0.2421 -0.241329 -0.240494 -0.239583
-0.238605 -0.237561 -0.236447 -0.235267 -0.23402 -0.232698 -0.23132
-0.229869 -0.228352 -0.226771 -0.225121 -0.223411 -0.221636 -0.219791
;
#X coords 0 1 1026 -1 140 80 1;
#X restore 6 0 graph;
#X obj 567 -65 r~ LO;
#X obj 632 -65 r~ RO;
#X obj 7 -113 cnv 15 740 40 empty empty launchpad-synth 20 16 0 26
-233017 -66577 0;
#X obj 6 0 cnv 15 140 80 empty empty empty 20 12 0 14 -261234 -66577
0;
#X text 39 -89 harmonic synth built for launchpad;
#N canvas 655 6 679 512 sumharm 0;
#X obj 57 119 *~;
#X obj 70 -21 r c1;
#X obj 111 119 *~;
#X obj 126 -20 r c2;
#X obj 181 120 *~;
#X obj 196 -20 r c3;
#X obj 56 339 /~;
#X obj 204 158 r c3;
#X obj 120 158 r c1;
#X obj 162 158 r c2;
#X floatatom 120 359 5 0 0 0 - - -;
#X obj 251 119 *~;
#X obj 321 119 *~;
#X obj 266 -20 r c4;
#X obj 336 -20 r c5;
#X obj 247 158 r c4;
#X obj 289 158 r c5;
#X obj 57 358 s~ sumsig;
#X obj 55 -85 phasor~;
#X obj 111 -68 *~ 2;
#X obj 181 -68 *~ 3;
#X obj 251 -68 *~ 4;
#X obj 57 138 expr~ $v1 + $v2 + $v3 + $v4 + $v5 + $v6 + $v7 + $v8;
#X obj 321 -68 *~ 5;
#X obj 391 119 *~;
#X obj 461 119 *~;
#X obj 391 -68 *~ 6;
#X obj 461 -68 *~ 7;
#X obj 406 -20 r c6;
#X obj 476 -20 r c7;
#X obj 531 119 *~;
#X obj 531 -68 *~ 8;
#X obj 546 -20 r c8;
#X obj 56 -46 sin~;
#X obj 110 -46 sin~;
#X obj 180 -46 sin~;
#X obj 252 -46 sin~;
#X obj 322 -46 sin~;
#X obj 392 -46 sin~;
#X obj 462 -46 sin~;
#X obj 532 -46 sin~;
#X msg 137 -94 0;
#X obj 332 158 r c6;
#X obj 374 158 r c7;
#X obj 417 158 r c8;
#X obj 120 309 expr $f1 + $f2 + $f3 + $f4 + $f5 + $f6 + $f7 + $f8;
#X obj 120 330 clip 1 8;
#X obj 120 199 abs;
#X obj 162 199 abs;
#X obj 204 199 abs;
#X obj 247 199 abs;
#X obj 289 199 abs;
#X obj 332 199 abs;
#X obj 374 199 abs;
#X obj 417 199 abs;
#X msg 120 258 \$1 50;
#X obj 120 277 line;
#X msg 162 258 \$1 50;
#X obj 162 277 line;
#X msg 204 258 \$1 50;
#X obj 204 277 line;
#X msg 247 258 \$1 50;
#X obj 247 277 line;
#X msg 289 258 \$1 50;
#X obj 289 277 line;
#X msg 332 258 \$1 50;
#X obj 332 277 line;
#X msg 374 258 \$1 50;
#X obj 374 277 line;
#X msg 417 258 \$1 50;
#X obj 417 277 line;
#X obj 471 294 bng 15 250 50 0 empty empty empty 17 7 0 10 -262144
-1 -1;
#X obj 120 179 change;
#X obj 162 179 change;
#X obj 204 179 change;
#X obj 247 179 change;
#X obj 289 179 change;
#X obj 332 179 change;
#X obj 374 179 change;
#X obj 417 179 change;
#X floatatom 449 340 5 0 0 0 - - -;
#X obj 120 220 del 50;
#X obj 162 220 del 50;
#X obj 120 239 f;
#X obj 162 239 f;
#X obj 204 220 del 50;
#X obj 204 239 f;
#X obj 247 220 del 50;
#X obj 247 239 f;
#X obj 289 220 del 50;
#X obj 289 239 f;
#X obj 332 220 del 50;
#X obj 332 239 f;
#X obj 374 220 del 50;
#X obj 374 239 f;
#X obj 417 220 del 50;
#X obj 417 239 f;
#X obj 70 19 abs;
#X msg 70 78 \$1 50;
#X obj 70 97 line;
#X obj 70 -1 change;
#X obj 70 40 del 50;
#X obj 70 59 f;
#X obj 126 19 abs;
#X msg 126 78 \$1 50;
#X obj 126 97 line;
#X obj 126 -1 change;
#X obj 126 40 del 50;
#X obj 126 59 f;
#X obj 196 19 abs;
#X msg 196 78 \$1 50;
#X obj 196 97 line;
#X obj 196 -1 change;
#X obj 196 40 del 50;
#X obj 196 59 f;
#X obj 266 19 abs;
#X msg 266 78 \$1 50;
#X obj 266 97 line;
#X obj 266 -1 change;
#X obj 266 40 del 50;
#X obj 266 59 f;
#X obj 336 19 abs;
#X msg 336 78 \$1 50;
#X obj 336 97 line;
#X obj 336 -1 change;
#X obj 336 40 del 50;
#X obj 336 59 f;
#X obj 406 19 abs;
#X msg 406 78 \$1 50;
#X obj 406 97 line;
#X obj 406 -1 change;
#X obj 406 40 del 50;
#X obj 406 59 f;
#X obj 476 19 abs;
#X msg 476 78 \$1 50;
#X obj 476 97 line;
#X obj 476 -1 change;
#X obj 476 40 del 50;
#X obj 476 59 f;
#X obj 546 19 abs;
#X msg 546 78 \$1 50;
#X obj 546 97 line;
#X obj 546 -1 change;
#X obj 546 40 del 50;
#X obj 546 59 f;
#X obj 55 -109 r~ \$0-frequency;
#X connect 0 0 22 0;
#X connect 1 0 100 0;
#X connect 2 0 22 1;
#X connect 3 0 106 0;
#X connect 4 0 22 2;
#X connect 5 0 112 0;
#X connect 6 0 17 0;
#X connect 7 0 74 0;
#X connect 8 0 72 0;
#X connect 9 0 73 0;
#X connect 11 0 22 3;
#X connect 12 0 22 4;
#X connect 13 0 118 0;
#X connect 14 0 124 0;
#X connect 15 0 75 0;
#X connect 16 0 76 0;
#X connect 18 0 19 0;
#X connect 18 0 20 0;
#X connect 18 0 21 0;
#X connect 18 0 23 0;
#X connect 18 0 26 0;
#X connect 18 0 27 0;
#X connect 18 0 31 0;
#X connect 18 0 33 0;
#X connect 19 0 34 0;
#X connect 20 0 35 0;
#X connect 21 0 36 0;
#X connect 22 0 6 0;
#X connect 23 0 37 0;
#X connect 24 0 22 5;
#X connect 25 0 22 6;
#X connect 26 0 38 0;
#X connect 27 0 39 0;
#X connect 28 0 130 0;
#X connect 29 0 136 0;
#X connect 30 0 22 7;
#X connect 31 0 40 0;
#X connect 32 0 142 0;
#X connect 33 0 0 0;
#X connect 34 0 2 0;
#X connect 35 0 4 0;
#X connect 36 0 11 0;
#X connect 37 0 12 0;
#X connect 38 0 24 0;
#X connect 39 0 25 0;
#X connect 40 0 30 0;
#X connect 41 0 18 1;
#X connect 42 0 77 0;
#X connect 43 0 78 0;
#X connect 44 0 79 0;
#X connect 45 0 46 0;
#X connect 46 0 6 1;
#X connect 46 0 10 0;
#X connect 47 0 83 1;
#X connect 47 0 81 0;
#X connect 48 0 82 0;
#X connect 48 0 84 1;
#X connect 49 0 85 0;
#X connect 49 0 86 1;
#X connect 50 0 87 0;
#X connect 50 0 88 1;
#X connect 51 0 89 0;
#X connect 51 0 90 1;
#X connect 52 0 92 1;
#X connect 52 0 91 0;
#X connect 53 0 93 0;
#X connect 53 0 94 1;
#X connect 54 0 95 0;
#X connect 54 0 96 1;
#X connect 55 0 56 0;
#X connect 56 0 45 0;
#X connect 57 0 58 0;
#X connect 58 0 45 1;
#X connect 58 0 71 0;
#X connect 59 0 60 0;
#X connect 60 0 45 2;
#X connect 60 0 71 0;
#X connect 61 0 62 0;
#X connect 62 0 45 3;
#X connect 62 0 71 0;
#X connect 63 0 64 0;
#X connect 64 0 45 4;
#X connect 64 0 71 0;
#X connect 65 0 66 0;
#X connect 66 0 45 5;
#X connect 66 0 71 0;
#X connect 67 0 68 0;
#X connect 68 0 45 6;
#X connect 68 0 71 0;
#X connect 69 0 70 0;
#X connect 70 0 45 7;
#X connect 70 0 71 0;
#X connect 70 0 80 0;
#X connect 71 0 45 0;
#X connect 72 0 47 0;
#X connect 73 0 48 0;
#X connect 74 0 49 0;
#X connect 75 0 50 0;
#X connect 76 0 51 0;
#X connect 77 0 52 0;
#X connect 78 0 53 0;
#X connect 79 0 54 0;
#X connect 81 0 83 0;
#X connect 82 0 84 0;
#X connect 83 0 55 0;
#X connect 84 0 57 0;
#X connect 85 0 86 0;
#X connect 86 0 59 0;
#X connect 87 0 88 0;
#X connect 88 0 61 0;
#X connect 89 0 90 0;
#X connect 90 0 63 0;
#X connect 91 0 92 0;
#X connect 92 0 65 0;
#X connect 93 0 94 0;
#X connect 94 0 67 0;
#X connect 95 0 96 0;
#X connect 96 0 69 0;
#X connect 97 0 102 1;
#X connect 97 0 101 0;
#X connect 98 0 99 0;
#X connect 99 0 0 1;
#X connect 100 0 97 0;
#X connect 101 0 102 0;
#X connect 102 0 98 0;
#X connect 103 0 108 1;
#X connect 103 0 107 0;
#X connect 104 0 105 0;
#X connect 105 0 2 1;
#X connect 106 0 103 0;
#X connect 107 0 108 0;
#X connect 108 0 104 0;
#X connect 109 0 114 1;
#X connect 109 0 113 0;
#X connect 110 0 111 0;
#X connect 111 0 4 1;
#X connect 112 0 109 0;
#X connect 113 0 114 0;
#X connect 114 0 110 0;
#X connect 115 0 120 1;
#X connect 115 0 119 0;
#X connect 116 0 117 0;
#X connect 117 0 11 1;
#X connect 118 0 115 0;
#X connect 119 0 120 0;
#X connect 120 0 116 0;
#X connect 121 0 126 1;
#X connect 121 0 125 0;
#X connect 122 0 123 0;
#X connect 123 0 12 1;
#X connect 124 0 121 0;
#X connect 125 0 126 0;
#X connect 126 0 122 0;
#X connect 127 0 132 1;
#X connect 127 0 131 0;
#X connect 128 0 129 0;
#X connect 129 0 24 1;
#X connect 130 0 127 0;
#X connect 131 0 132 0;
#X connect 132 0 128 0;
#X connect 133 0 138 1;
#X connect 133 0 137 0;
#X connect 134 0 135 0;
#X connect 135 0 25 1;
#X connect 136 0 133 0;
#X connect 137 0 138 0;
#X connect 138 0 134 0;
#X connect 139 0 144 1;
#X connect 139 0 143 0;
#X connect 140 0 141 0;
#X connect 141 0 30 1;
#X connect 142 0 139 0;
#X connect 143 0 144 0;
#X connect 144 0 140 0;
#X connect 145 0 18 0;
#X restore 169 87 pd sumharm;
#N canvas 651 225 535 472 dsp 0;
#X obj 266 160 reverb;
#X obj 266 264 s~ LO;
#X obj 343 263 s~ RO;
#X obj 204 144 r~ fphase;
#X obj 6 97 filter;
#X obj 44 35 hsl 40 15 0.01 1 1 0 empty empty empty -2 -8 0 10 -262144
-1 -1 0 1;
#X obj 7 -32 r~ sumsig;
#X obj 6 169 s~ fphase;
#X obj 6 204 r \$0-pitch-out;
#X obj 6 229 mtof~;
#X obj 6 361 s~ \$0-frequency;
#X obj 98 204 tabwrite~ osc;
#X obj 130 184 metro 100;
#X obj 130 166 tgl 15 0 empty empty empty 17 7 0 10 -262144 -1 -1 1
1;
#X obj 130 145 loadbang;
#X obj 110 176 bng 15 250 50 0 empty empty empty 17 7 0 10 -262144
-1 -1;
#X obj 97 125 r~ sumsig;
#X obj 290 44 r \$0-room-out;
#X obj 330 65 r \$0-damp-out;
#X obj 372 85 r \$0-width-out;
#X obj 420 105 r \$0-dw-out;
#X obj 6 338 +~;
#X obj 46 235 r \$0-freqmod-out;
#X obj 46 256 phasor~;
#X obj 45 276 sin~;
#X obj 44 320 *~;
#X obj 59 299 r \$0-freqind-out;
#X obj 24 14 mtof~;
#X obj 24 59 +~;
#X obj 24 -11 r \$0-pitch-out;
#X obj 130 -3 phasor~;
#X obj 129 17 sin~;
#X obj 128 61 *~;
#X obj 143 40 r \$0-filterind-out;
#X obj 130 -24 r \$0-filterfreq-out;
#X obj 79 85 r \$0-filtype-out;
#X floatatom 216 320 5 0 0 0 - - -;
#X msg 218 293 2500;
#X obj 222 358 ftom;
#X floatatom 220 391 5 0 0 0 - - -;
#X obj 420 143 line;
#X msg 372 108 \$1 50;
#X obj 372 129 line;
#X msg 330 108 \$1 50;
#X obj 330 129 line;
#X msg 290 98 \$1 50;
#X obj 290 119 line;
#X msg 420 124 \$1 100;
#X connect 0 0 1 0;
#X connect 0 1 2 0;
#X connect 3 0 0 0;
#X connect 3 0 0 1;
#X connect 4 0 7 0;
#X connect 5 0 4 2;
#X connect 6 0 4 0;
#X connect 8 0 9 0;
#X connect 9 0 21 0;
#X connect 12 0 11 0;
#X connect 13 0 12 0;
#X connect 14 0 13 0;
#X connect 15 0 11 0;
#X connect 16 0 11 0;
#X connect 17 0 45 0;
#X connect 18 0 43 0;
#X connect 19 0 41 0;
#X connect 20 0 47 0;
#X connect 21 0 10 0;
#X connect 22 0 23 0;
#X connect 23 0 24 0;
#X connect 24 0 25 0;
#X connect 25 0 21 1;
#X connect 26 0 25 1;
#X connect 27 0 28 0;
#X connect 28 0 4 1;
#X connect 29 0 27 0;
#X connect 30 0 31 0;
#X connect 31 0 32 0;
#X connect 32 0 28 1;
#X connect 33 0 32 1;
#X connect 34 0 30 0;
#X connect 35 0 4 3;
#X connect 36 0 38 0;
#X connect 37 0 36 0;
#X connect 38 0 39 0;
#X connect 40 0 0 5;
#X connect 41 0 42 0;
#X connect 42 0 0 4;
#X connect 43 0 44 0;
#X connect 44 0 0 3;
#X connect 45 0 46 0;
#X connect 46 0 0 2;
#X connect 47 0 40 0;
#X restore 237 87 pd dsp;
#N canvas 1156 370 450 300 reset 0;
#X obj 10 8 inlet reset-bang;
#X obj 10 92 s col1;
#X msg 10 75 0;
#X obj 53 92 s col2;
#X obj 96 92 s col3;
#X obj 139 92 s col4;
#X obj 183 92 s col5;
#X obj 227 92 s col6;
#X obj 271 92 s col7;
#X obj 315 92 s col8;
#X obj 10 29 s \$0-resetbang;
#X msg 10 133 0;
#X obj 10 52 r \$0-resetbang;
#X obj 10 112 r \$0-resetbang;
#X obj 10 155 s \$0-room-in;
#X obj 90 155 s \$0-damp-in;
#X obj 170 155 s \$0-width-in;
#X obj 253 155 s \$0-dw-in;
#X connect 0 0 10 0;
#X connect 2 0 1 0;
#X connect 2 0 3 0;
#X connect 2 0 4 0;
#X connect 2 0 5 0;
#X connect 2 0 6 0;
#X connect 2 0 7 0;
#X connect 2 0 8 0;
#X connect 2 0 9 0;
#X connect 11 0 14 0;
#X connect 11 0 15 0;
#X connect 11 0 16 0;
#X connect 11 0 17 0;
#X connect 12 0 2 0;
#X connect 13 0 11 0;
#X restore 290 -92 pd reset;
#X obj 290 -110 bng 15 250 50 0 empty empty reset 17 7 0 10 -262144
-1 -1;
#X obj 296 -49 hsl 128 15 0 100 0 0 \$0-freqmod-out \$0-freqmod-in
vibrato -2 -8 0 10 -262144 -1 -1 0 1;
#X obj 296 -19 hsl 128 15 0 100 0 0 \$0-freqind-out \$0-freqind-in
vibrato-index -2 -8 0 10 -262144 -1 -1 0 1;
#X obj 296 16 hsl 128 15 0 10 0 0 \$0-filterfreq-out \$0-filterfreq-in
filter-lfo-freq -2 -8 0 10 -262144 -1 -1 0 1;
#X obj 296 46 hsl 128 15 0 100 0 0 \$0-filterind-out \$0-filterind-in
filter-lfo-index -2 -8 0 10 -262144 -1 -1 0 1;
#X obj 346 76 hradio 20 1 0 4 \$0-filtype-out empty filtype 0 -8 0
10 -262144 -1 -1 0;
#X text 347 93 lp;
#X text 368 92 hp;
#X text 390 92 bp;
#X text 413 91 n;
#X obj 436 -47 knob 50 50 0 1 0 0 \$0-room-out \$0-room-in room 0 -8
192 14 -262144 -1 -1 0 1;
#X obj 496 -47 knob 50 50 0 1 0 0 \$0-damp-out \$0-damp-in damp 0 -8
192 14 -262144 -1 -1 0 1;
#X obj 496 23 knob 50 50 0 1 0 0 \$0-dw-out \$0-dw-in dry/wet 0 -8
192 14 -262144 -1 -1 0 1;
#X obj 436 23 knob 50 50 0 1 0 0 \$0-width-out \$0-width-in width 0
-8 192 14 -262144 -1 -1 0 1;
#N canvas 110 101 912 307 nk 0;
#X obj 39 20 ctlin 2;
#X obj 39 115 - 1;
#X obj 39 77 / 127;
#X obj 39 96 * 2;
#X floatatom 3 138 5 0 0 0 - - -;
#X obj 669 225 ctlin;
#X floatatom 669 268 5 0 0 0 - - -;
#X floatatom 682 248 5 0 0 0 - - -;
#X obj 411 157 ctlin 13;
#X obj 411 188 / 127;
#X obj 411 215 * 3;
#X obj 411 257 s \$0-amp;
#X floatatom 438 232 5 0 0 0 - - -;
#X text 109 -1 harmomnics;
#X text 668 209 debug;
#X text 405 136 final amp;
#X text 544 2 knorbs;
#X obj 365 32 ctlin 14;
#X obj 365 56 / 127;
#X obj 365 89 * 99;
#X obj 365 113 s \$0-pitch-control;
#X obj 480 37 ctlin 15;
#X obj 480 58 / 127;
#X text 371 14 pitch;
#X obj 480 79 * 100;
#X obj 480 99 s \$0-freqmod-in;
#X obj 580 58 / 127;
#X obj 580 79 * 100;
#X obj 580 37 ctlin 16;
#X obj 580 99 s \$0-freqind-in;
#X obj 680 58 / 127;
#X obj 679 99 s \$0-filterfreq-in;
#X obj 680 79 * 10;
#X obj 680 37 ctlin 17;
#X obj 800 58 / 127;
#X obj 799 99 s \$0-filterind-in;
#X obj 800 36 ctlin 18;
#X obj 800 79 * 100;
#X obj 480 148 / 127;
#X obj 580 148 / 127;
#X obj 680 148 / 127;
#X obj 800 148 / 127;
#X obj 480 189 s \$0-room-in;
#X obj 480 169 * 1;
#X obj 580 169 * 1;
#X obj 580 189 s \$0-damp-in;
#X obj 679 189 s \$0-width-in;
#X obj 799 189 s \$0-dw-in;
#X obj 680 169 * 1;
#X obj 800 169 * 1;
#X obj 480 127 ctlin 19;
#X obj 580 127 ctlin 20;
#X obj 680 127 ctlin 21;
#X obj 800 126 ctlin 22;
#X obj 39 58 spigot;
#X obj 524 236 r \$0-nk-sliders;
#X obj 524 270 s \$0-nks;
#X obj 47 39 r \$0-nks;
#X obj 99 115 - 1;
#X obj 99 77 / 127;
#X obj 99 96 * 2;
#X obj 99 58 spigot;
#X obj 107 39 r \$0-nks;
#X obj 159 115 - 1;
#X obj 159 77 / 127;
#X obj 159 96 * 2;
#X obj 159 58 spigot;
#X obj 167 39 r \$0-nks;
#X obj 219 115 - 1;
#X obj 219 77 / 127;
#X obj 219 96 * 2;
#X obj 219 58 spigot;
#X obj 227 39 r \$0-nks;
#X obj 39 134 s col1;
#X obj 99 134 s col2;
#X obj 159 134 s col3;
#X obj 219 134 s col4;
#X obj 39 255 - 1;
#X obj 39 217 / 127;
#X obj 39 236 * 2;
#X obj 39 198 spigot;
#X obj 47 179 r \$0-nks;
#X obj 99 255 - 1;
#X obj 99 217 / 127;
#X obj 99 236 * 2;
#X obj 99 198 spigot;
#X obj 107 179 r \$0-nks;
#X obj 159 255 - 1;
#X obj 159 217 / 127;
#X obj 159 236 * 2;
#X obj 159 198 spigot;
#X obj 167 179 r \$0-nks;
#X obj 219 255 - 1;
#X obj 219 217 / 127;
#X obj 219 236 * 2;
#X obj 219 198 spigot;
#X obj 227 179 r \$0-nks;
#X obj 99 20 ctlin 3;
#X obj 159 20 ctlin 4;
#X obj 219 20 ctlin 5;
#X obj 39 160 ctlin 6;
#X obj 99 160 ctlin 8;
#X obj 159 160 ctlin 9;
#X obj 219 160 ctlin 12;
#X obj 39 274 s col5;
#X obj 99 274 s col6;
#X obj 159 274 s col7;
#X obj 219 274 s col8;
#X connect 0 0 54 0;
#X connect 1 0 4 0;
#X connect 1 0 73 0;
#X connect 2 0 3 0;
#X connect 3 0 1 0;
#X connect 5 0 6 0;
#X connect 5 1 7 0;
#X connect 8 0 9 0;
#X connect 9 0 10 0;
#X connect 10 0 12 0;
#X connect 10 0 11 0;
#X connect 17 0 18 0;
#X connect 18 0 19 0;
#X connect 19 0 20 0;
#X connect 21 0 22 0;
#X connect 22 0 24 0;
#X connect 24 0 25 0;
#X connect 26 0 27 0;
#X connect 27 0 29 0;
#X connect 28 0 26 0;
#X connect 30 0 32 0;
#X connect 32 0 31 0;
#X connect 33 0 30 0;
#X connect 34 0 37 0;
#X connect 36 0 34 0;
#X connect 37 0 35 0;
#X connect 38 0 43 0;
#X connect 39 0 44 0;
#X connect 40 0 48 0;
#X connect 41 0 49 0;
#X connect 43 0 42 0;
#X connect 44 0 45 0;
#X connect 48 0 46 0;
#X connect 49 0 47 0;
#X connect 50 0 38 0;
#X connect 51 0 39 0;
#X connect 52 0 40 0;
#X connect 53 0 41 0;
#X connect 54 0 2 0;
#X connect 55 0 56 0;
#X connect 57 0 54 1;
#X connect 58 0 74 0;
#X connect 59 0 60 0;
#X connect 60 0 58 0;
#X connect 61 0 59 0;
#X connect 62 0 61 1;
#X connect 63 0 75 0;
#X connect 64 0 65 0;
#X connect 65 0 63 0;
#X connect 66 0 64 0;
#X connect 67 0 66 1;
#X connect 68 0 76 0;
#X connect 69 0 70 0;
#X connect 70 0 68 0;
#X connect 71 0 69 0;
#X connect 72 0 71 1;
#X connect 77 0 104 0;
#X connect 78 0 79 0;
#X connect 79 0 77 0;
#X connect 80 0 78 0;
#X connect 81 0 80 1;
#X connect 82 0 105 0;
#X connect 83 0 84 0;
#X connect 84 0 82 0;
#X connect 85 0 83 0;
#X connect 86 0 85 1;
#X connect 87 0 106 0;
#X connect 88 0 89 0;
#X connect 89 0 87 0;
#X connect 90 0 88 0;
#X connect 91 0 90 1;
#X connect 92 0 107 0;
#X connect 93 0 94 0;
#X connect 94 0 92 0;
#X connect 95 0 93 0;
#X connect 96 0 95 1;
#X connect 97 0 61 0;
#X connect 98 0 66 0;
#X connect 99 0 71 0;
#X connect 100 0 80 0;
#X connect 101 0 85 0;
#X connect 102 0 90 0;
#X connect 103 0 95 0;
#X restore 6 106 pd nk;
#X obj 670 -66 r \$0-amp;
#X text 7 -29 low;
#X text 113 -28 high;
#X obj 45 107 tgl 15 0 \$0-nk-sliders \$0-nk-sliders-in nk_sliders
17 7 0 10 -262144 -1 -1 0 1;
#X obj 127 107 tgl 15 0 \$0-nk-knobs \$0-nk-knobs-in nk_sliders 17
7 0 10 -262144 -1 -1 0 1;
#N canvas 1317 145 450 300 lcontrol 1;
#X obj 13 9 r \$0-lcontrol;
#X obj 13 32 s \$0-lc;
#X obj 132 15 ctlin;
#X floatatom 132 44 5 0 0 0 - - -;
#X floatatom 167 44 5 0 0 0 - - -;
#X connect 0 0 1 0;
#X connect 2 0 3 0;
#X connect 2 1 4 0;
#X restore 567 96 pd lcontrol;
#X obj 643 97 tgl 15 0 \$0-lcontrol \$0-lcontrol-in l_control 17 7
0 10 -262144 -1 -1 0 1;
#X connect 13 0 11 0;
#X connect 14 0 11 1;
#X connect 21 0 20 0;
#X connect 36 0 11 2;
