#N canvas 21 473 469 299 10;
#X obj 9 8 inlet banger;
#X obj 64 32 inlet attack;
#X obj 144 32 inlet decay;
#X obj 9 32 t b b;
#X obj 9 68 del;
#X obj 9 94 f;
#X obj 47 93 f;
#X obj 30 152 line;
#X msg 9 121 0 \$1;
#X msg 47 121 1 \$1;
#X obj 30 181 outlet env;
#X text 106 83 Envelope Generator;
#X text 104 97 Just provides a ramp for attack/decay;
#X connect 0 0 3 0;
#X connect 1 0 4 1;
#X connect 1 0 6 1;
#X connect 2 0 5 1;
#X connect 3 0 4 0;
#X connect 3 1 6 0;
#X connect 4 0 5 0;
#X connect 5 0 8 0;
#X connect 6 0 9 0;
#X connect 7 0 10 0;
#X connect 8 0 7 0;
#X connect 9 0 7 0;
