#N canvas 69 410 450 300 10;
#X obj 17 17 inlet pitch;
#X obj 102 17 inlet fatness;
#X obj 102 42 * 5;
#X obj 102 66 t b b f f;
#X obj 17 109 -;
#X obj 100 109 +;
#X obj 17 138 phasor~ 55;
#X obj 100 137 phasor~ 55;
#X obj 18 165 -~ 0.5;
#X obj 99 165 -~ 0.5;
#X obj 19 205 +~;
#X obj 18 241 outlet~;
#X connect 0 0 4 0;
#X connect 1 0 2 0;
#X connect 2 0 3 0;
#X connect 3 0 4 0;
#X connect 3 1 5 0;
#X connect 3 2 4 1;
#X connect 3 3 5 1;
#X connect 4 0 6 0;
#X connect 5 0 7 0;
#X connect 6 0 8 0;
#X connect 7 0 9 0;
#X connect 8 0 10 0;
#X connect 9 0 10 1;
#X connect 10 0 11 0;
