#N canvas 36 84 446 370 10;
#X obj 101 252 bp~ 100 3;
#X obj 101 303 *~ 0.2;
#X obj 101 334 dac~;
#X obj 191 260 vsl 15 40 0 1 0 0 empty empty amp 0 -9 0 10 -262144
-258113 -1 2186 1;
#X msg 21 26 \; pd dsp 0;
#X msg 85 26 \; pd dsp 1;
#X obj 183 71 bng 15 250 50 0 empty empty fire 0 -8 0 10 -262144 -1
-1;
#X obj 183 163 * 3000;
#X obj 220 34 vsl 15 60 0 5000 0 0 empty empty attack 0 -9 0 10 -262144
-258113 -1 2900 1;
#X floatatom 220 105 5 0 0 0 - - -;
#X obj 263 34 vsl 15 60 0 5000 0 0 empty empty decay 0 -9 0 10 -262144
-258113 -1 5100 1;
#X floatatom 263 105 5 0 0 0 - - -;
#X obj 313 55 vsl 15 60 0 10000 0 0 empty empty freq 0 -9 0 10 -262144
-258113 -1 1500 1;
#X floatatom 313 124 5 0 0 0 - - -;
#X obj 352 61 vsl 15 60 0 1000 0 0 empty empty minfreq 0 -9 0 10 -262144
-258113 -1 600 1;
#X floatatom 352 130 5 0 0 0 - - -;
#X obj 313 146 t b f;
#X obj 183 187 + 20;
#X obj 352 170 t b f;
#X obj 402 62 vsl 15 60 1 6 0 0 empty empty res 0 -9 0 10 -262144 -258113
-1 1100 1;
#X floatatom 402 184 5 0 0 0 - - -;
#X obj 183 138 envelope;
#X obj 21 87 vsl 15 60 50 10000 1 0 empty empty pitch 0 -9 0 10 -262144
-258113 -1 400 1;
#X obj 83 87 vsl 15 60 0 100 0 0 empty empty fatness 0 -9 0 10 -262144
-258113 -1 2596 1;
#X floatatom 83 156 5 0 0 0 - - -;
#X floatatom 21 157 5 0 0 0 - - -;
#X obj 21 179 fatsaws;
#X obj 101 275 hip~ 60;
#X connect 0 0 27 0;
#X connect 1 0 2 0;
#X connect 1 0 2 1;
#X connect 3 0 1 1;
#X connect 6 0 21 0;
#X connect 7 0 17 0;
#X connect 8 0 9 0;
#X connect 9 0 21 1;
#X connect 10 0 11 0;
#X connect 11 0 21 2;
#X connect 12 0 13 0;
#X connect 13 0 16 0;
#X connect 14 0 15 0;
#X connect 15 0 18 0;
#X connect 16 0 7 0;
#X connect 16 1 7 1;
#X connect 17 0 0 1;
#X connect 18 0 17 0;
#X connect 18 1 17 1;
#X connect 19 0 20 0;
#X connect 20 0 0 2;
#X connect 21 0 7 0;
#X connect 22 0 25 0;
#X connect 23 0 24 0;
#X connect 24 0 26 1;
#X connect 25 0 26 0;
#X connect 26 0 0 0;
#X connect 27 0 1 0;
