#N canvas 349 451 907 468 10;
#X obj 31 110 vsl 15 80 0 1 0 0 \$0-c1 \$0-c1in empty 0 -9 0 10 -262144
-1 -1 7900 1;
#X obj 46 110 vsl 15 80 0 1 0 0 \$0-c2 \$0-c2in empty 0 -9 0 10 -262144
-1 -1 0 1;
#X obj 61 110 vsl 15 80 0 1 0 0 \$0-c3 \$0-c3in empty 0 -9 0 10 -262144
-1 -1 0 1;
#X obj 76 110 vsl 15 80 0 1 0 0 \$0-c4 \$0-c4in empty 0 -9 0 10 -262144
-1 -1 0 1;
#X obj 91 110 vsl 15 80 0 1 0 0 \$0-c5 \$0-c5in empty 0 -9 0 10 -262144
-1 -1 0 1;
#X obj 106 110 vsl 15 80 0 1 0 0 \$0-c6 \$0-c6in empty 0 -9 0 10 -262144
-1 -1 0 1;
#X obj 121 110 vsl 15 80 0 1 0 0 \$0-c7 \$0-c7in empty 0 -9 0 10 -262144
-1 -1 0 1;
#X obj 136 110 vsl 15 80 0 1 0 0 \$0-c8 \$0-c8in empty 0 -9 0 10 -262144
-1 -1 0 1;
#X obj 13 108 bng 15 250 50 0 \$0-reset no empty 17 7 0 10 -262144
-1 -1;
#X obj 236 16 inlet~ freq;
#X obj 10 234 outlet~ sig;
#X obj 235 87 sin~;
#X obj 236 34 phasor~;
#X obj 10 203 r~ final;
#X obj 235 347 s~ final;
#X msg 240 126 \$1 30;
#X obj 240 108 r \$0-c1;
#X obj 236 68 *~ 1;
#X obj 286 87 sin~;
#X msg 291 126 \$1 30;
#X obj 287 68 *~ 2;
#X obj 291 108 r \$0-c2;
#X obj 337 87 sin~;
#X msg 342 126 \$1 30;
#X obj 342 108 r \$0-c3;
#X obj 338 68 *~ 3;
#X obj 388 87 sin~;
#X msg 393 126 \$1 30;
#X obj 389 68 *~ 4;
#X obj 393 108 r \$0-c4;
#X obj 439 87 sin~;
#X msg 444 126 \$1 30;
#X obj 490 87 sin~;
#X msg 495 126 \$1 30;
#X obj 542 87 sin~;
#X msg 547 126 \$1 30;
#X obj 594 87 sin~;
#X msg 599 126 \$1 30;
#X obj 444 108 r \$0-c5;
#X obj 495 108 r \$0-c6;
#X obj 547 108 r \$0-c7;
#X obj 599 108 r \$0-c8;
#X obj 440 68 *~ 5;
#X obj 491 68 *~ 6;
#X obj 543 68 *~ 7;
#X obj 595 68 *~ 8;
#X obj 250 209 r \$0-c1;
#X obj 300 209 r \$0-c2;
#X obj 350 209 r \$0-c3;
#X obj 400 209 r \$0-c4;
#X obj 450 209 r \$0-c5;
#X obj 500 209 r \$0-c6;
#X obj 550 209 r \$0-c7;
#X obj 600 209 r \$0-c8;
#X obj 235 163 *~;
#X obj 286 163 *~;
#X obj 240 144 vline~;
#X obj 291 144 vline~;
#X obj 342 144 vline~;
#X obj 337 163 *~;
#X obj 388 163 *~;
#X obj 439 163 *~;
#X obj 490 163 *~;
#X obj 542 163 *~;
#X obj 594 163 *~;
#X obj 393 144 vline~;
#X obj 444 144 vline~;
#X obj 495 144 vline~;
#X obj 547 144 vline~;
#X obj 599 144 vline~;
#X obj 356 368 s \$0-c1in;
#X msg 290 352 0;
#X obj 290 330 r \$0-reset;
#X obj 416 368 s \$0-c2in;
#X obj 476 368 s \$0-c3in;
#X obj 536 368 s \$0-c4in;
#X obj 596 368 s \$0-c5in;
#X obj 656 368 s \$0-c6in;
#X obj 716 368 s \$0-c7in;
#X obj 776 368 s \$0-c8in;
#X obj 356 347 clip 0 1;
#X obj 416 347 clip 0 1;
#X obj 476 347 clip 0 1;
#X obj 536 347 clip 0 1;
#X obj 596 347 clip 0 1;
#X obj 656 347 clip 0 1;
#X obj 716 347 clip 0 1;
#X obj 776 347 clip 0 1;
#X obj 416 325 inlet c2;
#X obj 476 325 inlet c3;
#X obj 536 325 inlet c4;
#X obj 596 325 inlet c5;
#X obj 656 325 inlet c6;
#X obj 716 325 inlet c7;
#X obj 776 325 inlet c8;
#X obj 250 249 vline~;
#X msg 250 229 \$1 30;
#X obj 300 249 vline~;
#X msg 300 229 \$1 30;
#X obj 350 249 vline~;
#X msg 350 229 \$1 30;
#X obj 400 249 vline~;
#X msg 400 229 \$1 30;
#X obj 450 249 vline~;
#X msg 450 229 \$1 30;
#X obj 500 249 vline~;
#X msg 500 229 \$1 30;
#X obj 550 249 vline~;
#X msg 550 229 \$1 30;
#X obj 600 249 vline~;
#X msg 600 229 \$1 30;
#X obj 645 87 sin~;
#X msg 650 125 \$1 30;
#X obj 645 163 *~;
#X obj 650 143 vline~;
#X obj 646 68 *~ 9;
#X obj 235 189 expr~ ($v1 + $v2 + $v3 + $v4 + $v5 + $v6 + $v7 + $v8
+ $v9);
#X obj 836 347 clip 0 1;
#X obj 836 325 inlet c9;
#X obj 836 368 s \$0-c9in;
#X obj 650 107 r \$0-c9;
#X obj 151 110 vsl 15 80 0 1 0 0 \$0-c9 \$0-c9in empty 0 -9 0 10 -262144
-1 -1 0 1;
#X text 9 11 9harm Synthesizer;
#X text 9 21 -----------------;
#X text 9 31 Adds up 9 different sin~ sigs;
#X text 9 41 Each slider controls amp of each freq;
#X text 9 51 Radio has default waveforms;
#X obj 13 138 vradio 14 1 0 3 \$0-radio \$0-none empty 0 -8 0 10 -262144
-1 -1 0;
#X obj 26 410 unpack f f f f f f f f f;
#X msg 49 372 list 1 0.5 0.33 0.25 0.2 0.16 0.14 0.125 0.11;
#X obj 26 433 s \$0-c1in;
#X obj 86 433 s \$0-c2in;
#X obj 146 433 s \$0-c3in;
#X obj 206 433 s \$0-c4in;
#X obj 266 433 s \$0-c5in;
#X obj 326 433 s \$0-c6in;
#X obj 386 433 s \$0-c7in;
#X obj 446 433 s \$0-c8in;
#X obj 506 433 s \$0-c9in;
#X obj 26 301 r \$0-radio;
#X msg 26 356 list 1 0 0 0 0 0 0 0 0;
#X msg 72 394 list 1 0 0.33 0 0.2 0 0.1428 0 0.111;
#X obj 250 270 expr~ ($v1 + $v2 + $v3 + $v4 + $v5 + $v6 + $v7 + $v8
+ $v9);
#X obj 650 249 vline~;
#X msg 650 229 \$1 30;
#X obj 650 209 r \$0-c9;
#X obj 26 329 select 0 1 2;
#X floatatom 187 138 5 0 0 0 - - -;
#X floatatom 187 156 5 0 0 0 - - -;
#X obj 250 289 clip~ 1 9;
#X obj 356 325 inlet c1;
#X obj 235 329 /~;
#X connect 9 0 12 0;
#X connect 11 0 54 0;
#X connect 12 0 17 0;
#X connect 12 0 20 0;
#X connect 12 0 25 0;
#X connect 12 0 28 0;
#X connect 12 0 42 0;
#X connect 12 0 43 0;
#X connect 12 0 44 0;
#X connect 12 0 45 0;
#X connect 12 0 115 0;
#X connect 13 0 10 0;
#X connect 15 0 56 0;
#X connect 16 0 15 0;
#X connect 16 0 147 0;
#X connect 17 0 11 0;
#X connect 18 0 55 0;
#X connect 19 0 57 0;
#X connect 20 0 18 0;
#X connect 21 0 19 0;
#X connect 21 0 148 0;
#X connect 22 0 59 0;
#X connect 23 0 58 0;
#X connect 24 0 23 0;
#X connect 25 0 22 0;
#X connect 26 0 60 0;
#X connect 27 0 65 0;
#X connect 28 0 26 0;
#X connect 29 0 27 0;
#X connect 30 0 61 0;
#X connect 31 0 66 0;
#X connect 32 0 62 0;
#X connect 33 0 67 0;
#X connect 34 0 63 0;
#X connect 35 0 68 0;
#X connect 36 0 64 0;
#X connect 37 0 69 0;
#X connect 38 0 31 0;
#X connect 39 0 33 0;
#X connect 40 0 35 0;
#X connect 41 0 37 0;
#X connect 42 0 30 0;
#X connect 43 0 32 0;
#X connect 44 0 34 0;
#X connect 45 0 36 0;
#X connect 46 0 96 0;
#X connect 47 0 98 0;
#X connect 48 0 100 0;
#X connect 49 0 102 0;
#X connect 50 0 104 0;
#X connect 51 0 106 0;
#X connect 52 0 108 0;
#X connect 53 0 110 0;
#X connect 54 0 116 0;
#X connect 55 0 116 1;
#X connect 56 0 54 1;
#X connect 57 0 55 1;
#X connect 58 0 59 1;
#X connect 59 0 116 2;
#X connect 60 0 116 3;
#X connect 61 0 116 4;
#X connect 62 0 116 5;
#X connect 63 0 116 6;
#X connect 64 0 116 7;
#X connect 65 0 60 1;
#X connect 66 0 61 1;
#X connect 67 0 62 1;
#X connect 68 0 63 1;
#X connect 69 0 64 1;
#X connect 71 0 70 0;
#X connect 71 0 73 0;
#X connect 71 0 74 0;
#X connect 71 0 75 0;
#X connect 71 0 76 0;
#X connect 71 0 77 0;
#X connect 71 0 78 0;
#X connect 71 0 79 0;
#X connect 71 0 119 0;
#X connect 72 0 71 0;
#X connect 80 0 70 0;
#X connect 81 0 73 0;
#X connect 82 0 74 0;
#X connect 83 0 75 0;
#X connect 84 0 76 0;
#X connect 85 0 77 0;
#X connect 86 0 78 0;
#X connect 87 0 79 0;
#X connect 88 0 81 0;
#X connect 89 0 82 0;
#X connect 90 0 83 0;
#X connect 91 0 84 0;
#X connect 92 0 85 0;
#X connect 93 0 86 0;
#X connect 94 0 87 0;
#X connect 95 0 142 0;
#X connect 96 0 95 0;
#X connect 97 0 142 1;
#X connect 98 0 97 0;
#X connect 99 0 142 2;
#X connect 100 0 99 0;
#X connect 101 0 142 3;
#X connect 102 0 101 0;
#X connect 103 0 142 4;
#X connect 104 0 103 0;
#X connect 105 0 142 5;
#X connect 106 0 105 0;
#X connect 107 0 142 6;
#X connect 108 0 107 0;
#X connect 109 0 142 7;
#X connect 110 0 109 0;
#X connect 111 0 113 0;
#X connect 112 0 114 0;
#X connect 113 0 116 8;
#X connect 114 0 113 1;
#X connect 115 0 111 0;
#X connect 116 0 151 0;
#X connect 117 0 119 0;
#X connect 118 0 117 0;
#X connect 120 0 112 0;
#X connect 128 0 130 0;
#X connect 128 1 131 0;
#X connect 128 2 132 0;
#X connect 128 3 133 0;
#X connect 128 4 134 0;
#X connect 128 5 135 0;
#X connect 128 6 136 0;
#X connect 128 7 137 0;
#X connect 128 8 138 0;
#X connect 129 0 128 0;
#X connect 139 0 146 0;
#X connect 140 0 128 0;
#X connect 141 0 128 0;
#X connect 142 0 149 0;
#X connect 143 0 142 8;
#X connect 144 0 143 0;
#X connect 145 0 144 0;
#X connect 146 0 140 0;
#X connect 146 1 129 0;
#X connect 146 2 141 0;
#X connect 149 0 151 1;
#X connect 150 0 80 0;
#X connect 151 0 14 0;
#X coords 0 -1 1 1 160 100 2 10 100;
