#N canvas 118 382 311 107 10;
#N canvas 1091 4 249 296 row_storage 1;
#N canvas 0 0 450 300 (subpatch) 0;
#X array row1 8 float 0;
#X coords 0 3 7 -3 100 40 1;
#X restore 18 -179 graph;
#N canvas 0 0 450 300 (subpatch) 0;
#X array row2 8 float 0;
#X coords 0 3 7 -3 100 40 1;
#X restore 18 -119 graph;
#N canvas 0 0 450 300 (subpatch) 0;
#X array row3 8 float 0;
#X coords 0 3 7 -3 100 40 1;
#X restore 18 -59 graph;
#N canvas 0 0 450 300 (subpatch) 0;
#X array row4 8 float 0;
#X coords 0 3 7 -3 100 40 1;
#X restore 18 1 graph;
#N canvas 0 0 450 300 (subpatch) 0;
#X array row5 8 float 0;
#X coords 0 3 7 -3 100 40 1;
#X restore 128 -179 graph;
#N canvas 0 0 450 300 (subpatch) 0;
#X array row6 8 float 0;
#X coords 0 3 7 -3 100 40 1;
#X restore 128 -119 graph;
#N canvas 0 0 450 300 (subpatch) 0;
#X array row7 8 float 0;
#X coords 0 3 7 -3 100 40 1;
#X restore 128 -59 graph;
#N canvas 0 0 450 300 (subpatch) 0;
#X array row8 8 float 0;
#X coords 0 3 7 -3 100 40 1;
#X restore 128 1 graph;
#X restore 0 78 pd row_storage;
#N canvas 524 191 450 301 settings 0;
#X obj 8 -174 metronome;
#X obj 8 -81 s beat;
#X floatatom 51 -102 5 0 0 0 - - -;
#X obj 51 -81 s bpm_change;
#X floatatom 89 -161 5 0 0 0 - - -;
#X floatatom 123 -161 5 0 0 0 - - -;
#X obj 89 -187 notein;
#X obj 299 -135 s color;
#X obj 302 -152 hsl 128 15 0 127 0 0 empty empty empty -2 -8 0 10 -262144
-1 -1 7500 1;
#X obj 12 16 + 1;
#X obj 12 39 mod 8;
#X obj 12 67 s num;
#X obj 44 -24 r num;
#X floatatom 55 68 5 0 0 0 - - -;
#X obj 12 -43 r beat;
#X obj 12 -7 f 0;
#X floatatom 158 -161 5 0 0 0 - - -;
#X floatatom 193 -161 5 0 0 0 - - -;
#X obj 158 -187 midiin;
#X floatatom 228 -161 5 0 0 0 - - -;
#X floatatom 262 -161 5 0 0 0 - - -;
#X obj 228 -187 ctlin;
#X obj 8 -197 r onoff;
#X obj 107 -38 r onoff;
#X obj 107 -17 route 0;
#N canvas 518 347 348 300 reset_lighting 0;
#X obj 9 10 inlet BANG;
#X text 84 10 Send 0 vel signals to all notes (0-127);
#X obj 9 99 f 0;
#X obj 9 56 t b b;
#X msg 147 73 0;
#X obj 9 159 route 1;
#X obj 9 133 <= 127;
#X obj 9 224 + 1;
#X obj 52 116 s evalnum;
#X obj 9 197 f 0;
#X obj 50 180 r evalnum;
#X floatatom 115 116 5 0 0 0 - - -;
#X obj 9 244 s indexnum;
#X obj 52 82 r indexnum;
#X obj 128 214 noteout;
#X msg 53 39 0;
#X connect 0 0 3 0;
#X connect 0 0 15 0;
#X connect 2 0 8 0;
#X connect 2 0 11 0;
#X connect 2 0 6 0;
#X connect 3 0 2 0;
#X connect 3 1 4 0;
#X connect 4 0 14 1;
#X connect 5 0 9 0;
#X connect 6 0 5 0;
#X connect 7 0 12 0;
#X connect 9 0 7 0;
#X connect 9 0 14 0;
#X connect 10 0 9 1;
#X connect 13 0 2 1;
#X connect 13 0 2 0;
#X connect 15 0 2 1;
#X restore 107 5 pd reset_lighting;
#X obj 143 -113 loadbang;
#X obj 143 -90 s none;
#X text 185 -95 on start don't run;
#X text 48 50 keeps track of colum ind;
#X text 105 19 reset all lights;
#X obj 299 -195 loadbang;
#X msg 299 -173 60;
#X connect 0 0 1 0;
#X connect 0 1 2 0;
#X connect 2 0 3 0;
#X connect 6 0 4 0;
#X connect 6 1 5 0;
#X connect 8 0 7 0;
#X connect 9 0 10 0;
#X connect 10 0 11 0;
#X connect 10 0 13 0;
#X connect 12 0 15 1;
#X connect 14 0 15 0;
#X connect 15 0 9 0;
#X connect 18 0 16 0;
#X connect 18 1 17 0;
#X connect 21 0 19 0;
#X connect 21 1 20 0;
#X connect 22 0 0 0;
#X connect 23 0 24 0;
#X connect 24 0 25 0;
#X connect 26 0 27 0;
#X connect 31 0 32 0;
#X connect 32 0 8 0;
#X restore 0 40 pd settings;
#N canvas 893 363 450 300 lighting 0;
#X obj 16 9 r num;
#X floatatom 96 26 5 0 0 0 - - -;
#X obj 16 69 route 0 1 2 3 4 5 6 7;
#N canvas 266 330 380 238 column1 0;
#X obj 15 78 noteout;
#X msg 254 54 127;
#X msg 15 54 0;
#X obj 15 31 t b b b b b b b b b;
#X msg 45 54 16;
#X msg 75 54 32;
#X msg 105 54 48;
#X msg 135 54 64;
#X msg 165 54 80;
#X msg 195 54 96;
#X msg 225 54 112;
#X obj 15 168 noteout;
#X obj 15 121 t b b b b b b b b b;
#X msg 15 144 7;
#X msg 45 144 23;
#X msg 75 144 39;
#X msg 105 144 55;
#X msg 135 144 71;
#X msg 165 144 87;
#X msg 195 144 103;
#X msg 225 144 119;
#X msg 254 144 0;
#X obj 15 98 r col1;
#X obj 14 -8 r col1;
#X obj 267 85 inlet bang;
#X obj 267 111 s col1;
#X obj 63 10 delay 5;
#X connect 1 0 0 1;
#X connect 2 0 0 0;
#X connect 3 0 2 0;
#X connect 3 1 4 0;
#X connect 3 2 5 0;
#X connect 3 3 6 0;
#X connect 3 4 7 0;
#X connect 3 5 8 0;
#X connect 3 6 9 0;
#X connect 3 7 10 0;
#X connect 3 8 1 0;
#X connect 4 0 0 0;
#X connect 5 0 0 0;
#X connect 6 0 0 0;
#X connect 7 0 0 0;
#X connect 8 0 0 0;
#X connect 9 0 0 0;
#X connect 10 0 0 0;
#X connect 12 0 13 0;
#X connect 12 1 14 0;
#X connect 12 2 15 0;
#X connect 12 3 16 0;
#X connect 12 4 17 0;
#X connect 12 5 18 0;
#X connect 12 6 19 0;
#X connect 12 7 20 0;
#X connect 12 8 21 0;
#X connect 13 0 11 0;
#X connect 14 0 11 0;
#X connect 15 0 11 0;
#X connect 16 0 11 0;
#X connect 17 0 11 0;
#X connect 18 0 11 0;
#X connect 19 0 11 0;
#X connect 20 0 11 0;
#X connect 21 0 11 1;
#X connect 22 0 12 0;
#X connect 23 0 26 0;
#X connect 24 0 25 0;
#X connect 26 0 3 0;
#X restore 16 245 pd column1;
#N canvas 266 365 380 203 column2 0;
#X obj 15 78 noteout;
#X msg 254 54 127;
#X obj 15 31 t b b b b b b b b b;
#X obj 15 168 noteout;
#X obj 15 121 t b b b b b b b b b;
#X msg 254 144 0;
#X obj 267 85 inlet bang;
#X obj 267 111 s col2;
#X obj 15 98 r col2;
#X obj 15 -9 r col2;
#X msg 15 54 1;
#X msg 45 54 17;
#X msg 75 54 33;
#X msg 105 54 49;
#X msg 135 54 65;
#X msg 165 54 81;
#X msg 195 54 97;
#X msg 225 54 113;
#X msg 15 144 0;
#X msg 45 144 16;
#X msg 75 144 32;
#X msg 105 144 48;
#X msg 135 144 64;
#X msg 165 144 80;
#X msg 195 144 96;
#X msg 225 144 112;
#X obj 66 12 delay 5;
#X connect 1 0 0 1;
#X connect 2 0 10 0;
#X connect 2 1 11 0;
#X connect 2 2 12 0;
#X connect 2 3 13 0;
#X connect 2 4 14 0;
#X connect 2 5 15 0;
#X connect 2 6 16 0;
#X connect 2 7 17 0;
#X connect 2 8 1 0;
#X connect 4 0 18 0;
#X connect 4 1 19 0;
#X connect 4 2 20 0;
#X connect 4 3 21 0;
#X connect 4 4 22 0;
#X connect 4 5 23 0;
#X connect 4 6 24 0;
#X connect 4 7 25 0;
#X connect 4 8 5 0;
#X connect 5 0 3 1;
#X connect 6 0 7 0;
#X connect 8 0 4 0;
#X connect 9 0 26 0;
#X connect 10 0 0 0;
#X connect 11 0 0 0;
#X connect 12 0 0 0;
#X connect 13 0 0 0;
#X connect 14 0 0 0;
#X connect 15 0 0 0;
#X connect 16 0 0 0;
#X connect 17 0 0 0;
#X connect 18 0 3 0;
#X connect 19 0 3 0;
#X connect 20 0 3 0;
#X connect 21 0 3 0;
#X connect 22 0 3 0;
#X connect 23 0 3 0;
#X connect 24 0 3 0;
#X connect 25 0 3 0;
#X connect 26 0 2 0;
#X restore 31 225 pd column2;
#N canvas 266 365 380 203 column3 0;
#X text 97 9 light up one column \, de-light the previous;
#X obj 15 78 noteout;
#X obj 15 31 t b b b b b b b b b;
#X obj 15 168 noteout;
#X obj 15 121 t b b b b b b b b b;
#X obj 267 85 inlet bang;
#X msg 15 54 1;
#X msg 45 54 17;
#X msg 75 54 33;
#X msg 105 54 49;
#X msg 135 54 65;
#X msg 165 54 81;
#X msg 195 54 97;
#X msg 225 54 113;
#X obj 267 111 s col3;
#X obj 15 10 r col3;
#X obj 15 98 r col3;
#X msg 254 54 0;
#X msg 254 144 127;
#X msg 15 144 2;
#X msg 45 144 18;
#X msg 75 144 34;
#X msg 105 144 50;
#X msg 135 144 66;
#X msg 165 144 82;
#X msg 195 144 98;
#X msg 225 144 114;
#X obj 86 94 delay 5;
#X connect 2 0 6 0;
#X connect 2 1 7 0;
#X connect 2 2 8 0;
#X connect 2 3 9 0;
#X connect 2 4 10 0;
#X connect 2 5 11 0;
#X connect 2 6 12 0;
#X connect 2 7 13 0;
#X connect 2 8 17 0;
#X connect 4 0 19 0;
#X connect 4 1 20 0;
#X connect 4 2 21 0;
#X connect 4 3 22 0;
#X connect 4 4 23 0;
#X connect 4 5 24 0;
#X connect 4 6 25 0;
#X connect 4 7 26 0;
#X connect 4 8 18 0;
#X connect 5 0 14 0;
#X connect 6 0 1 0;
#X connect 7 0 1 0;
#X connect 8 0 1 0;
#X connect 9 0 1 0;
#X connect 10 0 1 0;
#X connect 11 0 1 0;
#X connect 12 0 1 0;
#X connect 13 0 1 0;
#X connect 15 0 2 0;
#X connect 16 0 27 0;
#X connect 17 0 1 1;
#X connect 18 0 3 1;
#X connect 19 0 3 0;
#X connect 20 0 3 0;
#X connect 21 0 3 0;
#X connect 22 0 3 0;
#X connect 23 0 3 0;
#X connect 24 0 3 0;
#X connect 25 0 3 0;
#X connect 26 0 3 0;
#X connect 27 0 4 0;
#X restore 46 205 pd column3;
#N canvas 587 98 380 203 column4 0;
#X obj 15 78 noteout;
#X obj 15 31 t b b b b b b b b b;
#X obj 15 168 noteout;
#X obj 15 121 t b b b b b b b b b;
#X obj 267 85 inlet bang;
#X msg 15 144 2;
#X msg 45 144 18;
#X msg 75 144 34;
#X msg 105 144 50;
#X msg 135 144 66;
#X msg 165 144 82;
#X msg 195 144 98;
#X msg 225 144 114;
#X obj 267 111 s col4;
#X obj 22 0 r col4;
#X obj 15 98 r col4;
#X msg 254 144 0;
#X msg 254 54 127;
#X msg 15 54 3;
#X msg 45 54 19;
#X msg 75 54 35;
#X msg 105 54 51;
#X msg 135 54 67;
#X msg 165 54 83;
#X msg 195 54 99;
#X msg 225 54 115;
#X obj 95 6 delay 5;
#X connect 1 0 18 0;
#X connect 1 1 19 0;
#X connect 1 2 20 0;
#X connect 1 3 21 0;
#X connect 1 4 22 0;
#X connect 1 5 23 0;
#X connect 1 6 24 0;
#X connect 1 7 25 0;
#X connect 1 8 17 0;
#X connect 3 0 5 0;
#X connect 3 1 6 0;
#X connect 3 2 7 0;
#X connect 3 3 8 0;
#X connect 3 4 9 0;
#X connect 3 5 10 0;
#X connect 3 6 11 0;
#X connect 3 7 12 0;
#X connect 3 8 16 0;
#X connect 4 0 13 0;
#X connect 5 0 2 0;
#X connect 6 0 2 0;
#X connect 7 0 2 0;
#X connect 8 0 2 0;
#X connect 9 0 2 0;
#X connect 10 0 2 0;
#X connect 11 0 2 0;
#X connect 12 0 2 0;
#X connect 14 0 26 0;
#X connect 15 0 3 0;
#X connect 16 0 2 1;
#X connect 17 0 0 1;
#X connect 18 0 0 0;
#X connect 19 0 0 0;
#X connect 20 0 0 0;
#X connect 21 0 0 0;
#X connect 22 0 0 0;
#X connect 23 0 0 0;
#X connect 24 0 0 0;
#X connect 25 0 0 0;
#X connect 26 0 1 0;
#X restore 62 184 pd column4;
#N canvas 586 292 380 203 column5 0;
#X text 97 9 light up one column \, de-light the previous;
#X obj 15 78 noteout;
#X obj 15 31 t b b b b b b b b b;
#X obj 15 168 noteout;
#X obj 15 121 t b b b b b b b b b;
#X obj 267 85 inlet bang;
#X msg 15 54 3;
#X msg 45 54 19;
#X msg 75 54 35;
#X msg 105 54 51;
#X msg 135 54 67;
#X msg 165 54 83;
#X msg 195 54 99;
#X msg 225 54 115;
#X obj 267 111 s col5;
#X obj 15 10 r col5;
#X obj 15 98 r col5;
#X msg 254 54 0;
#X msg 254 144 127;
#X msg 15 144 4;
#X msg 45 144 20;
#X msg 75 144 36;
#X msg 105 144 52;
#X msg 135 144 68;
#X msg 165 144 84;
#X msg 195 144 100;
#X msg 225 144 116;
#X obj 87 94 delay 5;
#X connect 2 0 6 0;
#X connect 2 1 7 0;
#X connect 2 2 8 0;
#X connect 2 3 9 0;
#X connect 2 4 10 0;
#X connect 2 5 11 0;
#X connect 2 6 12 0;
#X connect 2 7 13 0;
#X connect 2 8 17 0;
#X connect 4 0 19 0;
#X connect 4 1 20 0;
#X connect 4 2 21 0;
#X connect 4 3 22 0;
#X connect 4 4 23 0;
#X connect 4 5 24 0;
#X connect 4 6 25 0;
#X connect 4 7 26 0;
#X connect 4 8 18 0;
#X connect 5 0 14 0;
#X connect 6 0 1 0;
#X connect 7 0 1 0;
#X connect 8 0 1 0;
#X connect 9 0 1 0;
#X connect 10 0 1 0;
#X connect 11 0 1 0;
#X connect 12 0 1 0;
#X connect 13 0 1 0;
#X connect 15 0 2 0;
#X connect 16 0 27 0;
#X connect 17 0 1 1;
#X connect 18 0 3 1;
#X connect 19 0 3 0;
#X connect 20 0 3 0;
#X connect 21 0 3 0;
#X connect 22 0 3 0;
#X connect 23 0 3 0;
#X connect 24 0 3 0;
#X connect 25 0 3 0;
#X connect 26 0 3 0;
#X connect 27 0 4 0;
#X restore 77 164 pd column5;
#N canvas 614 361 380 203 column6 0;
#X obj 15 78 noteout;
#X obj 15 31 t b b b b b b b b b;
#X obj 15 168 noteout;
#X obj 15 121 t b b b b b b b b b;
#X obj 267 85 inlet bang;
#X msg 15 144 4;
#X msg 45 144 20;
#X msg 75 144 36;
#X msg 105 144 52;
#X msg 135 144 68;
#X msg 165 144 84;
#X msg 195 144 100;
#X msg 225 144 116;
#X obj 267 111 s col6;
#X obj 15 6 r col6;
#X obj 15 98 r col6;
#X msg 254 144 0;
#X msg 253 54 127;
#X msg 15 54 5;
#X msg 45 54 21;
#X msg 75 54 37;
#X msg 105 54 53;
#X msg 135 54 69;
#X msg 165 54 85;
#X msg 195 54 101;
#X msg 225 54 117;
#X obj 73 11 delay 5;
#X connect 1 0 18 0;
#X connect 1 1 19 0;
#X connect 1 2 20 0;
#X connect 1 3 21 0;
#X connect 1 4 22 0;
#X connect 1 5 23 0;
#X connect 1 6 24 0;
#X connect 1 7 25 0;
#X connect 1 8 17 0;
#X connect 3 0 5 0;
#X connect 3 1 6 0;
#X connect 3 2 7 0;
#X connect 3 3 8 0;
#X connect 3 4 9 0;
#X connect 3 5 10 0;
#X connect 3 6 11 0;
#X connect 3 7 12 0;
#X connect 3 8 16 0;
#X connect 4 0 13 0;
#X connect 5 0 2 0;
#X connect 6 0 2 0;
#X connect 7 0 2 0;
#X connect 8 0 2 0;
#X connect 9 0 2 0;
#X connect 10 0 2 0;
#X connect 11 0 2 0;
#X connect 12 0 2 0;
#X connect 14 0 26 0;
#X connect 15 0 3 0;
#X connect 16 0 2 1;
#X connect 17 0 0 1;
#X connect 18 0 0 0;
#X connect 19 0 0 0;
#X connect 20 0 0 0;
#X connect 21 0 0 0;
#X connect 22 0 0 0;
#X connect 23 0 0 0;
#X connect 24 0 0 0;
#X connect 25 0 0 0;
#X connect 26 0 1 0;
#X restore 92 144 pd column6;
#N canvas 266 365 380 203 column7 0;
#X text 97 9 light up one column \, de-light the previous;
#X obj 15 78 noteout;
#X obj 15 31 t b b b b b b b b b;
#X obj 15 168 noteout;
#X obj 15 121 t b b b b b b b b b;
#X obj 267 85 inlet bang;
#X msg 15 54 5;
#X msg 45 54 21;
#X msg 75 54 37;
#X msg 105 54 53;
#X msg 135 54 69;
#X msg 165 54 85;
#X msg 195 54 101;
#X msg 225 54 117;
#X obj 267 111 s col7;
#X obj 15 10 r col7;
#X obj 15 98 r col7;
#X msg 254 144 127;
#X msg 253 54 0;
#X msg 15 144 6;
#X msg 45 144 22;
#X msg 75 144 38;
#X msg 105 144 54;
#X msg 135 144 70;
#X msg 165 144 86;
#X msg 195 144 102;
#X msg 225 144 118;
#X obj 83 96 delay 5;
#X connect 2 0 6 0;
#X connect 2 1 7 0;
#X connect 2 2 8 0;
#X connect 2 3 9 0;
#X connect 2 4 10 0;
#X connect 2 5 11 0;
#X connect 2 6 12 0;
#X connect 2 7 13 0;
#X connect 2 8 18 0;
#X connect 4 0 19 0;
#X connect 4 1 20 0;
#X connect 4 2 21 0;
#X connect 4 3 22 0;
#X connect 4 4 23 0;
#X connect 4 5 24 0;
#X connect 4 6 25 0;
#X connect 4 7 26 0;
#X connect 4 8 17 0;
#X connect 5 0 14 0;
#X connect 6 0 1 0;
#X connect 7 0 1 0;
#X connect 8 0 1 0;
#X connect 9 0 1 0;
#X connect 10 0 1 0;
#X connect 11 0 1 0;
#X connect 12 0 1 0;
#X connect 13 0 1 0;
#X connect 15 0 2 0;
#X connect 16 0 27 0;
#X connect 17 0 3 1;
#X connect 18 0 1 1;
#X connect 19 0 3 0;
#X connect 20 0 3 0;
#X connect 21 0 3 0;
#X connect 22 0 3 0;
#X connect 23 0 3 0;
#X connect 24 0 3 0;
#X connect 25 0 3 0;
#X connect 26 0 3 0;
#X connect 27 0 4 0;
#X restore 108 124 pd column7;
#N canvas 266 365 380 203 column8 0;
#X obj 15 78 noteout;
#X obj 15 31 t b b b b b b b b b;
#X obj 15 168 noteout;
#X obj 15 121 t b b b b b b b b b;
#X obj 267 85 inlet bang;
#X msg 15 144 6;
#X msg 45 144 22;
#X msg 75 144 38;
#X msg 105 144 54;
#X msg 135 144 70;
#X msg 165 144 86;
#X msg 195 144 102;
#X msg 225 144 118;
#X msg 253 54 127;
#X msg 254 144 0;
#X msg 15 54 7;
#X msg 45 54 23;
#X msg 75 54 39;
#X msg 105 54 55;
#X msg 135 53 71;
#X msg 165 54 87;
#X msg 195 54 103;
#X msg 225 54 119;
#X obj 267 111 s col8;
#X obj 15 5 r col8;
#X obj 15 98 r col8;
#X obj 77 9 delay 5;
#X connect 1 0 15 0;
#X connect 1 1 16 0;
#X connect 1 2 17 0;
#X connect 1 3 18 0;
#X connect 1 4 19 0;
#X connect 1 5 20 0;
#X connect 1 6 21 0;
#X connect 1 7 22 0;
#X connect 1 8 13 0;
#X connect 3 0 5 0;
#X connect 3 1 6 0;
#X connect 3 2 7 0;
#X connect 3 3 8 0;
#X connect 3 4 9 0;
#X connect 3 5 10 0;
#X connect 3 6 11 0;
#X connect 3 7 12 0;
#X connect 3 8 14 0;
#X connect 4 0 23 0;
#X connect 5 0 2 0;
#X connect 6 0 2 0;
#X connect 7 0 2 0;
#X connect 8 0 2 0;
#X connect 9 0 2 0;
#X connect 10 0 2 0;
#X connect 11 0 2 0;
#X connect 12 0 2 0;
#X connect 13 0 0 1;
#X connect 14 0 2 1;
#X connect 15 0 0 0;
#X connect 16 0 0 0;
#X connect 17 0 0 0;
#X connect 18 0 0 0;
#X connect 19 0 0 0;
#X connect 20 0 0 0;
#X connect 21 0 0 0;
#X connect 22 0 0 0;
#X connect 24 0 26 0;
#X connect 25 0 3 0;
#X connect 26 0 1 0;
#X restore 123 104 pd column8;
#X connect 0 0 1 0;
#X connect 0 0 2 0;
#X connect 2 0 3 0;
#X connect 2 1 4 0;
#X connect 2 2 5 0;
#X connect 2 3 6 0;
#X connect 2 4 7 0;
#X connect 2 5 8 0;
#X connect 2 6 9 0;
#X connect 2 7 10 0;
#X restore 0 59 pd lighting;
#N canvas 64 230 450 300 logic 0;
#N canvas 284 78 265 231 row1 0;
#X obj 12 9 r noteval;
#X obj 12 38 route 0 1 2 3 4 5 6 7;
#X obj 52 96 tabread row1;
#X obj 62 112 + 1;
#X obj 62 131 mod 2;
#X msg 12 55 0;
#X msg 42 55 1;
#X msg 72 55 2;
#X msg 102 55 3;
#X msg 132 55 4;
#X msg 162 55 5;
#X msg 192 55 6;
#X msg 222 55 7;
#X obj 196 112 f 0;
#X obj 12 148 f 0;
#X obj 12 188 tabwrite row1;
#X obj 12 95 t b b;
#X obj 15 167 s row1bang;
#X obj 12 123 delay 1;
#X connect 0 0 1 0;
#X connect 1 0 5 0;
#X connect 1 1 6 0;
#X connect 1 2 7 0;
#X connect 1 3 8 0;
#X connect 1 4 9 0;
#X connect 1 5 10 0;
#X connect 1 6 11 0;
#X connect 1 7 12 0;
#X connect 2 0 3 0;
#X connect 3 0 4 0;
#X connect 4 0 14 1;
#X connect 5 0 2 0;
#X connect 5 0 13 1;
#X connect 5 0 16 0;
#X connect 6 0 2 0;
#X connect 6 0 13 1;
#X connect 6 0 16 0;
#X connect 7 0 2 0;
#X connect 7 0 13 1;
#X connect 7 0 16 0;
#X connect 8 0 2 0;
#X connect 8 0 13 1;
#X connect 8 0 16 0;
#X connect 9 0 2 0;
#X connect 9 0 13 1;
#X connect 9 0 16 0;
#X connect 10 0 2 0;
#X connect 10 0 13 1;
#X connect 10 0 16 0;
#X connect 11 0 2 0;
#X connect 11 0 13 1;
#X connect 11 0 16 0;
#X connect 12 0 2 0;
#X connect 12 0 13 1;
#X connect 12 0 16 0;
#X connect 13 0 15 1;
#X connect 14 0 15 0;
#X connect 14 0 17 0;
#X connect 16 0 18 0;
#X connect 16 1 13 0;
#X connect 18 0 14 0;
#X restore 119 33 pd row1;
#X obj 24 17 notein;
#X obj 9 76 f 0;
#X obj 40 37 route 127;
#X floatatom 76 93 5 0 0 0 - - -;
#X obj 9 96 s noteval;
#X obj 40 59 delay 1;
#N canvas 284 78 298 215 row2 0;
#X obj 12 9 r noteval;
#X obj 62 112 + 1;
#X obj 62 131 mod 2;
#X msg 12 55 0;
#X msg 42 55 1;
#X msg 72 55 2;
#X msg 102 55 3;
#X msg 132 55 4;
#X msg 162 55 5;
#X msg 192 55 6;
#X msg 222 55 7;
#X obj 196 112 f 0;
#X obj 12 148 f 0;
#X obj 12 95 t b b;
#X obj 12 38 route 16 17 18 19 20 21 22 23;
#X obj 52 96 tabread row2;
#X obj 12 188 tabwrite row2;
#X obj 15 167 s row2bang;
#X obj 12 125 delay 1;
#X connect 0 0 14 0;
#X connect 1 0 2 0;
#X connect 2 0 12 1;
#X connect 3 0 11 1;
#X connect 3 0 13 0;
#X connect 3 0 15 0;
#X connect 4 0 11 1;
#X connect 4 0 13 0;
#X connect 4 0 15 0;
#X connect 5 0 11 1;
#X connect 5 0 13 0;
#X connect 5 0 15 0;
#X connect 6 0 11 1;
#X connect 6 0 13 0;
#X connect 6 0 15 0;
#X connect 7 0 11 1;
#X connect 7 0 13 0;
#X connect 7 0 15 0;
#X connect 8 0 11 1;
#X connect 8 0 13 0;
#X connect 8 0 15 0;
#X connect 9 0 11 1;
#X connect 9 0 13 0;
#X connect 9 0 15 0;
#X connect 10 0 11 1;
#X connect 10 0 13 0;
#X connect 10 0 15 0;
#X connect 11 0 16 1;
#X connect 12 0 16 0;
#X connect 12 0 17 0;
#X connect 13 0 18 0;
#X connect 13 1 11 0;
#X connect 14 0 3 0;
#X connect 14 1 4 0;
#X connect 14 2 5 0;
#X connect 14 3 6 0;
#X connect 14 4 7 0;
#X connect 14 5 8 0;
#X connect 14 6 9 0;
#X connect 14 7 10 0;
#X connect 15 0 1 0;
#X connect 18 0 12 0;
#X restore 119 53 pd row2;
#N canvas 284 78 298 215 row3 0;
#X obj 12 9 r noteval;
#X obj 62 112 + 1;
#X obj 62 131 mod 2;
#X msg 12 55 0;
#X msg 42 55 1;
#X msg 72 55 2;
#X msg 102 55 3;
#X msg 132 55 4;
#X msg 162 55 5;
#X msg 192 55 6;
#X msg 222 55 7;
#X obj 196 112 f 0;
#X obj 12 148 f 0;
#X obj 12 95 t b b;
#X obj 12 125 delay 1;
#X obj 12 188 tabwrite row3;
#X obj 15 167 s row3bang;
#X obj 52 96 tabread row3;
#X obj 12 38 route 32 33 34 35 36 37 38 39;
#X connect 0 0 18 0;
#X connect 1 0 2 0;
#X connect 2 0 12 1;
#X connect 3 0 11 1;
#X connect 3 0 13 0;
#X connect 3 0 17 0;
#X connect 4 0 11 1;
#X connect 4 0 13 0;
#X connect 4 0 17 0;
#X connect 5 0 11 1;
#X connect 5 0 13 0;
#X connect 5 0 17 0;
#X connect 6 0 11 1;
#X connect 6 0 13 0;
#X connect 6 0 17 0;
#X connect 7 0 11 1;
#X connect 7 0 13 0;
#X connect 7 0 17 0;
#X connect 8 0 11 1;
#X connect 8 0 13 0;
#X connect 8 0 17 0;
#X connect 9 0 11 1;
#X connect 9 0 13 0;
#X connect 9 0 17 0;
#X connect 10 0 11 1;
#X connect 10 0 13 0;
#X connect 10 0 17 0;
#X connect 11 0 15 1;
#X connect 12 0 15 0;
#X connect 12 0 16 0;
#X connect 13 0 14 0;
#X connect 13 1 11 0;
#X connect 14 0 12 0;
#X connect 17 0 1 0;
#X connect 18 0 3 0;
#X connect 18 1 4 0;
#X connect 18 2 5 0;
#X connect 18 3 6 0;
#X connect 18 4 7 0;
#X connect 18 5 8 0;
#X connect 18 6 9 0;
#X connect 18 7 10 0;
#X restore 119 73 pd row3;
#N canvas 284 78 298 215 row4 0;
#X obj 12 9 r noteval;
#X obj 62 112 + 1;
#X obj 62 131 mod 2;
#X msg 12 55 0;
#X msg 42 55 1;
#X msg 72 55 2;
#X msg 102 55 3;
#X msg 132 55 4;
#X msg 162 55 5;
#X msg 192 55 6;
#X msg 222 55 7;
#X obj 196 112 f 0;
#X obj 12 148 f 0;
#X obj 12 95 t b b;
#X obj 12 125 delay 1;
#X obj 12 38 route 48 49 50 51 52 53 54 55;
#X obj 52 96 tabread row4;
#X obj 12 187 tabwrite row4;
#X obj 15 167 s row4bang;
#X connect 0 0 15 0;
#X connect 1 0 2 0;
#X connect 2 0 12 1;
#X connect 3 0 11 1;
#X connect 3 0 13 0;
#X connect 3 0 16 0;
#X connect 4 0 11 1;
#X connect 4 0 13 0;
#X connect 4 0 16 0;
#X connect 5 0 11 1;
#X connect 5 0 13 0;
#X connect 5 0 16 0;
#X connect 6 0 11 1;
#X connect 6 0 13 0;
#X connect 6 0 16 0;
#X connect 7 0 11 1;
#X connect 7 0 13 0;
#X connect 7 0 16 0;
#X connect 8 0 11 1;
#X connect 8 0 13 0;
#X connect 8 0 16 0;
#X connect 9 0 11 1;
#X connect 9 0 13 0;
#X connect 9 0 16 0;
#X connect 10 0 11 1;
#X connect 10 0 13 0;
#X connect 10 0 16 0;
#X connect 11 0 17 1;
#X connect 12 0 17 0;
#X connect 12 0 18 0;
#X connect 13 0 14 0;
#X connect 13 1 11 0;
#X connect 14 0 12 0;
#X connect 15 0 3 0;
#X connect 15 1 4 0;
#X connect 15 2 5 0;
#X connect 15 3 6 0;
#X connect 15 4 7 0;
#X connect 15 5 8 0;
#X connect 15 6 9 0;
#X connect 15 7 10 0;
#X connect 16 0 1 0;
#X restore 119 93 pd row4;
#N canvas 284 78 298 215 row5 0;
#X obj 12 9 r noteval;
#X obj 62 112 + 1;
#X obj 62 131 mod 2;
#X msg 12 55 0;
#X msg 42 55 1;
#X msg 72 55 2;
#X msg 102 55 3;
#X msg 132 55 4;
#X msg 162 55 5;
#X msg 192 55 6;
#X msg 222 55 7;
#X obj 196 112 f 0;
#X obj 12 148 f 0;
#X obj 12 95 t b b;
#X obj 12 123 delay 1;
#X obj 12 38 route 64 65 66 67 68 69 70 71;
#X obj 52 96 tabread row5;
#X obj 15 167 s row5bang;
#X obj 12 188 tabwrite row5;
#X connect 0 0 15 0;
#X connect 1 0 2 0;
#X connect 2 0 12 1;
#X connect 3 0 11 1;
#X connect 3 0 13 0;
#X connect 3 0 16 0;
#X connect 4 0 11 1;
#X connect 4 0 13 0;
#X connect 4 0 16 0;
#X connect 5 0 11 1;
#X connect 5 0 13 0;
#X connect 5 0 16 0;
#X connect 6 0 11 1;
#X connect 6 0 13 0;
#X connect 6 0 16 0;
#X connect 7 0 11 1;
#X connect 7 0 13 0;
#X connect 7 0 16 0;
#X connect 8 0 11 1;
#X connect 8 0 13 0;
#X connect 8 0 16 0;
#X connect 9 0 11 1;
#X connect 9 0 13 0;
#X connect 9 0 16 0;
#X connect 10 0 11 1;
#X connect 10 0 13 0;
#X connect 10 0 16 0;
#X connect 11 0 18 1;
#X connect 12 0 17 0;
#X connect 12 0 18 0;
#X connect 13 0 14 0;
#X connect 13 1 11 0;
#X connect 14 0 12 0;
#X connect 15 0 3 0;
#X connect 15 1 4 0;
#X connect 15 2 5 0;
#X connect 15 3 6 0;
#X connect 15 4 7 0;
#X connect 15 5 8 0;
#X connect 15 6 9 0;
#X connect 15 7 10 0;
#X connect 16 0 1 0;
#X restore 169 33 pd row5;
#N canvas 284 78 298 215 row6 0;
#X obj 12 9 r noteval;
#X obj 62 112 + 1;
#X obj 62 131 mod 2;
#X msg 12 55 0;
#X msg 42 55 1;
#X msg 72 55 2;
#X msg 102 55 3;
#X msg 132 55 4;
#X msg 162 55 5;
#X msg 192 55 6;
#X msg 222 55 7;
#X obj 196 112 f 0;
#X obj 12 148 f 0;
#X obj 12 95 t b b;
#X obj 12 125 delay 1;
#X obj 12 38 route 80 81 82 83 84 85 86 87;
#X obj 52 96 tabread row6;
#X obj 15 167 s row6bang;
#X obj 12 188 tabwrite row6;
#X connect 0 0 15 0;
#X connect 1 0 2 0;
#X connect 2 0 12 1;
#X connect 3 0 11 1;
#X connect 3 0 13 0;
#X connect 3 0 16 0;
#X connect 4 0 11 1;
#X connect 4 0 13 0;
#X connect 4 0 16 0;
#X connect 5 0 11 1;
#X connect 5 0 13 0;
#X connect 5 0 16 0;
#X connect 6 0 11 1;
#X connect 6 0 13 0;
#X connect 6 0 16 0;
#X connect 7 0 11 1;
#X connect 7 0 13 0;
#X connect 7 0 16 0;
#X connect 8 0 11 1;
#X connect 8 0 13 0;
#X connect 8 0 16 0;
#X connect 9 0 11 1;
#X connect 9 0 13 0;
#X connect 9 0 16 0;
#X connect 10 0 11 1;
#X connect 10 0 13 0;
#X connect 10 0 16 0;
#X connect 11 0 18 1;
#X connect 12 0 17 0;
#X connect 12 0 18 0;
#X connect 13 0 14 0;
#X connect 13 1 11 0;
#X connect 14 0 12 0;
#X connect 15 0 3 0;
#X connect 15 1 4 0;
#X connect 15 2 5 0;
#X connect 15 3 6 0;
#X connect 15 4 7 0;
#X connect 15 5 8 0;
#X connect 15 6 9 0;
#X connect 15 7 10 0;
#X connect 16 0 1 0;
#X restore 169 53 pd row6;
#N canvas 284 78 298 215 row7 0;
#X obj 12 9 r noteval;
#X obj 62 112 + 1;
#X obj 62 131 mod 2;
#X msg 12 55 0;
#X msg 42 55 1;
#X msg 72 55 2;
#X msg 102 55 3;
#X msg 132 55 4;
#X msg 162 55 5;
#X msg 192 55 6;
#X msg 222 55 7;
#X obj 196 112 f 0;
#X obj 12 148 f 0;
#X obj 12 95 t b b;
#X obj 12 125 delay 1;
#X obj 12 38 route 96 97 98 99 100 101 102 103;
#X obj 52 96 tabread row7;
#X obj 12 188 tabwrite row7;
#X obj 15 167 s row7bang;
#X connect 0 0 15 0;
#X connect 1 0 2 0;
#X connect 2 0 12 1;
#X connect 3 0 11 1;
#X connect 3 0 13 0;
#X connect 3 0 16 0;
#X connect 4 0 11 1;
#X connect 4 0 13 0;
#X connect 4 0 16 0;
#X connect 5 0 11 1;
#X connect 5 0 13 0;
#X connect 5 0 16 0;
#X connect 6 0 11 1;
#X connect 6 0 13 0;
#X connect 6 0 16 0;
#X connect 7 0 11 1;
#X connect 7 0 13 0;
#X connect 7 0 16 0;
#X connect 8 0 11 1;
#X connect 8 0 13 0;
#X connect 8 0 16 0;
#X connect 9 0 11 1;
#X connect 9 0 13 0;
#X connect 9 0 16 0;
#X connect 10 0 11 1;
#X connect 10 0 13 0;
#X connect 10 0 16 0;
#X connect 11 0 17 1;
#X connect 12 0 17 0;
#X connect 12 0 18 0;
#X connect 13 0 14 0;
#X connect 13 1 11 0;
#X connect 14 0 12 0;
#X connect 15 0 3 0;
#X connect 15 1 4 0;
#X connect 15 2 5 0;
#X connect 15 3 6 0;
#X connect 15 4 7 0;
#X connect 15 5 8 0;
#X connect 15 6 9 0;
#X connect 15 7 10 0;
#X connect 16 0 1 0;
#X restore 169 73 pd row7;
#N canvas 523 53 298 215 row8 0;
#X obj 12 9 r noteval;
#X obj 62 112 + 1;
#X obj 62 131 mod 2;
#X msg 12 55 0;
#X msg 42 55 1;
#X msg 72 55 2;
#X msg 102 55 3;
#X msg 132 55 4;
#X msg 162 55 5;
#X msg 192 55 6;
#X msg 222 55 7;
#X obj 196 112 f 0;
#X obj 12 148 f 0;
#X obj 12 95 t b b;
#X obj 12 125 delay 1;
#X obj 12 38 route 112 113 114 115 116 117 118 119;
#X obj 52 96 tabread row8;
#X obj 12 187 tabwrite row8;
#X obj 15 167 s row8bang;
#X connect 0 0 15 0;
#X connect 1 0 2 0;
#X connect 2 0 12 1;
#X connect 3 0 11 1;
#X connect 3 0 13 0;
#X connect 3 0 16 0;
#X connect 4 0 11 1;
#X connect 4 0 13 0;
#X connect 4 0 16 0;
#X connect 5 0 11 1;
#X connect 5 0 13 0;
#X connect 5 0 16 0;
#X connect 6 0 11 1;
#X connect 6 0 13 0;
#X connect 6 0 16 0;
#X connect 7 0 11 1;
#X connect 7 0 13 0;
#X connect 7 0 16 0;
#X connect 8 0 11 1;
#X connect 8 0 13 0;
#X connect 8 0 16 0;
#X connect 9 0 11 1;
#X connect 9 0 13 0;
#X connect 9 0 16 0;
#X connect 10 0 11 1;
#X connect 10 0 13 0;
#X connect 10 0 16 0;
#X connect 11 0 17 1;
#X connect 12 0 17 0;
#X connect 12 0 18 0;
#X connect 13 0 14 0;
#X connect 13 1 11 0;
#X connect 14 0 12 0;
#X connect 15 0 3 0;
#X connect 15 1 4 0;
#X connect 15 2 5 0;
#X connect 15 3 6 0;
#X connect 15 4 7 0;
#X connect 15 5 8 0;
#X connect 15 6 9 0;
#X connect 15 7 10 0;
#X connect 16 0 1 0;
#X restore 169 93 pd row8;
#N canvas 298 361 507 300 rlight1 0;
#X obj 27 -1 r row1bang;
#X obj 103 -1 r beat;
#X obj 27 50 t b b b b b b b b;
#X obj 266 151 tabread row1;
#X obj 266 193 * 127;
#X msg 228 127 0;
#X msg 255 127 1;
#X msg 283 127 2;
#X msg 311 127 3;
#X msg 340 127 4;
#X msg 371 127 5;
#X msg 401 127 6;
#X msg 430 127 7;
#X obj 293 172 r color;
#X msg 27 73 0;
#X msg 54 73 1;
#X msg 82 73 2;
#X msg 110 73 3;
#X msg 139 73 4;
#X msg 170 73 5;
#X msg 200 73 6;
#X msg 229 73 7;
#X obj 251 217 f 0;
#X obj 67 193 f 0;
#X text 317 195 values/color;
#X obj 67 235 noteout;
#X obj 194 176 t b b;
#X obj 27 22 delay 1;
#X connect 0 0 27 0;
#X connect 1 0 27 0;
#X connect 2 0 14 0;
#X connect 2 1 15 0;
#X connect 2 2 16 0;
#X connect 2 3 17 0;
#X connect 2 4 18 0;
#X connect 2 5 19 0;
#X connect 2 6 20 0;
#X connect 2 7 21 0;
#X connect 3 0 4 0;
#X connect 4 0 22 1;
#X connect 5 0 3 0;
#X connect 6 0 3 0;
#X connect 7 0 3 0;
#X connect 8 0 3 0;
#X connect 9 0 3 0;
#X connect 10 0 3 0;
#X connect 11 0 3 0;
#X connect 12 0 3 0;
#X connect 13 0 4 1;
#X connect 14 0 26 0;
#X connect 14 0 23 1;
#X connect 14 0 5 0;
#X connect 15 0 26 0;
#X connect 15 0 23 1;
#X connect 15 0 6 0;
#X connect 16 0 26 0;
#X connect 16 0 23 1;
#X connect 16 0 7 0;
#X connect 17 0 26 0;
#X connect 17 0 23 1;
#X connect 17 0 8 0;
#X connect 18 0 26 0;
#X connect 18 0 23 1;
#X connect 18 0 9 0;
#X connect 19 0 26 0;
#X connect 19 0 23 1;
#X connect 19 0 10 0;
#X connect 20 0 26 0;
#X connect 20 0 23 1;
#X connect 20 0 11 0;
#X connect 21 0 26 0;
#X connect 21 0 23 1;
#X connect 21 0 12 0;
#X connect 22 0 25 1;
#X connect 23 0 25 0;
#X connect 26 0 23 0;
#X connect 26 1 22 0;
#X connect 27 0 2 0;
#X restore 218 33 pd rlight1;
#X obj 82 206 f;
#X msg 87 171 1;
#X msg 123 171 2;
#X floatatom 89 240 5 0 0 0 - - -;
#N canvas 298 361 507 300 rlight2 0;
#X obj 103 -1 r beat;
#X obj 27 50 t b b b b b b b b;
#X obj 266 193 * 127;
#X msg 228 127 0;
#X msg 255 127 1;
#X msg 283 127 2;
#X msg 311 127 3;
#X msg 340 127 4;
#X msg 371 127 5;
#X msg 401 127 6;
#X msg 430 127 7;
#X obj 293 172 r color;
#X obj 251 217 f 0;
#X obj 67 193 f 0;
#X text 317 195 values/color;
#X obj 67 235 noteout;
#X obj 194 176 t b b;
#X obj 27 22 delay 1;
#X obj 27 -1 r row3bang;
#X obj 266 151 tabread row3;
#X msg 27 73 32;
#X msg 54 73 33;
#X msg 82 73 34;
#X msg 110 73 35;
#X msg 139 73 36;
#X msg 170 73 37;
#X msg 200 73 38;
#X msg 229 73 39;
#X connect 0 0 17 0;
#X connect 1 0 20 0;
#X connect 1 1 21 0;
#X connect 1 2 22 0;
#X connect 1 3 23 0;
#X connect 1 4 24 0;
#X connect 1 5 25 0;
#X connect 1 6 26 0;
#X connect 1 7 27 0;
#X connect 2 0 12 1;
#X connect 3 0 19 0;
#X connect 4 0 19 0;
#X connect 5 0 19 0;
#X connect 6 0 19 0;
#X connect 7 0 19 0;
#X connect 8 0 19 0;
#X connect 9 0 19 0;
#X connect 10 0 19 0;
#X connect 11 0 2 1;
#X connect 12 0 15 1;
#X connect 13 0 15 0;
#X connect 16 0 13 0;
#X connect 16 1 12 0;
#X connect 17 0 1 0;
#X connect 18 0 17 0;
#X connect 19 0 2 0;
#X connect 20 0 16 0;
#X connect 20 0 13 1;
#X connect 20 0 3 0;
#X connect 21 0 16 0;
#X connect 21 0 13 1;
#X connect 21 0 4 0;
#X connect 22 0 16 0;
#X connect 22 0 13 1;
#X connect 22 0 5 0;
#X connect 23 0 16 0;
#X connect 23 0 13 1;
#X connect 23 0 6 0;
#X connect 24 0 16 0;
#X connect 24 0 13 1;
#X connect 24 0 7 0;
#X connect 25 0 16 0;
#X connect 25 0 13 1;
#X connect 25 0 8 0;
#X connect 26 0 16 0;
#X connect 26 0 13 1;
#X connect 26 0 9 0;
#X connect 27 0 16 0;
#X connect 27 0 13 1;
#X connect 27 0 10 0;
#X restore 218 53 pd rlight2;
#N canvas 298 361 507 300 rlight3 0;
#X obj 103 -1 r beat;
#X obj 27 50 t b b b b b b b b;
#X obj 266 193 * 127;
#X msg 228 127 0;
#X msg 255 127 1;
#X msg 283 127 2;
#X msg 311 127 3;
#X msg 340 127 4;
#X msg 371 127 5;
#X msg 401 127 6;
#X msg 430 127 7;
#X obj 293 172 r color;
#X obj 251 217 f 0;
#X obj 67 193 f 0;
#X text 317 195 values/color;
#X obj 67 235 noteout;
#X obj 194 176 t b b;
#X obj 27 22 delay 1;
#X msg 27 73 16;
#X msg 54 73 17;
#X msg 82 73 18;
#X msg 110 73 19;
#X msg 139 73 20;
#X msg 170 73 21;
#X msg 200 73 22;
#X msg 229 73 23;
#X obj 266 151 tabread row2;
#X obj 27 -1 r row3bang;
#X connect 0 0 17 0;
#X connect 1 0 18 0;
#X connect 1 1 19 0;
#X connect 1 2 20 0;
#X connect 1 3 21 0;
#X connect 1 4 22 0;
#X connect 1 5 23 0;
#X connect 1 6 24 0;
#X connect 1 7 25 0;
#X connect 2 0 12 1;
#X connect 3 0 26 0;
#X connect 4 0 26 0;
#X connect 5 0 26 0;
#X connect 6 0 26 0;
#X connect 7 0 26 0;
#X connect 8 0 26 0;
#X connect 9 0 26 0;
#X connect 10 0 26 0;
#X connect 11 0 2 1;
#X connect 12 0 15 1;
#X connect 13 0 15 0;
#X connect 16 0 13 0;
#X connect 16 1 12 0;
#X connect 17 0 1 0;
#X connect 18 0 16 0;
#X connect 18 0 13 1;
#X connect 18 0 3 0;
#X connect 19 0 16 0;
#X connect 19 0 13 1;
#X connect 19 0 4 0;
#X connect 20 0 16 0;
#X connect 20 0 13 1;
#X connect 20 0 5 0;
#X connect 21 0 16 0;
#X connect 21 0 13 1;
#X connect 21 0 6 0;
#X connect 22 0 16 0;
#X connect 22 0 13 1;
#X connect 22 0 7 0;
#X connect 23 0 16 0;
#X connect 23 0 13 1;
#X connect 23 0 8 0;
#X connect 24 0 16 0;
#X connect 24 0 13 1;
#X connect 24 0 9 0;
#X connect 25 0 16 0;
#X connect 25 0 13 1;
#X connect 25 0 10 0;
#X connect 26 0 2 0;
#X connect 27 0 17 0;
#X restore 218 73 pd rlight3;
#N canvas 582 201 507 300 rlight4 0;
#X obj 103 -1 r beat;
#X obj 27 50 t b b b b b b b b;
#X obj 266 193 * 127;
#X msg 228 127 0;
#X msg 255 127 1;
#X msg 283 127 2;
#X msg 311 127 3;
#X msg 340 127 4;
#X msg 371 127 5;
#X msg 401 127 6;
#X msg 430 127 7;
#X obj 293 172 r color;
#X obj 251 217 f 0;
#X obj 67 193 f 0;
#X text 317 195 values/color;
#X obj 67 235 noteout;
#X obj 194 176 t b b;
#X obj 27 22 delay 1;
#X msg 27 73 48;
#X msg 54 73 49;
#X msg 82 73 50;
#X msg 110 73 51;
#X msg 139 73 52;
#X msg 170 73 53;
#X msg 200 73 54;
#X msg 229 73 55;
#X obj 266 151 tabread row4;
#X obj 27 -1 r row4bang;
#X connect 0 0 17 0;
#X connect 1 0 18 0;
#X connect 1 1 19 0;
#X connect 1 2 20 0;
#X connect 1 3 21 0;
#X connect 1 4 22 0;
#X connect 1 5 23 0;
#X connect 1 6 24 0;
#X connect 1 7 25 0;
#X connect 2 0 12 1;
#X connect 3 0 26 0;
#X connect 4 0 26 0;
#X connect 5 0 26 0;
#X connect 6 0 26 0;
#X connect 7 0 26 0;
#X connect 8 0 26 0;
#X connect 9 0 26 0;
#X connect 10 0 26 0;
#X connect 11 0 2 1;
#X connect 12 0 15 1;
#X connect 13 0 15 0;
#X connect 16 0 13 0;
#X connect 16 1 12 0;
#X connect 17 0 1 0;
#X connect 18 0 16 0;
#X connect 18 0 13 1;
#X connect 18 0 3 0;
#X connect 19 0 16 0;
#X connect 19 0 13 1;
#X connect 19 0 4 0;
#X connect 20 0 16 0;
#X connect 20 0 13 1;
#X connect 20 0 5 0;
#X connect 21 0 16 0;
#X connect 21 0 13 1;
#X connect 21 0 6 0;
#X connect 22 0 16 0;
#X connect 22 0 13 1;
#X connect 22 0 7 0;
#X connect 23 0 16 0;
#X connect 23 0 13 1;
#X connect 23 0 8 0;
#X connect 24 0 16 0;
#X connect 24 0 13 1;
#X connect 24 0 9 0;
#X connect 25 0 16 0;
#X connect 25 0 13 1;
#X connect 25 0 10 0;
#X connect 26 0 2 0;
#X connect 27 0 17 0;
#X restore 218 93 pd rlight4;
#N canvas 298 361 507 300 rlight5 0;
#X obj 103 -1 r beat;
#X obj 27 50 t b b b b b b b b;
#X obj 266 193 * 127;
#X msg 228 127 0;
#X msg 255 127 1;
#X msg 283 127 2;
#X msg 311 127 3;
#X msg 340 127 4;
#X msg 371 127 5;
#X msg 401 127 6;
#X msg 430 127 7;
#X obj 293 172 r color;
#X obj 251 217 f 0;
#X obj 67 193 f 0;
#X text 317 195 values/color;
#X obj 67 235 noteout;
#X obj 194 176 t b b;
#X obj 27 22 delay 1;
#X obj 266 151 tabread row5;
#X msg 27 73 64;
#X msg 54 73 65;
#X msg 82 73 66;
#X msg 110 73 67;
#X msg 139 73 68;
#X msg 170 73 69;
#X msg 200 73 70;
#X msg 229 73 71;
#X obj 27 -1 r row5bang;
#X connect 0 0 17 0;
#X connect 1 0 19 0;
#X connect 1 1 20 0;
#X connect 1 2 21 0;
#X connect 1 3 22 0;
#X connect 1 4 23 0;
#X connect 1 5 24 0;
#X connect 1 6 25 0;
#X connect 1 7 26 0;
#X connect 2 0 12 1;
#X connect 3 0 18 0;
#X connect 4 0 18 0;
#X connect 5 0 18 0;
#X connect 6 0 18 0;
#X connect 7 0 18 0;
#X connect 8 0 18 0;
#X connect 9 0 18 0;
#X connect 10 0 18 0;
#X connect 11 0 2 1;
#X connect 12 0 15 1;
#X connect 13 0 15 0;
#X connect 16 0 13 0;
#X connect 16 1 12 0;
#X connect 17 0 1 0;
#X connect 18 0 2 0;
#X connect 19 0 16 0;
#X connect 19 0 13 1;
#X connect 19 0 3 0;
#X connect 20 0 16 0;
#X connect 20 0 13 1;
#X connect 20 0 4 0;
#X connect 21 0 16 0;
#X connect 21 0 13 1;
#X connect 21 0 5 0;
#X connect 22 0 16 0;
#X connect 22 0 13 1;
#X connect 22 0 6 0;
#X connect 23 0 16 0;
#X connect 23 0 13 1;
#X connect 23 0 7 0;
#X connect 24 0 16 0;
#X connect 24 0 13 1;
#X connect 24 0 8 0;
#X connect 25 0 16 0;
#X connect 25 0 13 1;
#X connect 25 0 9 0;
#X connect 26 0 16 0;
#X connect 26 0 13 1;
#X connect 26 0 10 0;
#X connect 27 0 17 0;
#X restore 285 33 pd rlight5;
#N canvas 298 361 507 300 rlight6 0;
#X obj 103 -1 r beat;
#X obj 27 50 t b b b b b b b b;
#X obj 266 193 * 127;
#X msg 228 127 0;
#X msg 255 127 1;
#X msg 283 127 2;
#X msg 311 127 3;
#X msg 340 127 4;
#X msg 371 127 5;
#X msg 401 127 6;
#X msg 430 127 7;
#X obj 293 172 r color;
#X obj 251 217 f 0;
#X obj 67 193 f 0;
#X text 317 195 values/color;
#X obj 67 235 noteout;
#X obj 194 176 t b b;
#X obj 27 22 delay 1;
#X obj 27 0 r row6bang;
#X obj 266 151 tabread row6;
#X msg 27 73 80;
#X msg 54 73 81;
#X msg 82 73 82;
#X msg 110 73 83;
#X msg 139 73 84;
#X msg 170 73 85;
#X msg 200 73 86;
#X msg 229 73 87;
#X connect 0 0 17 0;
#X connect 1 0 20 0;
#X connect 1 1 21 0;
#X connect 1 2 22 0;
#X connect 1 3 23 0;
#X connect 1 4 24 0;
#X connect 1 5 25 0;
#X connect 1 6 26 0;
#X connect 1 7 27 0;
#X connect 2 0 12 1;
#X connect 3 0 19 0;
#X connect 4 0 19 0;
#X connect 5 0 19 0;
#X connect 6 0 19 0;
#X connect 7 0 19 0;
#X connect 8 0 19 0;
#X connect 9 0 19 0;
#X connect 10 0 19 0;
#X connect 11 0 2 1;
#X connect 12 0 15 1;
#X connect 13 0 15 0;
#X connect 16 0 13 0;
#X connect 16 1 12 0;
#X connect 17 0 1 0;
#X connect 18 0 17 0;
#X connect 19 0 2 0;
#X connect 20 0 16 0;
#X connect 20 0 13 1;
#X connect 20 0 3 0;
#X connect 21 0 16 0;
#X connect 21 0 13 1;
#X connect 21 0 4 0;
#X connect 22 0 16 0;
#X connect 22 0 13 1;
#X connect 22 0 5 0;
#X connect 23 0 16 0;
#X connect 23 0 13 1;
#X connect 23 0 6 0;
#X connect 24 0 16 0;
#X connect 24 0 13 1;
#X connect 24 0 7 0;
#X connect 25 0 16 0;
#X connect 25 0 13 1;
#X connect 25 0 8 0;
#X connect 26 0 16 0;
#X connect 26 0 13 1;
#X connect 26 0 9 0;
#X connect 27 0 16 0;
#X connect 27 0 13 1;
#X connect 27 0 10 0;
#X restore 285 53 pd rlight6;
#N canvas 298 361 507 300 rlight7 0;
#X obj 103 -1 r beat;
#X obj 27 50 t b b b b b b b b;
#X obj 266 193 * 127;
#X msg 228 127 0;
#X msg 255 127 1;
#X msg 283 127 2;
#X msg 311 127 3;
#X msg 340 127 4;
#X msg 371 127 5;
#X msg 401 127 6;
#X msg 430 127 7;
#X obj 293 172 r color;
#X obj 251 217 f 0;
#X obj 67 193 f 0;
#X text 317 195 values/color;
#X obj 67 235 noteout;
#X obj 194 176 t b b;
#X obj 27 22 delay 1;
#X obj 27 -1 r row7bang;
#X msg 27 73 96;
#X msg 54 73 97;
#X msg 82 73 98;
#X msg 110 73 99;
#X msg 139 73 100;
#X msg 170 73 101;
#X msg 200 73 102;
#X msg 229 73 103;
#X obj 266 151 tabread row7;
#X connect 0 0 17 0;
#X connect 1 0 19 0;
#X connect 1 1 20 0;
#X connect 1 2 21 0;
#X connect 1 3 22 0;
#X connect 1 4 23 0;
#X connect 1 5 24 0;
#X connect 1 6 25 0;
#X connect 1 7 26 0;
#X connect 2 0 12 1;
#X connect 3 0 27 0;
#X connect 4 0 27 0;
#X connect 5 0 27 0;
#X connect 6 0 27 0;
#X connect 7 0 27 0;
#X connect 8 0 27 0;
#X connect 9 0 27 0;
#X connect 10 0 27 0;
#X connect 11 0 2 1;
#X connect 12 0 15 1;
#X connect 13 0 15 0;
#X connect 16 0 13 0;
#X connect 16 1 12 0;
#X connect 17 0 1 0;
#X connect 18 0 17 0;
#X connect 19 0 16 0;
#X connect 19 0 13 1;
#X connect 19 0 3 0;
#X connect 20 0 16 0;
#X connect 20 0 13 1;
#X connect 20 0 4 0;
#X connect 21 0 16 0;
#X connect 21 0 13 1;
#X connect 21 0 5 0;
#X connect 22 0 16 0;
#X connect 22 0 13 1;
#X connect 22 0 6 0;
#X connect 23 0 16 0;
#X connect 23 0 13 1;
#X connect 23 0 7 0;
#X connect 24 0 16 0;
#X connect 24 0 13 1;
#X connect 24 0 8 0;
#X connect 25 0 16 0;
#X connect 25 0 13 1;
#X connect 25 0 9 0;
#X connect 26 0 16 0;
#X connect 26 0 13 1;
#X connect 26 0 10 0;
#X connect 27 0 2 0;
#X restore 285 73 pd rlight7;
#N canvas 298 361 507 300 rlight8 0;
#X obj 103 -1 r beat;
#X obj 27 50 t b b b b b b b b;
#X obj 266 193 * 127;
#X msg 228 127 0;
#X msg 255 127 1;
#X msg 283 127 2;
#X msg 311 127 3;
#X msg 340 127 4;
#X msg 371 127 5;
#X msg 401 127 6;
#X msg 430 127 7;
#X obj 293 172 r color;
#X obj 251 217 f 0;
#X obj 67 193 f 0;
#X text 317 195 values/color;
#X obj 67 235 noteout;
#X obj 194 176 t b b;
#X obj 27 22 delay 1;
#X obj 27 -1 r row8bang;
#X msg 27 72 112;
#X msg 54 73 113;
#X msg 82 73 114;
#X msg 110 73 115;
#X msg 139 73 116;
#X msg 170 73 117;
#X msg 200 73 118;
#X msg 229 73 119;
#X obj 266 151 tabread row8;
#X connect 0 0 17 0;
#X connect 1 0 19 0;
#X connect 1 1 20 0;
#X connect 1 2 21 0;
#X connect 1 3 22 0;
#X connect 1 4 23 0;
#X connect 1 5 24 0;
#X connect 1 6 25 0;
#X connect 1 7 26 0;
#X connect 2 0 12 1;
#X connect 3 0 27 0;
#X connect 4 0 27 0;
#X connect 5 0 27 0;
#X connect 6 0 27 0;
#X connect 7 0 27 0;
#X connect 8 0 27 0;
#X connect 9 0 27 0;
#X connect 10 0 27 0;
#X connect 11 0 2 1;
#X connect 12 0 15 1;
#X connect 13 0 15 0;
#X connect 16 0 13 0;
#X connect 16 1 12 0;
#X connect 17 0 1 0;
#X connect 18 0 17 0;
#X connect 19 0 16 0;
#X connect 19 0 13 1;
#X connect 19 0 3 0;
#X connect 20 0 16 0;
#X connect 20 0 13 1;
#X connect 20 0 4 0;
#X connect 21 0 16 0;
#X connect 21 0 13 1;
#X connect 21 0 5 0;
#X connect 22 0 16 0;
#X connect 22 0 13 1;
#X connect 22 0 6 0;
#X connect 23 0 16 0;
#X connect 23 0 13 1;
#X connect 23 0 7 0;
#X connect 24 0 16 0;
#X connect 24 0 13 1;
#X connect 24 0 8 0;
#X connect 25 0 16 0;
#X connect 25 0 13 1;
#X connect 25 0 9 0;
#X connect 26 0 16 0;
#X connect 26 0 13 1;
#X connect 26 0 10 0;
#X connect 27 0 2 0;
#X restore 285 93 pd rlight8;
#X connect 1 0 2 1;
#X connect 1 1 3 0;
#X connect 2 0 4 0;
#X connect 2 0 5 0;
#X connect 3 0 6 0;
#X connect 6 0 2 0;
#X connect 15 0 18 0;
#X connect 16 0 15 0;
#X connect 17 0 15 0;
#X restore 110 40 pd logic;
#N canvas 525 118 450 300 dsp 0;
#X restore 122 59 pd dsp;
#N canvas 0 0 450 300 audioman 0;
#X restore 92 78 pd audioman;
#X obj -1 5 cnv 15 300 30 empty empty pd-gribs 20 12 0 14 -233017 -66577
0;
#X obj 72 49 tgl 27 0 onoff none on/off 0 -6 0 10 -262144 -1 -1 0 1
;
