#N canvas 240 300 473 237 10;
#X obj 139 44 inlet fire;
#X obj 25 36 vsl 20 40 0 4000 0 0 \$0-attackval \$0-defaultatk atk
0 -9 0 10 -262144 -1 -1 487 1;
#X obj 48 36 vsl 20 40 0 4000 0 0 \$0-releaseval \$0-defaultrel rel
0 -9 0 10 -262144 -1 -1 487 1;
#X floatatom 75 45 6 0 0 0 - #0-atkdisplay #0-nonepls;
#X floatatom 75 63 6 0 0 0 - #0-reldisplay #0-nonepls;
#X text 139 29 Bangbros;
#X text 25 2 Simple attack/release;
#X obj 210 6 r \$0-attackval;
#X obj 139 108 f;
#X obj 237 102 s \$0-atkdisplay;
#X obj 139 73 bng 15 250 50 0 empty empty empty 17 7 0 10 -262144 -1
-1;
#X msg 139 130 1 \$1;
#X msg 180 130 0 \$1;
#X obj 139 153 line;
#X obj 180 108 f;
#X obj 180 88 del;
#X obj 210 43 t f f;
#X obj 329 43 r \$0-releaseval;
#X obj 329 79 s \$0-reldisplay;
#X obj 139 178 outlet volumemul;
#X obj 21 102 loadbang;
#X msg 21 121 500;
#X obj 38 144 s \$0-defaultatk;
#X obj 21 162 s \$0-defaultrel;
#X obj 79 24 bng 15 250 50 0 \$0-nooutputhere \$0-noinputhere res 17
7 0 10 -262144 -260097 -1;
#X obj 251 26 inlet atk;
#X obj 259 49 inlet rl;
#X connect 0 0 10 0;
#X connect 7 0 16 0;
#X connect 8 0 11 0;
#X connect 10 0 8 0;
#X connect 10 0 15 0;
#X connect 11 0 13 0;
#X connect 12 0 13 0;
#X connect 13 0 19 0;
#X connect 14 0 12 0;
#X connect 15 0 14 0;
#X connect 16 0 8 1;
#X connect 16 1 15 1;
#X connect 16 1 9 0;
#X connect 17 0 14 1;
#X connect 17 0 18 0;
#X connect 20 0 21 0;
#X connect 21 0 22 0;
#X connect 21 0 23 0;
#X connect 24 0 21 0;
#X connect 25 0 16 0;
#X connect 26 0 14 1;
#X coords 0 -1 1 1 100 65 2 20 20;
