#N canvas 2561 49 959 1030 10;
#X obj 15 227 vu 15 120 empty empty -1 -8 0 10 -66577 -1 0 0;
#X obj 35 227 vu 15 120 empty empty -1 -8 0 10 -66577 -1 1 0;
#X obj 85 227 vsl 25 120 0.01 3 1 0 \$0-finalamp \$0-ampin amp 27 120
0 10 -262144 -258113 -1 9142 1;
#X obj 585 57 loadbang;
#X obj 116 232 tgl 30 0 \$0-dsptog \$0-dsptog-set dsp 5 35 0 10 -225271
-195568 -33289 0 1;
#X obj 417 172 r \$0-dsptog;
#X obj 154 264 r \$0-mutebutton;
#X obj 154 338 s \$0-mutebuttonin;
#X msg 154 316 color 0 12 12;
#X obj 154 288 select 0;
#X msg 245 316 color 67 12 12;
#X obj 264 62 hip~ 3;
#X obj 301 99 hip~ 3;
#X obj 264 148 dac~;
#X obj 265 119 *~;
#X obj 300 119 *~;
#X obj 402 26 r \$0-finalamp;
#X msg 402 83 \$1 50;
#X obj 402 103 vline~;
#X obj 330 8 r \$0-mutebutton;
#X obj 330 32 select 0;
#X obj 402 54 f;
#X msg 374 55 0;
#X obj 116 312 tgl 30 0 \$0-mutebutton \$0-mutebuttonin mute 0 -5 0
10 -262144 -33289 -33289 0 1;
#X msg 575 81 0.8;
#X obj 14 106 env~;
#X obj 34 176 env~;
#X obj 14 127 - 100;
#X obj 34 200 - 100;
#X obj 274 247 loadbang;
#X obj 516 18 inlet;
#X obj 116 279 bng 15 250 50 0 \$0-resetter \$0-noinputhere res 17
7 0 8 -262144 -258113 -1;
#X obj 516 51 clip 0 3;
#X obj 516 110 s \$0-ampin;
#X obj 575 23 r \$0-resetter;
#X text 93 93 Custom DAC Monitor mod;
#X msg 274 271 0;
#X obj 367 337 s \$0-dsptog-set;
#X msg 461 305 set \$1;
#X obj 35 152 r~ \$0-RC;
#X obj 15 84 r~ \$0-LC;
#X obj 303 148 s~ \$0-LC;
#X obj 360 148 s~ \$0-RC;
#X obj 417 212 change;
#X msg 367 278 0;
#X msg 402 278 6;
#X obj 367 254 select 0 1;
#X obj 461 239 value GLOBAL_PDDP_DSP;
#X obj 461 211 loadbang;
#X msg 367 304 color \$1 20 12;
#X floatatom 473 265 5 0 0 0 - - -, f 5;
#X obj 353 213 send pd;
#X msg 353 192 dsp \$1;
#X obj 265 38 inlet~ l;
#X obj 302 83 inlet~ r;
#X obj 531 160 r pd;
#X obj 531 188 route dsp;
#X text 101 186 amp range (0-3);
#X text 156 38 Why do I have hip~ here?;
#X text 103 117 VUs for L/R channels DSP on/off toggle Colored stuff
Inlet for final amp Stuff;
#X connect 3 0 24 0;
#X connect 5 0 43 0;
#X connect 5 0 52 0;
#X connect 6 0 9 0;
#X connect 8 0 7 0;
#X connect 9 0 8 0;
#X connect 9 1 10 0;
#X connect 10 0 7 0;
#X connect 11 0 14 0;
#X connect 12 0 15 0;
#X connect 14 0 13 0;
#X connect 14 0 41 0;
#X connect 15 0 13 1;
#X connect 15 0 42 0;
#X connect 16 0 21 0;
#X connect 17 0 18 0;
#X connect 18 0 15 1;
#X connect 18 0 14 1;
#X connect 19 0 20 0;
#X connect 20 0 21 0;
#X connect 20 1 22 0;
#X connect 21 0 17 0;
#X connect 22 0 17 0;
#X connect 24 0 33 0;
#X connect 25 0 27 0;
#X connect 26 0 28 0;
#X connect 27 0 0 0;
#X connect 28 0 1 0;
#X connect 29 0 36 0;
#X connect 30 0 32 0;
#X connect 32 0 33 0;
#X connect 34 0 24 0;
#X connect 36 0 9 0;
#X connect 38 0 37 0;
#X connect 39 0 26 0;
#X connect 40 0 25 0;
#X connect 43 0 38 0;
#X connect 43 0 46 0;
#X connect 43 0 47 0;
#X connect 44 0 49 0;
#X connect 45 0 49 0;
#X connect 46 0 44 0;
#X connect 46 1 45 0;
#X connect 47 0 38 0;
#X connect 47 0 50 0;
#X connect 48 0 47 0;
#X connect 49 0 37 0;
#X connect 52 0 51 0;
#X connect 53 0 11 0;
#X connect 54 0 12 0;
#X connect 55 0 56 0;
#X connect 56 0 43 0;
#X coords 0 -1 1 1 140 135 2 10 220;
