#N canvas 479 236 705 324 10;
#X obj 37 35 vradio 15 1 0 4 \$0-selectfilter \$0-filterchange empty
0 -8 0 10 -262144 -1 -1 0;
#X obj 196 27 inlet~ drysig;
#X obj 284 27 inlet~ ctlsig;
#X obj 31 129 select 0 1 2 3;
#X obj 31 151 bng 15 250 50 0 empty empty empty 17 7 0 10 -262144 -1
-1;
#X obj 51 151 bng 15 250 50 0 empty empty empty 17 7 0 10 -262144 -1
-1;
#X obj 71 151 bng 15 250 50 0 empty empty empty 17 7 0 10 -262144 -1
-1;
#X obj 91 151 bng 15 250 50 0 empty empty empty 17 7 0 10 -262144 -1
-1;
#X obj 31 178 pack \$0;
#X obj 81 178 pack \$0;
#X obj 131 178 pack \$0;
#X obj 181 178 pack \$0;
#X obj 31 223 r~;
#X obj 31 248 outlet~ wetsig;
#X obj 196 63 svf~;
#X obj 195 88 s~ \$0-lopsig;
#X obj 275 88 s~ \$0-hipsig;
#X obj 355 88 s~ \$0-bpsig;
#X obj 430 88 s~ \$0-npsig;
#X obj 374 28 inlet~ resig;
#X obj 347 45 clip~ 0 1;
#X obj 31 106 r \$0-selectfilter;
#X text 54 32 lop;
#X text 56 46 hip;
#X text 56 62 band;
#X text 56 78 notch;
#X text 99 21 Filter tool;
#X msg 31 202 set \$1-lopsig;
#X msg 121 202 set \$1-hipsig;
#X msg 211 202 set \$1-bpsig;
#X msg 301 202 set \$1-npsig;
#X obj 417 159 loadbang;
#X msg 417 183 0;
#X obj 417 212 s \$0-noinputpls;
#X text 93 35 Requires svf~;
#X obj 532 33 inlet filterchange;
#X obj 532 68 clip 0 3;
#X obj 532 113 s \$0-filterchange;
#X obj 501 14 loadbang;
#X msg 503 46 0;
#X connect 1 0 14 0;
#X connect 2 0 14 1;
#X connect 3 0 4 0;
#X connect 3 1 5 0;
#X connect 3 2 6 0;
#X connect 3 3 7 0;
#X connect 4 0 8 0;
#X connect 5 0 9 0;
#X connect 6 0 10 0;
#X connect 7 0 11 0;
#X connect 8 0 27 0;
#X connect 9 0 28 0;
#X connect 10 0 29 0;
#X connect 11 0 30 0;
#X connect 12 0 13 0;
#X connect 14 0 15 0;
#X connect 14 1 16 0;
#X connect 14 2 17 0;
#X connect 14 3 18 0;
#X connect 19 0 20 0;
#X connect 20 0 14 2;
#X connect 21 0 3 0;
#X connect 27 0 12 0;
#X connect 28 0 12 0;
#X connect 29 0 12 0;
#X connect 30 0 12 0;
#X connect 31 0 32 0;
#X connect 32 0 33 0;
#X connect 35 0 36 0;
#X connect 36 0 37 0;
#X connect 38 0 39 0;
#X connect 39 0 36 0;
#X coords 0 -1 1 1 60 70 2 30 30;
