#N canvas 118 47 542 285 10;
#X obj 34 35 vsl 20 40 0 20 0 0 \$0-lfofreq \$0-vsliderin empty 0 -9
0 10 -204800 -45076 -1 0 1;
#X floatatom 82 59 4 0 20 0 rate #0-lfodisplay #0-none;
#X obj 85 37 tgl 15 0 \$0-togglelfo \$0-noinputtoggle lfo -20 7 0 10
-262144 -1 -1 0 1;
#X text 31 -2 LFO patch;
#X text 30 9 Sends a 0-20hz osc~;
#X obj 253 19 loadbang;
#X msg 253 41 0;
#X obj 29 217 outlet~;
#X obj 159 67 osc~;
#X obj 160 18 r \$0-lfofreq;
#X obj 194 66 s \$0-lfodisplay;
#X obj 290 66 sig~ 1;
#X obj 290 88 s~ \$0-default;
#X msg 286 40 1;
#X obj 30 190 r~;
#X obj 30 82 r \$0-togglelfo;
#X obj 30 107 select 0;
#X obj 159 89 s~ \$0-lfowave;
#X obj 90 126 bng 15 250 50 0 empty empty empty 17 7 0 10 -262144 -1
-1;
#X obj 30 127 bng 15 250 50 0 empty empty empty 17 7 0 10 -262144 -1
-1;
#X obj 30 145 pack \$0;
#X obj 90 145 pack \$0;
#X msg 30 169 set \$1-default;
#X msg 125 169 set \$1-lfowave;
#X obj 253 135 s \$0-noinputtoggle;
#X obj 239 163 inlet rate;
#X obj 239 191 s \$0-vsliderin;
#X obj 394 25 inlet toggle;
#X obj 394 79 s \$0-noinputtoggle;
#X connect 5 0 6 0;
#X connect 5 0 13 0;
#X connect 6 0 8 0;
#X connect 6 0 10 0;
#X connect 6 0 16 0;
#X connect 6 0 24 0;
#X connect 8 0 17 0;
#X connect 9 0 8 0;
#X connect 9 0 10 0;
#X connect 11 0 12 0;
#X connect 13 0 11 0;
#X connect 14 0 7 0;
#X connect 15 0 16 0;
#X connect 16 0 19 0;
#X connect 16 1 18 0;
#X connect 18 0 21 0;
#X connect 19 0 20 0;
#X connect 20 0 22 0;
#X connect 21 0 23 0;
#X connect 22 0 14 0;
#X connect 23 0 14 0;
#X connect 25 0 26 0;
#X connect 27 0 28 0;
#X coords 0 -1 1 1 80 50 2 30 30;
