#N canvas 987 272 450 300 10;
#X obj 51 65 inlet;
#X obj 51 94 route create;
#X msg 51 128 set destroy;
#X obj 136 191 gemwin;
#X obj 51 191 outlet;
#X msg 128 128 set create;
#X msg 136 163 create \, 1;
#X msg 206 163 destroy;
#X obj 292 168 inlet;
#X connect 0 0 1 0;
#X connect 1 0 2 0;
#X connect 1 0 6 0;
#X connect 1 1 5 0;
#X connect 1 1 7 0;
#X connect 2 0 4 0;
#X connect 5 0 4 0;
#X connect 6 0 3 0;
#X connect 7 0 3 0;
#X connect 8 0 3 0;
