#N canvas 2698 49 822 1030 10;
#X obj 8 383 metro 1000;
#X obj 19 61 bng 15 100 50 0 \$0-zzzzzzz \$0-guibang empty 17 7 0 10
-262144 -258113 -1;
#X obj 37 61 tgl 15 0 \$0-metrotog \$0-noinput empty 17 7 0 10 -262144
-1 -1 1 1;
#X obj 7 226 tgl 15 0 empty empty empty 17 7 0 10 -262144 -1 -1 1 1
;
#X obj 7 203 r \$0-metrotog;
#X obj 90 225 r \$0-bpm;
#X obj 7 405 bng 15 250 50 0 empty empty empty 17 7 0 10 -262144 -1
-1;
#X obj 8 426 outlet beats;
#X obj 33 404 s \$0-guibang;
#X obj 93 89 loadbang;
#X msg 72 116 120;
#X obj 46 46 bng 10 250 50 0 empty empty empty 17 7 0 10 -257985 -1
-1;
#X obj 12 17 vsl 15 40 1 360 0 0 \$0-zzzzzzzzz \$0-metro-input empty
0 -9 0 10 -262144 -1 -1 1293 1;
#X obj 73 10 int;
#X obj 73 62 s \$0-bpm;
#X obj 90 34 s \$0-bpmdisplay;
#X floatatom 31 28 4 1 480 2 bpm #0-bpmdisplay #0-nope, f 4;
#X text 117 -1 Metronome;
#X text 104 9 Makes bangs;
#X obj 106 380 outlet bint;
#X msg 113 118 1;
#X obj 117 149 s \$0-noinput;
#X obj 179 69 inlet BPM;
#X obj 180 99 s \$0-metro-input;
#X obj 57 335 /;
#X obj 40 290 f 60000;
#X obj 109 293 f;
#X obj 34 262 t b b;
#X obj 72 177 s \$0-metro-input;
#X connect 0 0 6 0;
#X connect 0 0 8 0;
#X connect 3 0 0 0;
#X connect 4 0 3 0;
#X connect 5 0 26 1;
#X connect 5 0 27 0;
#X connect 6 0 7 0;
#X connect 9 0 10 0;
#X connect 9 0 20 0;
#X connect 10 0 28 0;
#X connect 11 0 10 0;
#X connect 12 0 13 0;
#X connect 13 0 14 0;
#X connect 13 0 15 0;
#X connect 20 0 21 0;
#X connect 22 0 23 0;
#X connect 24 0 19 0;
#X connect 24 0 0 1;
#X connect 25 0 24 0;
#X connect 26 0 24 1;
#X connect 27 0 25 0;
#X connect 27 1 26 0;
#X coords 0 -1 1 1 55 70 2 10 10;
