#N canvas 2561 49 959 1030 10;
#N canvas 0 50 450 300 (subpatch) 0;
#X array \$0-oscarray 1024 float 2;
#X coords 0 1 1024 -1 80 60 2 0 0;
#X restore 21 10 graph;
#X obj 140 85 inlet~ sig;
#X obj 183 42 inlet msecs;
#X obj 132 64 metro 100;
#X obj 134 109 tabwrite~ \$0-oscarray;
#X obj 130 29 tgl 15 0 empty empty empty 17 7 0 10 -262144 -1 -1 0
1;
#X obj 155 13 loadbang;
#X connect 1 0 4 0;
#X connect 2 0 3 1;
#X connect 3 0 4 0;
#X connect 5 0 3 0;
#X connect 6 0 3 0;
#X coords 0 -1 1 1 100 60 2 10 10;
