#N canvas 443 410 345 203 10;
#X obj 42 56 vsl 15 50 0 1 0 0 \$0-amplitude \$0-inletamp empty 0 -9
0 10 -262130 -258113 -1 2940 1;
#X obj 141 114 vline~;
#X obj 72 130 *~;
#X obj 73 149 outlet~ ampsig;
#X obj 73 9 inlet~ sig;
#X obj 200 50 inlet volumeset;
#X obj 200 71 clip 0 1;
#X obj 141 30 r \$0-amplitude;
#X msg 141 93 \$1 50;
#X text 21 84 vol;
#X obj 90 49 loadbang;
#X obj 200 93 s \$0-inletamp;
#X obj 23 66 bng 15 250 50 0 empty empty res 0 -6 0 8 -262144 -1 -1
;
#X msg 90 71 0.6;
#X connect 1 0 2 1;
#X connect 2 0 3 0;
#X connect 4 0 2 0;
#X connect 5 0 6 0;
#X connect 6 0 11 0;
#X connect 7 0 8 0;
#X connect 8 0 1 0;
#X connect 10 0 13 0;
#X connect 12 0 13 0;
#X connect 13 0 8 0;
#X connect 13 0 11 0;
#X coords 0 -1 1 1 40 60 2 20 50;
