#N canvas 761 315 260 235 10;
#X obj 9 170 metro 1000;
#X obj 19 61 bng 15 100 50 0 \$0-zzzzzzz \$0-guibang empty 17 7 0 10
-262144 -258113 -1;
#X obj 37 61 tgl 15 0 \$0-metrotog \$0-noinput empty 17 7 0 10 -262144
-1 -1 1 1;
#X obj 9 107 tgl 15 0 empty empty empty 17 7 0 10 -262144 -1 -1 0 1
;
#X obj 9 84 r \$0-metrotog;
#X obj 39 105 r \$0-bpm;
#X obj 39 126 t b f;
#X obj 9 192 bng 15 250 50 0 empty empty empty 17 7 0 10 -262144 -1
-1;
#X obj 9 213 outlet beats;
#X obj 34 191 s \$0-guibang;
#X obj 104 86 loadbang;
#X msg 104 106 120;
#X obj 104 126 s \$0-noinputpls;
#X obj 66 151 expr 60000 / $f1;
#X obj 46 46 bng 10 250 50 0 empty empty empty 17 7 0 10 -262144 -1
-1;
#X obj 12 17 vsl 15 40 1 360 0 0 \$0-zzzzzzzzz \$0-noinputpls empty
0 -9 0 10 -262144 -1 -1 1293 1;
#X obj 73 10 int;
#X obj 73 62 s \$0-bpm;
#X obj 90 34 s \$0-bpmdisplay;
#X floatatom 31 28 4 1 480 2 bpm #0-bpmdisplay #0-nope;
#X text 117 -1 Metronome;
#X text 104 9 Makes bangs;
#X obj 81 171 outlet bint;
#X msg 134 107 1;
#X obj 169 106 s \$0-noinput;
#X obj 133 61 inlet TOGGLE;
#X connect 0 0 7 0;
#X connect 0 0 9 0;
#X connect 3 0 0 0;
#X connect 4 0 3 0;
#X connect 5 0 6 0;
#X connect 6 0 0 0;
#X connect 6 1 13 0;
#X connect 7 0 8 0;
#X connect 10 0 11 0;
#X connect 10 0 23 0;
#X connect 11 0 12 0;
#X connect 13 0 0 1;
#X connect 13 0 22 0;
#X connect 14 0 11 0;
#X connect 15 0 16 0;
#X connect 16 0 17 0;
#X connect 16 0 18 0;
#X connect 23 0 24 0;
#X connect 25 0 3 0;
#X connect 25 0 24 0;
#X coords 0 -1 1 1 50 70 2 10 10;
