#N canvas 133 212 782 414 10;
#X obj 128 42 phasor~;
#X obj 455 61 osc~;
#X obj 212 45 phasor~;
#X obj 213 66 expr~ (($v1>0.5)*2)-1;
#X obj 129 83 -~ 1;
#X obj 128 63 *~ 2;
#X obj 128 21 r \$0-sawfreq;
#X obj 212 20 r \$0-rectfreq;
#X obj 457 221 outlet~ waveform;
#X obj 457 200 r~;
#X obj 455 39 r \$0-sinefreq;
#X obj 39 35 vradio 14 1 0 5 \$0-wfs \$0-wavechange empty 0 -8 0 10
-262144 -1 -1 1;
#X obj 25 225 inlet freq;
#X obj 220 365 s \$0-noisefreq;
#X obj 26 367 s \$0-sinefreq;
#X obj 71 345 s \$0-sawfreq;
#X obj 132 366 s \$0-rectfreq;
#X obj 25 310 *;
#X obj 41 286 == 0;
#X obj 71 325 *;
#X obj 132 314 *;
#X obj 440 263 noise~;
#X obj 246 126 r \$0-wfs;
#X obj 87 301 == 1;
#X obj 148 290 == 2;
#X obj 494 264 r \$0-noisefreq;
#X obj 441 288 *~;
#X obj 188 219 r \$0-wfs;
#X obj 188 237 t b f;
#X text 54 33 sine;
#X text 54 47 saw;
#X text 54 60 rect;
#X obj 454 84 s~ \$0-sinewave;
#X obj 128 104 s~ \$0-sawwave;
#X msg 136 183 set \$1-sinewave;
#X obj 141 166 pack \$0;
#X msg 230 181 set \$1-sawwave;
#X msg 321 183 set \$1-rectwave;
#X msg 517 183 set \$1-noisewave;
#X obj 229 164 pack \$0;
#X obj 321 166 pack \$0;
#X obj 522 166 pack \$0;
#X obj 214 87 s~ \$0-rectwave;
#X obj 441 309 s~ \$0-noisewave;
#X obj 351 37 loadbang;
#X msg 351 58 0;
#X obj 351 80 s \$0-none;
#X obj 421 166 pack \$0;
#X obj 247 148 select 0 1 2 3 4;
#X text 54 89 noise;
#X text 54 74 tri;
#X obj 311 251 phasor~;
#X obj 371 251 phasor~;
#X obj 371 234 * -1;
#X obj 312 316 +~;
#X obj 311 267 *~ 2;
#X obj 311 282 -~ 1;
#X obj 371 268 *~ 2;
#X obj 371 283 -~ 1;
#X obj 311 299 clip~ 0 1;
#X obj 371 299 clip~ 0 1;
#X obj 187 322 *;
#X obj 311 212 r \$0-trifreq;
#X obj 312 378 s~ \$0-triwave;
#X msg 421 183 set \$1-triwave;
#X text 21 119 THE OSCILLATOR;
#X text 15 137 don't look at this;
#X text 32 154 it's a mess;
#X text 392 59 sine wave;
#X text 289 42 defaulter;
#X text 358 128 Wave selector;
#X text 214 2 Square wave;
#X text 130 2 Sawtooth;
#X text 456 327 Noise;
#X text 357 331 Triangular;
#X text 350 339 (it's tricky);
#X text 39 207 Frequency flow;
#X obj 200 298 == 3;
#X obj 220 325 == 4;
#X obj 187 346 s \$0-trifreq;
#X floatatom 173 387 5 0 0 0 - - -;
#X floatatom 124 394 5 0 0 0 - - -;
#X obj 312 356 *~ 2;
#X obj 312 336 -~ 0.5;
#X obj 25 269 f 0;
#X obj 71 283 f 0;
#X obj 134 272 f 0;
#X obj 188 272 f 0;
#X obj 638 52 inlet toggler;
#X obj 638 96 clip 0 4;
#X obj 638 129 s \$0-wavechange;
#X obj 582 52 loadbang;
#X msg 582 112 0;
#X connect 0 0 5 0;
#X connect 1 0 32 0;
#X connect 2 0 3 0;
#X connect 3 0 42 0;
#X connect 4 0 33 0;
#X connect 5 0 4 0;
#X connect 6 0 0 0;
#X connect 7 0 2 0;
#X connect 9 0 8 0;
#X connect 10 0 1 0;
#X connect 12 0 84 0;
#X connect 12 0 85 0;
#X connect 12 0 86 0;
#X connect 12 0 87 0;
#X connect 17 0 14 0;
#X connect 18 0 17 1;
#X connect 19 0 15 0;
#X connect 20 0 16 0;
#X connect 20 0 81 0;
#X connect 21 0 26 0;
#X connect 22 0 48 0;
#X connect 23 0 19 1;
#X connect 24 0 20 1;
#X connect 25 0 26 1;
#X connect 26 0 43 0;
#X connect 27 0 28 0;
#X connect 28 0 84 0;
#X connect 28 0 85 0;
#X connect 28 0 86 0;
#X connect 28 0 87 0;
#X connect 28 1 24 0;
#X connect 28 1 23 0;
#X connect 28 1 18 0;
#X connect 28 1 77 0;
#X connect 28 1 78 0;
#X connect 34 0 9 0;
#X connect 35 0 34 0;
#X connect 36 0 9 0;
#X connect 37 0 9 0;
#X connect 38 0 9 0;
#X connect 39 0 36 0;
#X connect 40 0 37 0;
#X connect 41 0 38 0;
#X connect 44 0 45 0;
#X connect 45 0 46 0;
#X connect 47 0 64 0;
#X connect 48 0 35 0;
#X connect 48 1 39 0;
#X connect 48 2 40 0;
#X connect 48 3 47 0;
#X connect 48 4 41 0;
#X connect 51 0 55 0;
#X connect 52 0 57 0;
#X connect 53 0 52 0;
#X connect 54 0 83 0;
#X connect 55 0 56 0;
#X connect 56 0 59 0;
#X connect 57 0 58 0;
#X connect 58 0 60 0;
#X connect 59 0 54 0;
#X connect 60 0 54 1;
#X connect 61 0 79 0;
#X connect 61 0 80 0;
#X connect 62 0 53 0;
#X connect 62 0 51 0;
#X connect 64 0 9 0;
#X connect 77 0 61 1;
#X connect 78 0 13 0;
#X connect 82 0 63 0;
#X connect 83 0 82 0;
#X connect 84 0 17 0;
#X connect 85 0 19 0;
#X connect 86 0 20 0;
#X connect 87 0 61 0;
#X connect 88 0 89 0;
#X connect 89 0 90 0;
#X connect 91 0 92 0;
#X connect 92 0 90 0;
#X coords 0 -1 1 1 60 80 2 30 30;
