#N canvas 158 70 654 276 10;
#X obj 301 134 freeverb~;
#X obj 300 108 inlet~ l;
#X obj 353 108 inlet~ r;
#X obj 301 171 outlet~ l;
#X obj 366 171 outlet~ r;
#X obj 10 9 hsl 80 15 0 1 0 0 \$0-roomoutput \$0-roominput room 30
5 0 10 -204786 -1 -1 1580 1;
#X obj 10 32 hsl 80 15 0 1 0 0 \$0-dampoutput \$0-dampinput damp 30
5 0 10 -261682 -1 -1 1580 1;
#X obj 10 54 hsl 80 15 0 1 0 0 \$0-widthoutput \$0-widthinput width
30 5 0 10 -204800 -1 -1 1580 1;
#X obj 10 76 hsl 80 15 0 1 0 0 \$0-drywetoutput \$0-drywetinput dry/wet
28 5 0 10 -262130 -1 -1 1580 1;
#X obj 151 17 loadbang;
#X obj 241 80 s \$0-roominput;
#X obj 151 80 s \$0-dampinput;
#X obj 296 57 s \$0-drywetinput;
#X obj 332 80 s \$0-widthinput;
#X obj 195 109 r \$0-freeverbmsg;
#X obj 21 194 r \$0-roomoutput;
#X obj 21 243 s \$0-freeverbmsg;
#X msg 21 219 roomsize \$1;
#X obj 131 243 s \$0-freeverbmsg;
#X obj 131 193 r \$0-dampoutput;
#X msg 131 219 damping \$1;
#X obj 241 243 s \$0-freeverbmsg;
#X obj 241 193 r \$0-widthoutput;
#X msg 241 219 width \$1;
#X obj 18 104 r \$0-drywetoutput;
#X obj 18 172 s \$0-freeverbmsg;
#X obj 18 130 expr 1-$f1;
#X msg 93 138 wet \$1;
#X msg 18 151 dry \$1;
#X msg 151 39 0.2;
#X obj 434 35 inlet roomin;
#X obj 444 95 inlet dampin;
#X obj 534 32 inlet widin;
#X obj 542 90 inlet dwin;
#X obj 434 57 clip 0 1;
#X obj 444 117 clip 0 1;
#X obj 534 64 clip 0 1;
#X obj 542 114 clip 0 1;
#X obj 534 172 s \$0-widthinput;
#X obj 434 171 s \$0-roominput;
#X obj 444 141 s \$0-dampinput;
#X obj 542 141 s \$0-drywetinput;
#X text 370 200 Custom Reverb mod;
#X text 367 231 uses freeverb~ though;
#X text 353 245 I can't make my own cool shit;
#X connect 0 0 3 0;
#X connect 0 1 4 0;
#X connect 1 0 0 0;
#X connect 2 0 0 1;
#X connect 9 0 29 0;
#X connect 14 0 0 0;
#X connect 15 0 17 0;
#X connect 17 0 16 0;
#X connect 19 0 20 0;
#X connect 20 0 18 0;
#X connect 22 0 23 0;
#X connect 23 0 21 0;
#X connect 24 0 26 0;
#X connect 24 0 27 0;
#X connect 26 0 28 0;
#X connect 27 0 25 0;
#X connect 28 0 25 0;
#X connect 29 0 11 0;
#X connect 29 0 10 0;
#X connect 29 0 13 0;
#X connect 29 0 12 0;
#X connect 30 0 34 0;
#X connect 31 0 35 0;
#X connect 32 0 36 0;
#X connect 33 0 37 0;
#X connect 34 0 39 0;
#X connect 35 0 40 0;
#X connect 36 0 38 0;
#X connect 37 0 41 0;
#X coords 0 -1 1 1 100 100 2 0 0;
