#N canvas 822 213 241 165 10;
#X obj 12 53 inlet~ signal;
#X obj 12 135 outlet~ output;
#X obj 12 113 *~;
#X obj 36 75 inlet value;
#X obj 36 96 != 0;
#X text 13 6 Spigot~;
#X text 13 21 Basic gating for signals;
#X text 13 30 Nothing more than a regular [spigot];
#X connect 0 0 2 0;
#X connect 2 0 1 0;
#X connect 3 0 4 0;
#X connect 4 0 2 1;
